ISO-10303-21;
HEADER;
FILE_DESCRIPTION(('STEP AP214'),'1');
FILE_NAME('PUNCH_1.step','2026-05-08T22:48:40',(' '),(' '),'Spatial InterOp 3D',' ',' ');
FILE_SCHEMA(('AUTOMOTIVE_DESIGN { 1 0 10303 214 1 1 1 1 }'));
ENDSEC;
DATA;
#1=PRODUCT_DEFINITION_CONTEXT('',#9,'design');
#2=APPLICATION_PROTOCOL_DEFINITION('INTERNATIONAL STANDARD','automotive_design',1994,#9);
#3=PRODUCT_CATEGORY_RELATIONSHIP('NONE','NONE',#10,#11);
#4=SHAPE_DEFINITION_REPRESENTATION(#12,#13);
#5= (GEOMETRIC_REPRESENTATION_CONTEXT(3)GLOBAL_UNCERTAINTY_ASSIGNED_CONTEXT((#16))GLOBAL_UNIT_ASSIGNED_CONTEXT((#18,#19,#20))REPRESENTATION_CONTEXT('NONE','WORKSPACE'));
#9=APPLICATION_CONTEXT(' ');
#10=PRODUCT_CATEGORY('part','NONE');
#11=PRODUCT_RELATED_PRODUCT_CATEGORY('detail',' ',(#22));
#12=PRODUCT_DEFINITION_SHAPE('NONE','NONE',#23);
#13=MANIFOLD_SURFACE_SHAPE_REPRESENTATION('1',(#24,#25),#5);
#16=UNCERTAINTY_MEASURE_WITH_UNIT(LENGTH_MEASURE(1.0E-06),#18,'','');
#18= (CONVERSION_BASED_UNIT('MILLIMETRE',#28)LENGTH_UNIT()NAMED_UNIT(#31));
#19= (NAMED_UNIT(#33)PLANE_ANGLE_UNIT()SI_UNIT($,.RADIAN.));
#20= (NAMED_UNIT(#33)SOLID_ANGLE_UNIT()SI_UNIT($,.STERADIAN.));
#22=PRODUCT('1','','PART--DESC',(#39));
#23=PRODUCT_DEFINITION('','NONE',#40,#1);
#24=SHELL_BASED_SURFACE_MODEL('1',(#41));
#25=AXIS2_PLACEMENT_3D('',#42,#43,#44);
#28=LENGTH_MEASURE_WITH_UNIT(LENGTH_MEASURE(1.0),#45);
#31=DIMENSIONAL_EXPONENTS(1.0,0.0,0.0,0.0,0.0,0.0,0.0);
#33=DIMENSIONAL_EXPONENTS(0.0,0.0,0.0,0.0,0.0,0.0,0.0);
#39=PRODUCT_CONTEXT('',#9,'mechanical');
#40=PRODUCT_DEFINITION_FORMATION_WITH_SPECIFIED_SOURCE(' ','NONE',#22,.NOT_KNOWN.);
#41=CLOSED_SHELL('',(#46,#47,#48,#49,#50,#51,#52,#53,#54,#55,#56));
#42=CARTESIAN_POINT('',(0.0,0.0,0.0));
#43=DIRECTION('',(0.0,0.0,1.0));
#44=DIRECTION('',(1.0,0.0,0.0));
#45= (NAMED_UNIT(#31)LENGTH_UNIT()SI_UNIT(.MILLI.,.METRE.));
#46=FACE_SURFACE('',(#58),#59,.F.);
#47=FACE_SURFACE('',(#60),#61,.T.);
#48=FACE_SURFACE('',(#62),#63,.T.);
#49=FACE_SURFACE('',(#64),#65,.T.);
#50=FACE_SURFACE('',(#66),#67,.T.);
#51=FACE_SURFACE('',(#68),#69,.T.);
#52=FACE_SURFACE('',(#70),#71,.T.);
#53=FACE_SURFACE('',(#72),#73,.T.);
#54=FACE_SURFACE('',(#74,#75),#76,.T.);
#55=FACE_SURFACE('',(#77),#78,.T.);
#56=FACE_SURFACE('',(#79),#80,.F.);
#58=FACE_BOUND('',#81,.T.);
#59=CYLINDRICAL_SURFACE('',#82,20.0);
#60=FACE_BOUND('',#83,.T.);
#61=TOROIDAL_SURFACE('',#84,22.0,2.00000000000003);
#62=FACE_BOUND('',#85,.T.);
#63=TOROIDAL_SURFACE('',#86,22.0,2.00000000000003);
#64=FACE_BOUND('',#87,.T.);
#65=TOROIDAL_SURFACE('',#88,28.75,15.0);
#66=FACE_BOUND('',#89,.T.);
#67=TOROIDAL_SURFACE('',#90,28.75,15.0);
#68=FACE_BOUND('',#91,.T.);
#69=CYLINDRICAL_SURFACE('',#92,43.75);
#70=FACE_BOUND('',#93,.T.);
#71=CYLINDRICAL_SURFACE('',#94,43.75);
#72=FACE_BOUND('',#95,.T.);
#73=TOROIDAL_SURFACE('',#96,28.75,15.0);
#74=FACE_BOUND('',#97,.T.);
#75=FACE_BOUND('',#98,.T.);
#76=PLANE('',#99);
#77=FACE_BOUND('',#100,.T.);
#78=TOROIDAL_SURFACE('',#101,22.0,2.00000000000003);
#79=FACE_BOUND('',#102,.T.);
#80=CYLINDRICAL_SURFACE('',#103,20.0);
#81=EDGE_LOOP('',(#104,#105,#106,#107,#108));
#82=AXIS2_PLACEMENT_3D('',#109,#110,#111);
#83=EDGE_LOOP('',(#112,#113,#114,#115));
#84=AXIS2_PLACEMENT_3D('',#116,#117,#118);
#85=EDGE_LOOP('',(#119,#120,#121,#122));
#86=AXIS2_PLACEMENT_3D('',#123,#124,#125);
#87=EDGE_LOOP('',(#126,#127,#128,#129));
#88=AXIS2_PLACEMENT_3D('',#130,#131,#132);
#89=EDGE_LOOP('',(#133,#134,#135,#136));
#90=AXIS2_PLACEMENT_3D('',#137,#138,#139);
#91=EDGE_LOOP('',(#140,#141,#142,#143,#144));
#92=AXIS2_PLACEMENT_3D('',#145,#146,#147);
#93=EDGE_LOOP('',(#148,#149,#150,#151,#152));
#94=AXIS2_PLACEMENT_3D('',#153,#154,#155);
#95=EDGE_LOOP('',(#156,#157,#158,#159,#160));
#96=AXIS2_PLACEMENT_3D('',#161,#162,#163);
#97=EDGE_LOOP('',(#164,#165,#166));
#98=EDGE_LOOP('',(#167,#168,#169));
#99=AXIS2_PLACEMENT_3D('',#170,#171,#172);
#100=EDGE_LOOP('',(#173,#174,#175,#176,#177));
#101=AXIS2_PLACEMENT_3D('',#178,#179,#180);
#102=EDGE_LOOP('',(#181,#182,#183,#184,#185));
#103=AXIS2_PLACEMENT_3D('',#186,#187,#188);
#104=ORIENTED_EDGE('',*,*,#189,.T.);
#105=ORIENTED_EDGE('',*,*,#190,.T.);
#106=ORIENTED_EDGE('',*,*,#191,.T.);
#107=ORIENTED_EDGE('',*,*,#192,.T.);
#108=ORIENTED_EDGE('',*,*,#193,.T.);
#109=CARTESIAN_POINT('',(0.0,21.4999995353112,0.0));
#110=DIRECTION('',(-0.0,1.0,0.0));
#111=DIRECTION('',(1.0,0.0,0.0));
#112=ORIENTED_EDGE('',*,*,#194,.T.);
#113=ORIENTED_EDGE('',*,*,#195,.T.);
#114=ORIENTED_EDGE('',*,*,#196,.T.);
#115=ORIENTED_EDGE('',*,*,#197,.T.);
#116=CARTESIAN_POINT('',(0.0,42.9999990706225,0.0));
#117=DIRECTION('',(-0.0,1.0,0.0));
#118=DIRECTION('',(0.0,0.0,1.0));
#119=ORIENTED_EDGE('',*,*,#198,.T.);
#120=ORIENTED_EDGE('',*,*,#199,.T.);
#121=ORIENTED_EDGE('',*,*,#196,.F.);
#122=ORIENTED_EDGE('',*,*,#191,.F.);
#123=CARTESIAN_POINT('',(0.0,42.9999990706225,0.0));
#124=DIRECTION('',(-0.0,1.0,0.0));
#125=DIRECTION('',(0.0,0.0,1.0));
#126=ORIENTED_EDGE('',*,*,#200,.T.);
#127=ORIENTED_EDGE('',*,*,#201,.T.);
#128=ORIENTED_EDGE('',*,*,#202,.T.);
#129=ORIENTED_EDGE('',*,*,#203,.T.);
#130=CARTESIAN_POINT('',(0.0,29.9999990706225,0.0));
#131=DIRECTION('',(-0.0,1.0,0.0));
#132=DIRECTION('',(0.0,0.0,1.0));
#133=ORIENTED_EDGE('',*,*,#204,.T.);
#134=ORIENTED_EDGE('',*,*,#205,.T.);
#135=ORIENTED_EDGE('',*,*,#202,.F.);
#136=ORIENTED_EDGE('',*,*,#206,.T.);
#137=CARTESIAN_POINT('',(0.0,29.9999990706225,0.0));
#138=DIRECTION('',(-0.0,1.0,0.0));
#139=DIRECTION('',(0.0,0.0,1.0));
#140=ORIENTED_EDGE('',*,*,#207,.T.);
#141=ORIENTED_EDGE('',*,*,#208,.T.);
#142=ORIENTED_EDGE('',*,*,#203,.F.);
#143=ORIENTED_EDGE('',*,*,#209,.T.);
#144=ORIENTED_EDGE('',*,*,#210,.T.);
#145=CARTESIAN_POINT('',(0.0,15.0,0.0));
#146=DIRECTION('',(-0.0,1.0,0.0));
#147=DIRECTION('',(1.0,0.0,0.0));
#148=ORIENTED_EDGE('',*,*,#207,.F.);
#149=ORIENTED_EDGE('',*,*,#211,.T.);
#150=ORIENTED_EDGE('',*,*,#209,.F.);
#151=ORIENTED_EDGE('',*,*,#205,.F.);
#152=ORIENTED_EDGE('',*,*,#212,.T.);
#153=CARTESIAN_POINT('',(0.0,15.0,0.0));
#154=DIRECTION('',(-0.0,1.0,0.0));
#155=DIRECTION('',(1.0,0.0,0.0));
#156=ORIENTED_EDGE('',*,*,#204,.F.);
#157=ORIENTED_EDGE('',*,*,#213,.T.);
#158=ORIENTED_EDGE('',*,*,#200,.F.);
#159=ORIENTED_EDGE('',*,*,#208,.F.);
#160=ORIENTED_EDGE('',*,*,#212,.F.);
#161=CARTESIAN_POINT('',(0.0,29.9999990706225,0.0));
#162=DIRECTION('',(-0.0,1.0,0.0));
#163=DIRECTION('',(0.0,0.0,1.0));
#164=ORIENTED_EDGE('',*,*,#197,.F.);
#165=ORIENTED_EDGE('',*,*,#199,.F.);
#166=ORIENTED_EDGE('',*,*,#214,.T.);
#167=ORIENTED_EDGE('',*,*,#206,.F.);
#168=ORIENTED_EDGE('',*,*,#201,.F.);
#169=ORIENTED_EDGE('',*,*,#213,.F.);
#170=CARTESIAN_POINT('',(25.375,44.9999990706225,0.0));
#171=DIRECTION('',(-2.10531180965955E-15,1.0,0.0));
#172=DIRECTION('',(1.0,2.10531180965955E-15,0.0));
#173=ORIENTED_EDGE('',*,*,#198,.F.);
#174=ORIENTED_EDGE('',*,*,#190,.F.);
#175=ORIENTED_EDGE('',*,*,#215,.T.);
#176=ORIENTED_EDGE('',*,*,#194,.F.);
#177=ORIENTED_EDGE('',*,*,#214,.F.);
#178=CARTESIAN_POINT('',(0.0,42.9999990706225,0.0));
#179=DIRECTION('',(-0.0,1.0,0.0));
#180=DIRECTION('',(0.0,0.0,1.0));
#181=ORIENTED_EDGE('',*,*,#189,.F.);
#182=ORIENTED_EDGE('',*,*,#216,.T.);
#183=ORIENTED_EDGE('',*,*,#192,.F.);
#184=ORIENTED_EDGE('',*,*,#195,.F.);
#185=ORIENTED_EDGE('',*,*,#215,.F.);
#186=CARTESIAN_POINT('',(0.0,21.4999995353112,0.0));
#187=DIRECTION('',(-0.0,1.0,0.0));
#188=DIRECTION('',(1.0,0.0,0.0));
#189=EDGE_CURVE('',#217,#218,#219,.F.);
#190=EDGE_CURVE('',#218,#220,#221,.T.);
#191=EDGE_CURVE('',#220,#222,#223,.T.);
#192=EDGE_CURVE('',#222,#224,#225,.T.);
#193=EDGE_CURVE('',#224,#217,#226,.F.);
#194=EDGE_CURVE('',#227,#228,#229,.F.);
#195=EDGE_CURVE('',#228,#222,#230,.F.);
#196=EDGE_CURVE('',#222,#231,#232,.F.);
#197=EDGE_CURVE('',#231,#227,#233,.T.);
#198=EDGE_CURVE('',#220,#234,#235,.F.);
#199=EDGE_CURVE('',#234,#231,#236,.T.);
#200=EDGE_CURVE('',#237,#238,#239,.F.);
#201=EDGE_CURVE('',#238,#240,#241,.F.);
#202=EDGE_CURVE('',#240,#242,#243,.F.);
#203=EDGE_CURVE('',#242,#237,#244,.T.);
#204=EDGE_CURVE('',#245,#246,#247,.F.);
#205=EDGE_CURVE('',#246,#242,#248,.T.);
#206=EDGE_CURVE('',#240,#245,#249,.F.);
#207=EDGE_CURVE('',#250,#251,#252,.F.);
#208=EDGE_CURVE('',#251,#237,#253,.F.);
#209=EDGE_CURVE('',#242,#254,#255,.F.);
#210=EDGE_CURVE('',#254,#250,#256,.T.);
#211=EDGE_CURVE('',#250,#254,#257,.T.);
#212=EDGE_CURVE('',#246,#251,#258,.F.);
#213=EDGE_CURVE('',#245,#238,#259,.F.);
#214=EDGE_CURVE('',#234,#227,#260,.F.);
#215=EDGE_CURVE('',#218,#228,#261,.F.);
#216=EDGE_CURVE('',#217,#224,#262,.F.);
#217=VERTEX_POINT('',#263);
#218=VERTEX_POINT('',#264);
#219=LINE('',#265,#266);
#220=VERTEX_POINT('',#267);
#221=CIRCLE('',#268,20.0);
#222=VERTEX_POINT('',#269);
#223=CIRCLE('',#270,20.0);
#224=VERTEX_POINT('',#271);
#225=LINE('',#272,#273);
#226=CIRCLE('',#274,20.0);
#227=VERTEX_POINT('',#275);
#228=VERTEX_POINT('',#276);
#229=CIRCLE('',#277,2.00000000000003);
#230=CIRCLE('',#278,20.0);
#231=VERTEX_POINT('',#279);
#232=CIRCLE('',#280,2.00000000000003);
#233=CIRCLE('',#281,22.0);
#234=VERTEX_POINT('',#282);
#235=CIRCLE('',#283,2.00000000000003);
#236=CIRCLE('',#284,22.0);
#237=VERTEX_POINT('',#285);
#238=VERTEX_POINT('',#286);
#239=CIRCLE('',#287,15.0);
#240=VERTEX_POINT('',#288);
#241=CIRCLE('',#289,28.75);
#242=VERTEX_POINT('',#290);
#243=CIRCLE('',#291,15.0);
#244=CIRCLE('',#292,43.75);
#245=VERTEX_POINT('',#293);
#246=VERTEX_POINT('',#294);
#247=CIRCLE('',#295,15.0);
#248=CIRCLE('',#296,43.75);
#249=CIRCLE('',#297,28.75);
#250=VERTEX_POINT('',#298);
#251=VERTEX_POINT('',#299);
#252=LINE('',#300,#301);
#253=CIRCLE('',#302,43.75);
#254=VERTEX_POINT('',#303);
#255=LINE('',#304,#305);
#256=CIRCLE('',#306,43.75);
#257=CIRCLE('',#307,43.75);
#258=CIRCLE('',#308,43.75);
#259=CIRCLE('',#309,28.75);
#260=CIRCLE('',#310,22.0);
#261=CIRCLE('',#311,20.0);
#262=CIRCLE('',#312,20.0);
#263=CARTESIAN_POINT('',(-20.0,0.0,-2.44929359829471E-15));
#264=CARTESIAN_POINT('',(-20.0,42.9999990706225,-2.4492935982947E-15));
#265=CARTESIAN_POINT('',(-20.0,21.4999995353112,-2.4492935982947E-15));
#266=VECTOR('',#313,1.0);
#267=CARTESIAN_POINT('',(-2.4492935982947E-15,42.9999990706225,20.0));
#268=AXIS2_PLACEMENT_3D('',#314,#315,#316);
#269=CARTESIAN_POINT('',(20.0,42.9999990706225,0.0));
#270=AXIS2_PLACEMENT_3D('',#317,#318,#319);
#271=CARTESIAN_POINT('',(20.0,0.0,0.0));
#272=CARTESIAN_POINT('',(20.0,42.9999990706225,0.0));
#273=VECTOR('',#320,1.0);
#274=AXIS2_PLACEMENT_3D('',#321,#322,#323);
#275=CARTESIAN_POINT('',(2.69422295812418E-15,44.9999990706225,-22.0));
#276=CARTESIAN_POINT('',(2.4492935982947E-15,42.9999990706225,-20.0));
#277=AXIS2_PLACEMENT_3D('',#324,#325,#326);
#278=AXIS2_PLACEMENT_3D('',#327,#328,#329);
#279=CARTESIAN_POINT('',(22.0,44.9999990706225,0.0));
#280=AXIS2_PLACEMENT_3D('',#330,#331,#332);
#281=AXIS2_PLACEMENT_3D('',#333,#334,#335);
#282=CARTESIAN_POINT('',(-2.69422295812418E-15,44.9999990706225,22.0));
#283=AXIS2_PLACEMENT_3D('',#336,#337,#338);
#284=AXIS2_PLACEMENT_3D('',#339,#340,#341);
#285=CARTESIAN_POINT('',(5.35782974626967E-15,30.0,-43.75));
#286=CARTESIAN_POINT('',(3.52085954754864E-15,44.9999990706225,-28.75));
#287=AXIS2_PLACEMENT_3D('',#342,#343,#344);
#288=CARTESIAN_POINT('',(28.75,44.9999990706225,0.0));
#289=AXIS2_PLACEMENT_3D('',#345,#346,#347);
#290=CARTESIAN_POINT('',(43.75,30.0,0.0));
#291=AXIS2_PLACEMENT_3D('',#348,#349,#350);
#292=AXIS2_PLACEMENT_3D('',#351,#352,#353);
#293=CARTESIAN_POINT('',(-3.52085954754864E-15,44.9999990706225,28.75));
#294=CARTESIAN_POINT('',(-5.35782974626967E-15,30.0,43.75));
#295=AXIS2_PLACEMENT_3D('',#354,#355,#356);
#296=AXIS2_PLACEMENT_3D('',#357,#358,#359);
#297=AXIS2_PLACEMENT_3D('',#360,#361,#362);
#298=CARTESIAN_POINT('',(-43.75,0.0,-5.35782974626967E-15));
#299=CARTESIAN_POINT('',(-43.75,30.0,-5.35782974626967E-15));
#300=CARTESIAN_POINT('',(-43.75,15.0,-5.35782974626967E-15));
#301=VECTOR('',#363,1.0);
#302=AXIS2_PLACEMENT_3D('',#364,#365,#366);
#303=CARTESIAN_POINT('',(43.75,0.0,0.0));
#304=CARTESIAN_POINT('',(43.75,0.0,0.0));
#305=VECTOR('',#367,1.0);
#306=AXIS2_PLACEMENT_3D('',#368,#369,#370);
#307=AXIS2_PLACEMENT_3D('',#371,#372,#373);
#308=AXIS2_PLACEMENT_3D('',#374,#375,#376);
#309=AXIS2_PLACEMENT_3D('',#377,#378,#379);
#310=AXIS2_PLACEMENT_3D('',#380,#381,#382);
#311=AXIS2_PLACEMENT_3D('',#383,#384,#385);
#312=AXIS2_PLACEMENT_3D('',#386,#387,#388);
#313=DIRECTION('',(0.0,-1.0,0.0));
#314=CARTESIAN_POINT('',(0.0,42.9999990706225,0.0));
#315=DIRECTION('',(-0.0,1.0,0.0));
#316=DIRECTION('',(1.0,0.0,0.0));
#317=CARTESIAN_POINT('',(0.0,42.9999990706225,0.0));
#318=DIRECTION('',(-0.0,1.0,0.0));
#319=DIRECTION('',(1.0,0.0,0.0));
#320=DIRECTION('',(0.0,-1.0,0.0));
#321=CARTESIAN_POINT('',(0.0,0.0,0.0));
#322=DIRECTION('',(-0.0,1.0,0.0));
#323=DIRECTION('',(1.0,0.0,0.0));
#324=CARTESIAN_POINT('',(2.69422295812418E-15,42.9999990706225,-22.0));
#325=DIRECTION('',(-1.0,-0.0,-1.22464679914735E-16));
#326=DIRECTION('',(1.22464679914735E-16,0.0,-1.0));
#327=CARTESIAN_POINT('',(0.0,42.9999990706225,0.0));
#328=DIRECTION('',(-0.0,1.0,0.0));
#329=DIRECTION('',(1.0,0.0,0.0));
#330=CARTESIAN_POINT('',(22.0,42.9999990706225,0.0));
#331=DIRECTION('',(0.0,0.0,1.0));
#332=DIRECTION('',(1.0,0.0,0.0));
#333=CARTESIAN_POINT('',(0.0,44.9999990706225,0.0));
#334=DIRECTION('',(-0.0,1.0,0.0));
#335=DIRECTION('',(1.0,0.0,0.0));
#336=CARTESIAN_POINT('',(-2.69422295812418E-15,42.9999990706225,22.0));
#337=DIRECTION('',(-1.0,0.0,-1.22464679914735E-16));
#338=DIRECTION('',(-1.22464679914735E-16,0.0,1.0));
#339=CARTESIAN_POINT('',(0.0,44.9999990706225,0.0));
#340=DIRECTION('',(-0.0,1.0,0.0));
#341=DIRECTION('',(1.0,0.0,0.0));
#342=CARTESIAN_POINT('',(3.52085954754864E-15,29.9999990706225,-28.75));
#343=DIRECTION('',(-1.0,-0.0,-1.22464679914735E-16));
#344=DIRECTION('',(1.22464679914735E-16,0.0,-1.0));
#345=CARTESIAN_POINT('',(0.0,44.9999990706225,0.0));
#346=DIRECTION('',(-0.0,1.0,0.0));
#347=DIRECTION('',(1.0,0.0,0.0));
#348=CARTESIAN_POINT('',(28.75,29.9999990706225,0.0));
#349=DIRECTION('',(0.0,0.0,1.0));
#350=DIRECTION('',(1.0,0.0,0.0));
#351=CARTESIAN_POINT('',(0.0,30.0,0.0));
#352=DIRECTION('',(-0.0,1.0,0.0));
#353=DIRECTION('',(1.0,0.0,0.0));
#354=CARTESIAN_POINT('',(-3.52085954754864E-15,29.9999990706225,28.75));
#355=DIRECTION('',(-1.0,0.0,-1.22464679914735E-16));
#356=DIRECTION('',(-1.22464679914735E-16,0.0,1.0));
#357=CARTESIAN_POINT('',(0.0,30.0,0.0));
#358=DIRECTION('',(-0.0,1.0,0.0));
#359=DIRECTION('',(1.0,0.0,0.0));
#360=CARTESIAN_POINT('',(0.0,44.9999990706225,0.0));
#361=DIRECTION('',(-0.0,1.0,0.0));
#362=DIRECTION('',(1.0,0.0,0.0));
#363=DIRECTION('',(0.0,-1.0,0.0));
#364=CARTESIAN_POINT('',(0.0,30.0,0.0));
#365=DIRECTION('',(-0.0,1.0,0.0));
#366=DIRECTION('',(1.0,0.0,0.0));
#367=DIRECTION('',(0.0,1.0,0.0));
#368=CARTESIAN_POINT('',(0.0,0.0,0.0));
#369=DIRECTION('',(-0.0,1.0,0.0));
#370=DIRECTION('',(1.0,0.0,0.0));
#371=CARTESIAN_POINT('',(0.0,0.0,0.0));
#372=DIRECTION('',(-0.0,1.0,0.0));
#373=DIRECTION('',(1.0,0.0,0.0));
#374=CARTESIAN_POINT('',(0.0,30.0,0.0));
#375=DIRECTION('',(-0.0,1.0,0.0));
#376=DIRECTION('',(1.0,0.0,0.0));
#377=CARTESIAN_POINT('',(0.0,44.9999990706225,0.0));
#378=DIRECTION('',(-0.0,1.0,0.0));
#379=DIRECTION('',(1.0,0.0,0.0));
#380=CARTESIAN_POINT('',(0.0,44.9999990706225,0.0));
#381=DIRECTION('',(-0.0,1.0,0.0));
#382=DIRECTION('',(1.0,0.0,0.0));
#383=CARTESIAN_POINT('',(0.0,42.9999990706225,0.0));
#384=DIRECTION('',(-0.0,1.0,0.0));
#385=DIRECTION('',(1.0,0.0,0.0));
#386=CARTESIAN_POINT('',(0.0,0.0,0.0));
#387=DIRECTION('',(-0.0,1.0,0.0));
#388=DIRECTION('',(1.0,0.0,0.0));
ENDSEC;
END-ISO-10303-21;
