ISO-10303-21;
HEADER;
FILE_DESCRIPTION(('STEP AP214'),'1');
FILE_NAME('PUNCH_VIN.step','2026-05-08T22:48:56',(' '),(' '),'Spatial InterOp 3D',' ',' ');
FILE_SCHEMA(('AUTOMOTIVE_DESIGN { 1 0 10303 214 1 1 1 1 }'));
ENDSEC;
DATA;
#1=MECHANICAL_DESIGN_GEOMETRIC_PRESENTATION_REPRESENTATION(' ',(#10),#6);
#2=PRODUCT_DEFINITION_CONTEXT('',#11,'design');
#3=APPLICATION_PROTOCOL_DEFINITION('INTERNATIONAL STANDARD','automotive_design',1994,#11);
#4=PRODUCT_CATEGORY_RELATIONSHIP('NONE','NONE',#12,#13);
#5=SHAPE_DEFINITION_REPRESENTATION(#14,#15);
#6= (GEOMETRIC_REPRESENTATION_CONTEXT(3)GLOBAL_UNCERTAINTY_ASSIGNED_CONTEXT((#18))GLOBAL_UNIT_ASSIGNED_CONTEXT((#20,#21,#22))REPRESENTATION_CONTEXT('NONE','WORKSPACE'));
#10=STYLED_ITEM('',(#24),#25);
#11=APPLICATION_CONTEXT(' ');
#12=PRODUCT_CATEGORY('part','NONE');
#13=PRODUCT_RELATED_PRODUCT_CATEGORY('detail',' ',(#26));
#14=PRODUCT_DEFINITION_SHAPE('NONE','NONE',#27);
#15=MANIFOLD_SURFACE_SHAPE_REPRESENTATION('1',(#25,#28),#6);
#18=UNCERTAINTY_MEASURE_WITH_UNIT(LENGTH_MEASURE(1.0E-06),#20,'','');
#20= (CONVERSION_BASED_UNIT('MILLIMETRE',#31)LENGTH_UNIT()NAMED_UNIT(#34));
#21= (NAMED_UNIT(#36)PLANE_ANGLE_UNIT()SI_UNIT($,.RADIAN.));
#22= (NAMED_UNIT(#36)SOLID_ANGLE_UNIT()SI_UNIT($,.STERADIAN.));
#24=PRESENTATION_STYLE_ASSIGNMENT((#42));
#25=SHELL_BASED_SURFACE_MODEL('1',(#43));
#26=PRODUCT('1','','PART--DESC',(#44));
#27=PRODUCT_DEFINITION('','NONE',#45,#2);
#28=AXIS2_PLACEMENT_3D('',#46,#47,#48);
#31=LENGTH_MEASURE_WITH_UNIT(LENGTH_MEASURE(1.0),#49);
#34=DIMENSIONAL_EXPONENTS(1.0,0.0,0.0,0.0,0.0,0.0,0.0);
#36=DIMENSIONAL_EXPONENTS(0.0,0.0,0.0,0.0,0.0,0.0,0.0);
#42=SURFACE_STYLE_USAGE(.BOTH.,#50);
#43=CLOSED_SHELL('',(#51,#52,#53,#54,#55,#56,#57,#58,#59,#60,#61,#62,#63,#64,#65,#66,#67,#68,#69,#70,#71,#72,#73,#74,#75,#76,#77,#78,#79,#80,#81,#82,#83,#84,#85,#86));
#44=PRODUCT_CONTEXT('',#11,'mechanical');
#45=PRODUCT_DEFINITION_FORMATION_WITH_SPECIFIED_SOURCE(' ','NONE',#26,.NOT_KNOWN.);
#46=CARTESIAN_POINT('',(0.0,0.0,0.0));
#47=DIRECTION('',(0.0,0.0,1.0));
#48=DIRECTION('',(1.0,0.0,0.0));
#49= (NAMED_UNIT(#34)LENGTH_UNIT()SI_UNIT(.MILLI.,.METRE.));
#50=SURFACE_SIDE_STYLE('',(#88));
#51=FACE_SURFACE('',(#89),#90,.T.);
#52=FACE_SURFACE('',(#91),#92,.F.);
#53=FACE_SURFACE('',(#93),#94,.F.);
#54=FACE_SURFACE('',(#95),#96,.F.);
#55=FACE_SURFACE('',(#97),#98,.F.);
#56=FACE_SURFACE('',(#99),#100,.T.);
#57=FACE_SURFACE('',(#101),#102,.T.);
#58=FACE_SURFACE('',(#103,#104,#105,#106),#107,.T.);
#59=FACE_SURFACE('',(#108),#109,.T.);
#60=FACE_SURFACE('',(#110,#111,#112,#113),#114,.F.);
#61=FACE_SURFACE('',(#115),#116,.F.);
#62=FACE_SURFACE('',(#117),#118,.F.);
#63=FACE_SURFACE('',(#119),#120,.F.);
#64=FACE_SURFACE('',(#121),#122,.F.);
#65=FACE_SURFACE('',(#123),#124,.F.);
#66=FACE_SURFACE('',(#125),#126,.T.);
#67=FACE_SURFACE('',(#127),#128,.T.);
#68=FACE_SURFACE('',(#129),#130,.T.);
#69=FACE_SURFACE('',(#131),#132,.T.);
#70=FACE_SURFACE('',(#133),#134,.T.);
#71=FACE_SURFACE('',(#135),#136,.T.);
#72=FACE_SURFACE('',(#137),#138,.T.);
#73=FACE_SURFACE('',(#139),#140,.T.);
#74=FACE_SURFACE('',(#141),#142,.T.);
#75=FACE_SURFACE('',(#143),#144,.T.);
#76=FACE_SURFACE('',(#145),#146,.T.);
#77=FACE_SURFACE('',(#147),#148,.T.);
#78=FACE_SURFACE('',(#149),#150,.T.);
#79=FACE_SURFACE('',(#151),#152,.F.);
#80=FACE_SURFACE('',(#153,#154),#155,.F.);
#81=FACE_SURFACE('',(#156),#157,.F.);
#82=FACE_SURFACE('',(#158),#159,.F.);
#83=FACE_SURFACE('',(#160,#161),#162,.F.);
#84=FACE_SURFACE('',(#163),#164,.F.);
#85=FACE_SURFACE('',(#165),#166,.T.);
#86=FACE_SURFACE('',(#167),#168,.T.);
#88=SURFACE_STYLE_FILL_AREA(#169);
#89=FACE_BOUND('',#170,.T.);
#90=CYLINDRICAL_SURFACE('',#171,10.0);
#91=FACE_BOUND('',#172,.T.);
#92=CYLINDRICAL_SURFACE('',#173,4.0);
#93=FACE_BOUND('',#174,.T.);
#94=CYLINDRICAL_SURFACE('',#175,2.25);
#95=FACE_BOUND('',#176,.T.);
#96=CYLINDRICAL_SURFACE('',#177,4.0);
#97=FACE_BOUND('',#178,.T.);
#98=CYLINDRICAL_SURFACE('',#179,2.25);
#99=FACE_BOUND('',#180,.T.);
#100=CONICAL_SURFACE('',#181,20.0,0.34906585039886);
#101=FACE_BOUND('',#182,.T.);
#102=CYLINDRICAL_SURFACE('',#183,20.0);
#103=FACE_BOUND('',#184,.T.);
#104=FACE_BOUND('',#185,.T.);
#105=FACE_BOUND('',#186,.T.);
#106=FACE_BOUND('',#187,.T.);
#107=PLANE('',#188);
#108=FACE_BOUND('',#189,.T.);
#109=CYLINDRICAL_SURFACE('',#190,20.0);
#110=FACE_BOUND('',#191,.T.);
#111=FACE_BOUND('',#192,.T.);
#112=FACE_BOUND('',#193,.T.);
#113=FACE_BOUND('',#194,.T.);
#114=PLANE('',#195);
#115=FACE_BOUND('',#196,.T.);
#116=PLANE('',#197);
#117=FACE_BOUND('',#198,.T.);
#118=PLANE('',#199);
#119=FACE_BOUND('',#200,.T.);
#120=PLANE('',#201);
#121=FACE_BOUND('',#202,.T.);
#122=PLANE('',#203);
#123=FACE_BOUND('',#204,.T.);
#124=PLANE('',#205);
#125=FACE_BOUND('',#206,.T.);
#126=CYLINDRICAL_SURFACE('',#207,8.0);
#127=FACE_BOUND('',#208,.T.);
#128=CYLINDRICAL_SURFACE('',#209,8.0);
#129=FACE_BOUND('',#210,.T.);
#130=CYLINDRICAL_SURFACE('',#211,2.0);
#131=FACE_BOUND('',#212,.T.);
#132=TOROIDAL_SURFACE('',#213,6.0,2.0);
#133=FACE_BOUND('',#214,.T.);
#134=CYLINDRICAL_SURFACE('',#215,2.0);
#135=FACE_BOUND('',#216,.T.);
#136=TOROIDAL_SURFACE('',#217,6.0,2.0);
#137=FACE_BOUND('',#218,.T.);
#138=CYLINDRICAL_SURFACE('',#219,2.0);
#139=FACE_BOUND('',#220,.T.);
#140=CYLINDRICAL_SURFACE('',#221,2.0);
#141=FACE_BOUND('',#222,.T.);
#142=TOROIDAL_SURFACE('',#223,6.0,2.0);
#143=FACE_BOUND('',#224,.T.);
#144=CYLINDRICAL_SURFACE('',#225,2.0);
#145=FACE_BOUND('',#226,.T.);
#146=TOROIDAL_SURFACE('',#227,6.0,2.0);
#147=FACE_BOUND('',#228,.T.);
#148=CYLINDRICAL_SURFACE('',#229,2.0);
#149=FACE_BOUND('',#230,.T.);
#150=CONICAL_SURFACE('',#231,20.0,0.34906585039886);
#151=FACE_BOUND('',#232,.T.);
#152=CYLINDRICAL_SURFACE('',#233,2.25);
#153=FACE_BOUND('',#234,.T.);
#154=FACE_BOUND('',#235,.T.);
#155=PLANE('',#236);
#156=FACE_BOUND('',#237,.T.);
#157=CYLINDRICAL_SURFACE('',#238,4.0);
#158=FACE_BOUND('',#239,.T.);
#159=CYLINDRICAL_SURFACE('',#240,2.25);
#160=FACE_BOUND('',#241,.T.);
#161=FACE_BOUND('',#242,.T.);
#162=PLANE('',#243);
#163=FACE_BOUND('',#244,.T.);
#164=CYLINDRICAL_SURFACE('',#245,4.0);
#165=FACE_BOUND('',#246,.T.);
#166=CYLINDRICAL_SURFACE('',#247,10.0);
#167=FACE_BOUND('',#248,.T.);
#168=PLANE('',#249);
#169=FILL_AREA_STYLE('',(#250));
#170=EDGE_LOOP('',(#251,#252,#253,#254));
#171=AXIS2_PLACEMENT_3D('',#255,#256,#257);
#172=EDGE_LOOP('',(#258,#259,#260,#261));
#173=AXIS2_PLACEMENT_3D('',#262,#263,#264);
#174=EDGE_LOOP('',(#265,#266,#267,#268));
#175=AXIS2_PLACEMENT_3D('',#269,#270,#271);
#176=EDGE_LOOP('',(#272,#273,#274,#275));
#177=AXIS2_PLACEMENT_3D('',#276,#277,#278);
#178=EDGE_LOOP('',(#279,#280,#281,#282));
#179=AXIS2_PLACEMENT_3D('',#283,#284,#285);
#180=EDGE_LOOP('',(#286,#287,#288,#289));
#181=AXIS2_PLACEMENT_3D('',#290,#291,#292);
#182=EDGE_LOOP('',(#293,#294,#295,#296));
#183=AXIS2_PLACEMENT_3D('',#297,#298,#299);
#184=EDGE_LOOP('',(#300,#301));
#185=EDGE_LOOP('',(#302,#303));
#186=EDGE_LOOP('',(#304,#305));
#187=EDGE_LOOP('',(#306,#307,#308,#309,#310,#311,#312,#313));
#188=AXIS2_PLACEMENT_3D('',#314,#315,#316);
#189=EDGE_LOOP('',(#317,#318,#319,#320));
#190=AXIS2_PLACEMENT_3D('',#321,#322,#323);
#191=EDGE_LOOP('',(#324,#325));
#192=EDGE_LOOP('',(#326,#327));
#193=EDGE_LOOP('',(#328,#329));
#194=EDGE_LOOP('',(#330,#331));
#195=AXIS2_PLACEMENT_3D('',#332,#333,#334);
#196=EDGE_LOOP('',(#335,#336,#337,#338));
#197=AXIS2_PLACEMENT_3D('',#339,#340,#341);
#198=EDGE_LOOP('',(#342,#343,#344,#345,#346,#347));
#199=AXIS2_PLACEMENT_3D('',#348,#349,#350);
#200=EDGE_LOOP('',(#351,#352,#353,#354));
#201=AXIS2_PLACEMENT_3D('',#355,#356,#357);
#202=EDGE_LOOP('',(#358,#359,#360,#361,#362,#363));
#203=AXIS2_PLACEMENT_3D('',#364,#365,#366);
#204=EDGE_LOOP('',(#367,#368,#369,#370));
#205=AXIS2_PLACEMENT_3D('',#371,#372,#373);
#206=EDGE_LOOP('',(#374,#375,#376,#377));
#207=AXIS2_PLACEMENT_3D('',#378,#379,#380);
#208=EDGE_LOOP('',(#381,#382,#383,#384));
#209=AXIS2_PLACEMENT_3D('',#385,#386,#387);
#210=EDGE_LOOP('',(#388,#389,#390,#391));
#211=AXIS2_PLACEMENT_3D('',#392,#393,#394);
#212=EDGE_LOOP('',(#395,#396,#397,#398));
#213=AXIS2_PLACEMENT_3D('',#399,#400,#401);
#214=EDGE_LOOP('',(#402,#403,#404,#405));
#215=AXIS2_PLACEMENT_3D('',#406,#407,#408);
#216=EDGE_LOOP('',(#409,#410,#411,#412));
#217=AXIS2_PLACEMENT_3D('',#413,#414,#415);
#218=EDGE_LOOP('',(#416,#417,#418,#419));
#219=AXIS2_PLACEMENT_3D('',#420,#421,#422);
#220=EDGE_LOOP('',(#423,#424,#425,#426));
#221=AXIS2_PLACEMENT_3D('',#427,#428,#429);
#222=EDGE_LOOP('',(#430,#431,#432,#433));
#223=AXIS2_PLACEMENT_3D('',#434,#435,#436);
#224=EDGE_LOOP('',(#437,#438,#439,#440));
#225=AXIS2_PLACEMENT_3D('',#441,#442,#443);
#226=EDGE_LOOP('',(#444,#445,#446,#447));
#227=AXIS2_PLACEMENT_3D('',#448,#449,#450);
#228=EDGE_LOOP('',(#451,#452,#453,#454));
#229=AXIS2_PLACEMENT_3D('',#455,#456,#457);
#230=EDGE_LOOP('',(#458,#459,#460,#461));
#231=AXIS2_PLACEMENT_3D('',#462,#463,#464);
#232=EDGE_LOOP('',(#465,#466,#467,#468));
#233=AXIS2_PLACEMENT_3D('',#469,#470,#471);
#234=EDGE_LOOP('',(#472,#473));
#235=EDGE_LOOP('',(#474,#475));
#236=AXIS2_PLACEMENT_3D('',#476,#477,#478);
#237=EDGE_LOOP('',(#479,#480,#481,#482));
#238=AXIS2_PLACEMENT_3D('',#483,#484,#485);
#239=EDGE_LOOP('',(#486,#487,#488,#489));
#240=AXIS2_PLACEMENT_3D('',#490,#491,#492);
#241=EDGE_LOOP('',(#493,#494));
#242=EDGE_LOOP('',(#495,#496));
#243=AXIS2_PLACEMENT_3D('',#497,#498,#499);
#244=EDGE_LOOP('',(#500,#501,#502,#503));
#245=AXIS2_PLACEMENT_3D('',#504,#505,#506);
#246=EDGE_LOOP('',(#507,#508,#509,#510));
#247=AXIS2_PLACEMENT_3D('',#511,#512,#513);
#248=EDGE_LOOP('',(#514,#515));
#249=AXIS2_PLACEMENT_3D('',#516,#517,#518);
#250=FILL_AREA_STYLE_COLOUR('',#519);
#251=ORIENTED_EDGE('',*,*,#520,.T.);
#252=ORIENTED_EDGE('',*,*,#521,.T.);
#253=ORIENTED_EDGE('',*,*,#522,.T.);
#254=ORIENTED_EDGE('',*,*,#523,.T.);
#255=CARTESIAN_POINT('',(0.0,-5.0,0.0));
#256=DIRECTION('',(0.0,-1.0,0.0));
#257=DIRECTION('',(0.0,0.0,1.0));
#258=ORIENTED_EDGE('',*,*,#524,.T.);
#259=ORIENTED_EDGE('',*,*,#525,.T.);
#260=ORIENTED_EDGE('',*,*,#526,.T.);
#261=ORIENTED_EDGE('',*,*,#527,.T.);
#262=CARTESIAN_POINT('',(0.0,30.0,-15.0));
#263=DIRECTION('',(0.0,-1.0,0.0));
#264=DIRECTION('',(0.0,0.0,1.0));
#265=ORIENTED_EDGE('',*,*,#528,.T.);
#266=ORIENTED_EDGE('',*,*,#529,.T.);
#267=ORIENTED_EDGE('',*,*,#530,.T.);
#268=ORIENTED_EDGE('',*,*,#531,.T.);
#269=CARTESIAN_POINT('',(0.0,30.0,-15.0));
#270=DIRECTION('',(0.0,-1.0,0.0));
#271=DIRECTION('',(0.0,0.0,1.0));
#272=ORIENTED_EDGE('',*,*,#532,.T.);
#273=ORIENTED_EDGE('',*,*,#533,.T.);
#274=ORIENTED_EDGE('',*,*,#534,.T.);
#275=ORIENTED_EDGE('',*,*,#535,.T.);
#276=CARTESIAN_POINT('',(0.0,30.0,15.0));
#277=DIRECTION('',(0.0,-1.0,0.0));
#278=DIRECTION('',(0.0,0.0,1.0));
#279=ORIENTED_EDGE('',*,*,#536,.T.);
#280=ORIENTED_EDGE('',*,*,#537,.T.);
#281=ORIENTED_EDGE('',*,*,#538,.T.);
#282=ORIENTED_EDGE('',*,*,#539,.T.);
#283=CARTESIAN_POINT('',(0.0,30.0,15.0));
#284=DIRECTION('',(0.0,-1.0,0.0));
#285=DIRECTION('',(0.0,0.0,1.0));
#286=ORIENTED_EDGE('',*,*,#540,.T.);
#287=ORIENTED_EDGE('',*,*,#541,.T.);
#288=ORIENTED_EDGE('',*,*,#542,.T.);
#289=ORIENTED_EDGE('',*,*,#543,.T.);
#290=CARTESIAN_POINT('',(0.0,2.00000000000002,0.0));
#291=DIRECTION('',(-0.0,1.0,-0.0));
#292=DIRECTION('',(0.0,0.0,1.0));
#293=ORIENTED_EDGE('',*,*,#544,.T.);
#294=ORIENTED_EDGE('',*,*,#545,.T.);
#295=ORIENTED_EDGE('',*,*,#542,.F.);
#296=ORIENTED_EDGE('',*,*,#546,.T.);
#297=CARTESIAN_POINT('',(0.0,30.0,0.0));
#298=DIRECTION('',(0.0,1.0,0.0));
#299=DIRECTION('',(0.0,0.0,-1.0));
#300=ORIENTED_EDGE('',*,*,#547,.T.);
#301=ORIENTED_EDGE('',*,*,#544,.F.);
#302=ORIENTED_EDGE('',*,*,#548,.T.);
#303=ORIENTED_EDGE('',*,*,#526,.F.);
#304=ORIENTED_EDGE('',*,*,#549,.T.);
#305=ORIENTED_EDGE('',*,*,#534,.F.);
#306=ORIENTED_EDGE('',*,*,#550,.T.);
#307=ORIENTED_EDGE('',*,*,#551,.T.);
#308=ORIENTED_EDGE('',*,*,#552,.T.);
#309=ORIENTED_EDGE('',*,*,#553,.T.);
#310=ORIENTED_EDGE('',*,*,#554,.T.);
#311=ORIENTED_EDGE('',*,*,#555,.T.);
#312=ORIENTED_EDGE('',*,*,#556,.T.);
#313=ORIENTED_EDGE('',*,*,#557,.T.);
#314=CARTESIAN_POINT('',(0.0,30.0,0.0));
#315=DIRECTION('',(-0.0,1.0,0.0));
#316=DIRECTION('',(1.0,0.0,0.0));
#317=ORIENTED_EDGE('',*,*,#545,.F.);
#318=ORIENTED_EDGE('',*,*,#547,.F.);
#319=ORIENTED_EDGE('',*,*,#546,.F.);
#320=ORIENTED_EDGE('',*,*,#558,.T.);
#321=CARTESIAN_POINT('',(0.0,30.0,0.0));
#322=DIRECTION('',(0.0,1.0,0.0));
#323=DIRECTION('',(0.0,0.0,-1.0));
#324=ORIENTED_EDGE('',*,*,#559,.T.);
#325=ORIENTED_EDGE('',*,*,#540,.F.);
#326=ORIENTED_EDGE('',*,*,#560,.T.);
#327=ORIENTED_EDGE('',*,*,#522,.F.);
#328=ORIENTED_EDGE('',*,*,#561,.T.);
#329=ORIENTED_EDGE('',*,*,#528,.F.);
#330=ORIENTED_EDGE('',*,*,#562,.T.);
#331=ORIENTED_EDGE('',*,*,#536,.F.);
#332=CARTESIAN_POINT('',(0.0,0.0,0.0));
#333=DIRECTION('',(-0.0,1.0,0.0));
#334=DIRECTION('',(1.0,0.0,0.0));
#335=ORIENTED_EDGE('',*,*,#552,.F.);
#336=ORIENTED_EDGE('',*,*,#563,.T.);
#337=ORIENTED_EDGE('',*,*,#564,.T.);
#338=ORIENTED_EDGE('',*,*,#565,.T.);
#339=CARTESIAN_POINT('',(12.5,50.0,2.5));
#340=DIRECTION('',(-1.0,0.0,0.0));
#341=DIRECTION('',(0.0,0.0,1.0));
#342=ORIENTED_EDGE('',*,*,#550,.F.);
#343=ORIENTED_EDGE('',*,*,#566,.T.);
#344=ORIENTED_EDGE('',*,*,#567,.T.);
#345=ORIENTED_EDGE('',*,*,#568,.T.);
#346=ORIENTED_EDGE('',*,*,#569,.T.);
#347=ORIENTED_EDGE('',*,*,#570,.T.);
#348=CARTESIAN_POINT('',(-12.5,50.0,-2.5));
#349=DIRECTION('',(0.0,0.0,1.0));
#350=DIRECTION('',(1.0,0.0,0.0));
#351=ORIENTED_EDGE('',*,*,#571,.T.);
#352=ORIENTED_EDGE('',*,*,#572,.T.);
#353=ORIENTED_EDGE('',*,*,#556,.F.);
#354=ORIENTED_EDGE('',*,*,#573,.T.);
#355=CARTESIAN_POINT('',(-12.5,50.0,2.5));
#356=DIRECTION('',(1.0,-0.0,0.0));
#357=DIRECTION('',(0.0,1.0,-0.0));
#358=ORIENTED_EDGE('',*,*,#574,.T.);
#359=ORIENTED_EDGE('',*,*,#575,.T.);
#360=ORIENTED_EDGE('',*,*,#554,.F.);
#361=ORIENTED_EDGE('',*,*,#576,.T.);
#362=ORIENTED_EDGE('',*,*,#577,.T.);
#363=ORIENTED_EDGE('',*,*,#578,.T.);
#364=CARTESIAN_POINT('',(-12.5,50.0,2.5));
#365=DIRECTION('',(0.0,0.0,-1.0));
#366=DIRECTION('',(0.0,-1.0,0.0));
#367=ORIENTED_EDGE('',*,*,#579,.T.);
#368=ORIENTED_EDGE('',*,*,#580,.T.);
#369=ORIENTED_EDGE('',*,*,#581,.T.);
#370=ORIENTED_EDGE('',*,*,#582,.T.);
#371=CARTESIAN_POINT('',(0.0,50.0,0.0));
#372=DIRECTION('',(0.0,-1.0,0.0));
#373=DIRECTION('',(0.0,0.0,-1.0));
#374=ORIENTED_EDGE('',*,*,#581,.F.);
#375=ORIENTED_EDGE('',*,*,#583,.T.);
#376=ORIENTED_EDGE('',*,*,#571,.F.);
#377=ORIENTED_EDGE('',*,*,#584,.T.);
#378=CARTESIAN_POINT('',(-4.5,42.0,0.0));
#379=DIRECTION('',(0.0,0.0,-1.0));
#380=DIRECTION('',(1.0,0.0,0.0));
#381=ORIENTED_EDGE('',*,*,#564,.F.);
#382=ORIENTED_EDGE('',*,*,#585,.T.);
#383=ORIENTED_EDGE('',*,*,#579,.F.);
#384=ORIENTED_EDGE('',*,*,#586,.T.);
#385=CARTESIAN_POINT('',(4.5,42.0,0.0));
#386=DIRECTION('',(0.0,0.0,1.0));
#387=DIRECTION('',(-1.0,0.0,0.0));
#388=ORIENTED_EDGE('',*,*,#551,.F.);
#389=ORIENTED_EDGE('',*,*,#570,.F.);
#390=ORIENTED_EDGE('',*,*,#587,.T.);
#391=ORIENTED_EDGE('',*,*,#563,.F.);
#392=CARTESIAN_POINT('',(10.5,50.0,-0.5));
#393=DIRECTION('',(0.0,1.0,0.0));
#394=DIRECTION('',(0.0,0.0,-1.0));
#395=ORIENTED_EDGE('',*,*,#587,.F.);
#396=ORIENTED_EDGE('',*,*,#569,.F.);
#397=ORIENTED_EDGE('',*,*,#588,.T.);
#398=ORIENTED_EDGE('',*,*,#585,.F.);
#399=CARTESIAN_POINT('',(4.5,42.0,-0.5));
#400=DIRECTION('',(0.0,0.0,1.0));
#401=DIRECTION('',(1.0,0.0,0.0));
#402=ORIENTED_EDGE('',*,*,#588,.F.);
#403=ORIENTED_EDGE('',*,*,#568,.F.);
#404=ORIENTED_EDGE('',*,*,#589,.T.);
#405=ORIENTED_EDGE('',*,*,#580,.F.);
#406=CARTESIAN_POINT('',(0.0,48.0,-0.5));
#407=DIRECTION('',(1.0,-0.0,0.0));
#408=DIRECTION('',(0.0,0.0,1.0));
#409=ORIENTED_EDGE('',*,*,#589,.F.);
#410=ORIENTED_EDGE('',*,*,#567,.F.);
#411=ORIENTED_EDGE('',*,*,#590,.T.);
#412=ORIENTED_EDGE('',*,*,#583,.F.);
#413=CARTESIAN_POINT('',(-4.5,42.0,-0.5));
#414=DIRECTION('',(0.0,0.0,1.0));
#415=DIRECTION('',(1.0,0.0,0.0));
#416=ORIENTED_EDGE('',*,*,#590,.F.);
#417=ORIENTED_EDGE('',*,*,#566,.F.);
#418=ORIENTED_EDGE('',*,*,#557,.F.);
#419=ORIENTED_EDGE('',*,*,#572,.F.);
#420=CARTESIAN_POINT('',(-10.5,50.0,-0.5));
#421=DIRECTION('',(0.0,1.0,0.0));
#422=DIRECTION('',(0.0,0.0,-1.0));
#423=ORIENTED_EDGE('',*,*,#553,.F.);
#424=ORIENTED_EDGE('',*,*,#565,.F.);
#425=ORIENTED_EDGE('',*,*,#591,.T.);
#426=ORIENTED_EDGE('',*,*,#576,.F.);
#427=CARTESIAN_POINT('',(10.5,50.0,0.5));
#428=DIRECTION('',(0.0,1.0,0.0));
#429=DIRECTION('',(0.0,0.0,-1.0));
#430=ORIENTED_EDGE('',*,*,#591,.F.);
#431=ORIENTED_EDGE('',*,*,#586,.F.);
#432=ORIENTED_EDGE('',*,*,#592,.T.);
#433=ORIENTED_EDGE('',*,*,#577,.F.);
#434=CARTESIAN_POINT('',(4.5,42.0,0.5));
#435=DIRECTION('',(0.0,0.0,-1.0));
#436=DIRECTION('',(-1.0,0.0,0.0));
#437=ORIENTED_EDGE('',*,*,#592,.F.);
#438=ORIENTED_EDGE('',*,*,#582,.F.);
#439=ORIENTED_EDGE('',*,*,#593,.T.);
#440=ORIENTED_EDGE('',*,*,#578,.F.);
#441=CARTESIAN_POINT('',(0.0,48.0,0.5));
#442=DIRECTION('',(-1.0,0.0,-0.0));
#443=DIRECTION('',(0.0,0.0,-1.0));
#444=ORIENTED_EDGE('',*,*,#593,.F.);
#445=ORIENTED_EDGE('',*,*,#584,.F.);
#446=ORIENTED_EDGE('',*,*,#594,.T.);
#447=ORIENTED_EDGE('',*,*,#574,.F.);
#448=CARTESIAN_POINT('',(-4.5,42.0,0.5));
#449=DIRECTION('',(0.0,0.0,-1.0));
#450=DIRECTION('',(-1.0,0.0,0.0));
#451=ORIENTED_EDGE('',*,*,#594,.F.);
#452=ORIENTED_EDGE('',*,*,#573,.F.);
#453=ORIENTED_EDGE('',*,*,#555,.F.);
#454=ORIENTED_EDGE('',*,*,#575,.F.);
#455=CARTESIAN_POINT('',(-10.5,50.0,0.5));
#456=DIRECTION('',(0.0,1.0,0.0));
#457=DIRECTION('',(0.0,0.0,-1.0));
#458=ORIENTED_EDGE('',*,*,#541,.F.);
#459=ORIENTED_EDGE('',*,*,#559,.F.);
#460=ORIENTED_EDGE('',*,*,#543,.F.);
#461=ORIENTED_EDGE('',*,*,#558,.F.);
#462=CARTESIAN_POINT('',(0.0,2.00000000000002,0.0));
#463=DIRECTION('',(-0.0,1.0,-0.0));
#464=DIRECTION('',(0.0,0.0,1.0));
#465=ORIENTED_EDGE('',*,*,#537,.F.);
#466=ORIENTED_EDGE('',*,*,#562,.F.);
#467=ORIENTED_EDGE('',*,*,#539,.F.);
#468=ORIENTED_EDGE('',*,*,#595,.T.);
#469=CARTESIAN_POINT('',(0.0,30.0,15.0));
#470=DIRECTION('',(0.0,-1.0,0.0));
#471=DIRECTION('',(0.0,0.0,1.0));
#472=ORIENTED_EDGE('',*,*,#596,.T.);
#473=ORIENTED_EDGE('',*,*,#532,.F.);
#474=ORIENTED_EDGE('',*,*,#595,.F.);
#475=ORIENTED_EDGE('',*,*,#538,.F.);
#476=CARTESIAN_POINT('',(2.25,25.6,15.0));
#477=DIRECTION('',(0.0,-1.0,0.0));
#478=DIRECTION('',(0.0,0.0,-1.0));
#479=ORIENTED_EDGE('',*,*,#533,.F.);
#480=ORIENTED_EDGE('',*,*,#596,.F.);
#481=ORIENTED_EDGE('',*,*,#535,.F.);
#482=ORIENTED_EDGE('',*,*,#549,.F.);
#483=CARTESIAN_POINT('',(0.0,30.0,15.0));
#484=DIRECTION('',(0.0,-1.0,0.0));
#485=DIRECTION('',(0.0,0.0,1.0));
#486=ORIENTED_EDGE('',*,*,#529,.F.);
#487=ORIENTED_EDGE('',*,*,#561,.F.);
#488=ORIENTED_EDGE('',*,*,#531,.F.);
#489=ORIENTED_EDGE('',*,*,#597,.T.);
#490=CARTESIAN_POINT('',(0.0,30.0,-15.0));
#491=DIRECTION('',(0.0,-1.0,0.0));
#492=DIRECTION('',(0.0,0.0,1.0));
#493=ORIENTED_EDGE('',*,*,#598,.T.);
#494=ORIENTED_EDGE('',*,*,#524,.F.);
#495=ORIENTED_EDGE('',*,*,#597,.F.);
#496=ORIENTED_EDGE('',*,*,#530,.F.);
#497=CARTESIAN_POINT('',(2.25,25.6,-15.0));
#498=DIRECTION('',(0.0,-1.0,0.0));
#499=DIRECTION('',(0.0,0.0,-1.0));
#500=ORIENTED_EDGE('',*,*,#525,.F.);
#501=ORIENTED_EDGE('',*,*,#598,.F.);
#502=ORIENTED_EDGE('',*,*,#527,.F.);
#503=ORIENTED_EDGE('',*,*,#548,.F.);
#504=CARTESIAN_POINT('',(0.0,30.0,-15.0));
#505=DIRECTION('',(0.0,-1.0,0.0));
#506=DIRECTION('',(0.0,0.0,1.0));
#507=ORIENTED_EDGE('',*,*,#521,.F.);
#508=ORIENTED_EDGE('',*,*,#599,.T.);
#509=ORIENTED_EDGE('',*,*,#523,.F.);
#510=ORIENTED_EDGE('',*,*,#560,.F.);
#511=CARTESIAN_POINT('',(0.0,-5.0,0.0));
#512=DIRECTION('',(0.0,-1.0,0.0));
#513=DIRECTION('',(0.0,0.0,1.0));
#514=ORIENTED_EDGE('',*,*,#599,.F.);
#515=ORIENTED_EDGE('',*,*,#520,.F.);
#516=CARTESIAN_POINT('',(0.0,-5.0,0.0));
#517=DIRECTION('',(0.0,-1.0,0.0));
#518=DIRECTION('',(0.0,0.0,-1.0));
#519=COLOUR_RGB('',0.792156875133514,0.819607853889465,0.933333337306976);
#520=EDGE_CURVE('',#600,#601,#602,.F.);
#521=EDGE_CURVE('',#601,#603,#604,.T.);
#522=EDGE_CURVE('',#603,#605,#606,.T.);
#523=EDGE_CURVE('',#605,#600,#607,.F.);
#524=EDGE_CURVE('',#608,#609,#610,.F.);
#525=EDGE_CURVE('',#609,#611,#612,.T.);
#526=EDGE_CURVE('',#611,#613,#614,.T.);
#527=EDGE_CURVE('',#613,#608,#615,.F.);
#528=EDGE_CURVE('',#616,#617,#618,.F.);
#529=EDGE_CURVE('',#617,#619,#620,.T.);
#530=EDGE_CURVE('',#619,#621,#622,.T.);
#531=EDGE_CURVE('',#621,#616,#623,.F.);
#532=EDGE_CURVE('',#624,#625,#626,.F.);
#533=EDGE_CURVE('',#625,#627,#628,.T.);
#534=EDGE_CURVE('',#627,#629,#630,.T.);
#535=EDGE_CURVE('',#629,#624,#631,.F.);
#536=EDGE_CURVE('',#632,#633,#634,.F.);
#537=EDGE_CURVE('',#633,#635,#636,.T.);
#538=EDGE_CURVE('',#635,#637,#638,.T.);
#539=EDGE_CURVE('',#637,#632,#639,.F.);
#540=EDGE_CURVE('',#640,#641,#642,.F.);
#541=EDGE_CURVE('',#641,#643,#644,.T.);
#542=EDGE_CURVE('',#643,#645,#646,.F.);
#543=EDGE_CURVE('',#645,#640,#647,.F.);
#544=EDGE_CURVE('',#648,#649,#650,.F.);
#545=EDGE_CURVE('',#649,#645,#651,.T.);
#546=EDGE_CURVE('',#643,#648,#652,.F.);
#547=EDGE_CURVE('',#648,#649,#653,.T.);
#548=EDGE_CURVE('',#611,#613,#654,.F.);
#549=EDGE_CURVE('',#627,#629,#655,.F.);
#550=EDGE_CURVE('',#656,#657,#658,.F.);
#551=EDGE_CURVE('',#657,#659,#660,.T.);
#552=EDGE_CURVE('',#659,#661,#662,.F.);
#553=EDGE_CURVE('',#661,#663,#664,.T.);
#554=EDGE_CURVE('',#663,#665,#666,.F.);
#555=EDGE_CURVE('',#665,#667,#668,.T.);
#556=EDGE_CURVE('',#667,#669,#670,.F.);
#557=EDGE_CURVE('',#669,#656,#671,.T.);
#558=EDGE_CURVE('',#643,#645,#672,.T.);
#559=EDGE_CURVE('',#640,#641,#673,.T.);
#560=EDGE_CURVE('',#603,#605,#674,.F.);
#561=EDGE_CURVE('',#616,#617,#675,.T.);
#562=EDGE_CURVE('',#632,#633,#676,.T.);
#563=EDGE_CURVE('',#659,#677,#678,.T.);
#564=EDGE_CURVE('',#677,#679,#680,.T.);
#565=EDGE_CURVE('',#679,#661,#681,.T.);
#566=EDGE_CURVE('',#656,#682,#683,.T.);
#567=EDGE_CURVE('',#682,#684,#685,.T.);
#568=EDGE_CURVE('',#684,#686,#687,.T.);
#569=EDGE_CURVE('',#686,#688,#689,.T.);
#570=EDGE_CURVE('',#688,#657,#690,.T.);
#571=EDGE_CURVE('',#691,#692,#693,.T.);
#572=EDGE_CURVE('',#692,#669,#694,.T.);
#573=EDGE_CURVE('',#667,#691,#695,.T.);
#574=EDGE_CURVE('',#696,#697,#698,.T.);
#575=EDGE_CURVE('',#697,#665,#699,.T.);
#576=EDGE_CURVE('',#663,#700,#701,.T.);
#577=EDGE_CURVE('',#700,#702,#703,.T.);
#578=EDGE_CURVE('',#702,#696,#704,.T.);
#579=EDGE_CURVE('',#705,#706,#707,.T.);
#580=EDGE_CURVE('',#706,#708,#709,.T.);
#581=EDGE_CURVE('',#708,#710,#711,.T.);
#582=EDGE_CURVE('',#710,#705,#712,.T.);
#583=EDGE_CURVE('',#708,#692,#713,.T.);
#584=EDGE_CURVE('',#691,#710,#714,.T.);
#585=EDGE_CURVE('',#677,#706,#715,.T.);
#586=EDGE_CURVE('',#705,#679,#716,.T.);
#587=EDGE_CURVE('',#688,#677,#717,.F.);
#588=EDGE_CURVE('',#686,#706,#718,.F.);
#589=EDGE_CURVE('',#684,#708,#719,.F.);
#590=EDGE_CURVE('',#682,#692,#720,.F.);
#591=EDGE_CURVE('',#679,#700,#721,.F.);
#592=EDGE_CURVE('',#705,#702,#722,.F.);
#593=EDGE_CURVE('',#710,#696,#723,.F.);
#594=EDGE_CURVE('',#691,#697,#724,.F.);
#595=EDGE_CURVE('',#637,#635,#725,.T.);
#596=EDGE_CURVE('',#624,#625,#726,.T.);
#597=EDGE_CURVE('',#621,#619,#727,.T.);
#598=EDGE_CURVE('',#608,#609,#728,.T.);
#599=EDGE_CURVE('',#601,#600,#729,.F.);
#600=VERTEX_POINT('',#730);
#601=VERTEX_POINT('',#731);
#602=CIRCLE('',#732,10.0);
#603=VERTEX_POINT('',#733);
#604=LINE('',#734,#735);
#605=VERTEX_POINT('',#736);
#606=CIRCLE('',#737,10.0);
#607=LINE('',#738,#739);
#608=VERTEX_POINT('',#740);
#609=VERTEX_POINT('',#741);
#610=CIRCLE('',#742,4.0);
#611=VERTEX_POINT('',#743);
#612=LINE('',#744,#745);
#613=VERTEX_POINT('',#746);
#614=CIRCLE('',#747,4.0);
#615=LINE('',#748,#749);
#616=VERTEX_POINT('',#750);
#617=VERTEX_POINT('',#751);
#618=CIRCLE('',#752,2.25);
#619=VERTEX_POINT('',#753);
#620=LINE('',#754,#755);
#621=VERTEX_POINT('',#756);
#622=CIRCLE('',#757,2.25);
#623=LINE('',#758,#759);
#624=VERTEX_POINT('',#760);
#625=VERTEX_POINT('',#761);
#626=CIRCLE('',#762,4.0);
#627=VERTEX_POINT('',#763);
#628=LINE('',#764,#765);
#629=VERTEX_POINT('',#766);
#630=CIRCLE('',#767,4.0);
#631=LINE('',#768,#769);
#632=VERTEX_POINT('',#770);
#633=VERTEX_POINT('',#771);
#634=CIRCLE('',#772,2.25);
#635=VERTEX_POINT('',#773);
#636=LINE('',#774,#775);
#637=VERTEX_POINT('',#776);
#638=CIRCLE('',#777,2.25);
#639=LINE('',#778,#779);
#640=VERTEX_POINT('',#780);
#641=VERTEX_POINT('',#781);
#642=CIRCLE('',#782,19.2720595314676);
#643=VERTEX_POINT('',#783);
#644=LINE('',#784,#785);
#645=VERTEX_POINT('',#786);
#646=CIRCLE('',#787,20.0);
#647=LINE('',#788,#789);
#648=VERTEX_POINT('',#790);
#649=VERTEX_POINT('',#791);
#650=CIRCLE('',#792,20.0);
#651=LINE('',#793,#794);
#652=LINE('',#795,#796);
#653=CIRCLE('',#797,20.0);
#654=CIRCLE('',#798,4.0);
#655=CIRCLE('',#799,4.0);
#656=VERTEX_POINT('',#800);
#657=VERTEX_POINT('',#801);
#658=LINE('',#802,#803);
#659=VERTEX_POINT('',#804);
#660=CIRCLE('',#805,2.0);
#661=VERTEX_POINT('',#806);
#662=LINE('',#807,#808);
#663=VERTEX_POINT('',#809);
#664=CIRCLE('',#810,2.0);
#665=VERTEX_POINT('',#811);
#666=LINE('',#812,#813);
#667=VERTEX_POINT('',#814);
#668=CIRCLE('',#815,2.0);
#669=VERTEX_POINT('',#816);
#670=LINE('',#817,#818);
#671=CIRCLE('',#819,2.0);
#672=CIRCLE('',#820,20.0);
#673=CIRCLE('',#821,19.2720595314676);
#674=CIRCLE('',#822,10.0);
#675=CIRCLE('',#823,2.25);
#676=CIRCLE('',#824,2.25);
#677=VERTEX_POINT('',#825);
#678=LINE('',#826,#827);
#679=VERTEX_POINT('',#828);
#680=LINE('',#829,#830);
#681=LINE('',#831,#832);
#682=VERTEX_POINT('',#833);
#683=LINE('',#834,#835);
#684=VERTEX_POINT('',#836);
#685=CIRCLE('',#837,6.0);
#686=VERTEX_POINT('',#838);
#687=LINE('',#839,#840);
#688=VERTEX_POINT('',#841);
#689=CIRCLE('',#842,6.0);
#690=LINE('',#843,#844);
#691=VERTEX_POINT('',#845);
#692=VERTEX_POINT('',#846);
#693=LINE('',#847,#848);
#694=LINE('',#849,#850);
#695=LINE('',#851,#852);
#696=VERTEX_POINT('',#853);
#697=VERTEX_POINT('',#854);
#698=CIRCLE('',#855,6.0);
#699=LINE('',#856,#857);
#700=VERTEX_POINT('',#858);
#701=LINE('',#859,#860);
#702=VERTEX_POINT('',#861);
#703=CIRCLE('',#862,6.0);
#704=LINE('',#863,#864);
#705=VERTEX_POINT('',#865);
#706=VERTEX_POINT('',#866);
#707=LINE('',#867,#868);
#708=VERTEX_POINT('',#869);
#709=LINE('',#870,#871);
#710=VERTEX_POINT('',#872);
#711=LINE('',#873,#874);
#712=LINE('',#875,#876);
#713=CIRCLE('',#877,8.0);
#714=CIRCLE('',#878,8.0);
#715=CIRCLE('',#879,8.0);
#716=CIRCLE('',#880,8.0);
#717=CIRCLE('',#881,2.0);
#718=CIRCLE('',#882,2.0);
#719=CIRCLE('',#883,2.0);
#720=CIRCLE('',#884,2.0);
#721=CIRCLE('',#885,2.0);
#722=CIRCLE('',#886,2.0);
#723=CIRCLE('',#887,2.0);
#724=CIRCLE('',#888,2.0);
#725=CIRCLE('',#889,2.25);
#726=CIRCLE('',#890,4.0);
#727=CIRCLE('',#891,2.25);
#728=CIRCLE('',#892,4.0);
#729=CIRCLE('',#893,10.0);
#730=CARTESIAN_POINT('',(0.0,-5.0,10.0));
#731=CARTESIAN_POINT('',(1.22464679914735E-15,-5.0,-10.0));
#732=AXIS2_PLACEMENT_3D('',#894,#895,#896);
#733=CARTESIAN_POINT('',(1.22464679914735E-15,0.0,-10.0));
#734=CARTESIAN_POINT('',(1.22464679914735E-15,-5.0,-10.0));
#735=VECTOR('',#897,1000.0);
#736=CARTESIAN_POINT('',(0.0,0.0,10.0));
#737=AXIS2_PLACEMENT_3D('',#898,#899,#900);
#738=CARTESIAN_POINT('',(0.0,-5.0,10.0));
#739=VECTOR('',#901,1000.0);
#740=CARTESIAN_POINT('',(0.0,25.6,-11.0));
#741=CARTESIAN_POINT('',(4.89858719658941E-16,25.6,-19.0));
#742=AXIS2_PLACEMENT_3D('',#902,#903,#904);
#743=CARTESIAN_POINT('',(4.89858719658941E-16,30.0,-19.0));
#744=CARTESIAN_POINT('',(4.89858719658941E-16,30.0,-19.0));
#745=VECTOR('',#905,1000.0);
#746=CARTESIAN_POINT('',(0.0,30.0,-11.0));
#747=AXIS2_PLACEMENT_3D('',#906,#907,#908);
#748=CARTESIAN_POINT('',(0.0,30.0,-11.0));
#749=VECTOR('',#909,1000.0);
#750=CARTESIAN_POINT('',(0.0,0.0,-12.75));
#751=CARTESIAN_POINT('',(2.75545529808154E-16,0.0,-17.25));
#752=AXIS2_PLACEMENT_3D('',#910,#911,#912);
#753=CARTESIAN_POINT('',(2.75545529808155E-16,25.6,-17.25));
#754=CARTESIAN_POINT('',(2.75545529808154E-16,30.0,-17.25));
#755=VECTOR('',#913,1000.0);
#756=CARTESIAN_POINT('',(0.0,25.6,-12.75));
#757=AXIS2_PLACEMENT_3D('',#914,#915,#916);
#758=CARTESIAN_POINT('',(0.0,30.0,-12.75));
#759=VECTOR('',#917,1000.0);
#760=CARTESIAN_POINT('',(0.0,25.6,19.0));
#761=CARTESIAN_POINT('',(4.89858719658941E-16,25.6,11.0));
#762=AXIS2_PLACEMENT_3D('',#918,#919,#920);
#763=CARTESIAN_POINT('',(4.89858719658941E-16,30.0,11.0));
#764=CARTESIAN_POINT('',(4.89858719658941E-16,30.0,11.0));
#765=VECTOR('',#921,1000.0);
#766=CARTESIAN_POINT('',(0.0,30.0,19.0));
#767=AXIS2_PLACEMENT_3D('',#922,#923,#924);
#768=CARTESIAN_POINT('',(0.0,30.0,19.0));
#769=VECTOR('',#925,1000.0);
#770=CARTESIAN_POINT('',(0.0,0.0,17.25));
#771=CARTESIAN_POINT('',(2.75545529808154E-16,0.0,12.75));
#772=AXIS2_PLACEMENT_3D('',#926,#927,#928);
#773=CARTESIAN_POINT('',(2.75545529808155E-16,25.6,12.75));
#774=CARTESIAN_POINT('',(2.75545529808154E-16,30.0,12.75));
#775=VECTOR('',#929,1000.0);
#776=CARTESIAN_POINT('',(0.0,25.6,17.25));
#777=AXIS2_PLACEMENT_3D('',#930,#931,#932);
#778=CARTESIAN_POINT('',(0.0,30.0,17.25));
#779=VECTOR('',#933,1000.0);
#780=CARTESIAN_POINT('',(0.0,0.0,19.2720595314676));
#781=CARTESIAN_POINT('',(2.4047201000568E-15,0.0,-19.2720595314676));
#782=AXIS2_PLACEMENT_3D('',#934,#935,#936);
#783=CARTESIAN_POINT('',(0.0,2.00000000000002,-20.0));
#784=CARTESIAN_POINT('',(2.44929359829471E-15,2.00000000000002,-20.0));
#785=VECTOR('',#937,1000.0);
#786=CARTESIAN_POINT('',(2.44929359829471E-15,2.00000000000002,20.0));
#787=AXIS2_PLACEMENT_3D('',#938,#939,#940);
#788=CARTESIAN_POINT('',(0.0,2.00000000000002,20.0));
#789=VECTOR('',#941,1000.0);
#790=CARTESIAN_POINT('',(0.0,30.0,-20.0));
#791=CARTESIAN_POINT('',(2.44929359829471E-15,30.0,20.0));
#792=AXIS2_PLACEMENT_3D('',#942,#943,#944);
#793=CARTESIAN_POINT('',(2.44929359829471E-15,30.0,20.0));
#794=VECTOR('',#945,1000.0);
#795=CARTESIAN_POINT('',(0.0,30.0,-20.0));
#796=VECTOR('',#946,1000.0);
#797=AXIS2_PLACEMENT_3D('',#947,#948,#949);
#798=AXIS2_PLACEMENT_3D('',#950,#951,#952);
#799=AXIS2_PLACEMENT_3D('',#953,#954,#955);
#800=CARTESIAN_POINT('',(-10.5,30.0,-2.5));
#801=CARTESIAN_POINT('',(10.5,30.0,-2.5));
#802=CARTESIAN_POINT('',(-12.5,30.0,-2.5));
#803=VECTOR('',#956,1000.0);
#804=CARTESIAN_POINT('',(12.5,30.0,-0.5));
#805=AXIS2_PLACEMENT_3D('',#957,#958,#959);
#806=CARTESIAN_POINT('',(12.5,30.0,0.5));
#807=CARTESIAN_POINT('',(12.5,30.0,2.5));
#808=VECTOR('',#960,1000.0);
#809=CARTESIAN_POINT('',(10.5,30.0,2.5));
#810=AXIS2_PLACEMENT_3D('',#961,#962,#963);
#811=CARTESIAN_POINT('',(-10.5,30.0,2.5));
#812=CARTESIAN_POINT('',(-12.5,30.0,2.5));
#813=VECTOR('',#964,1000.0);
#814=CARTESIAN_POINT('',(-12.5,30.0,0.5));
#815=AXIS2_PLACEMENT_3D('',#965,#966,#967);
#816=CARTESIAN_POINT('',(-12.5,30.0,-0.5));
#817=CARTESIAN_POINT('',(-12.5,30.0,2.5));
#818=VECTOR('',#968,1000.0);
#819=AXIS2_PLACEMENT_3D('',#969,#970,#971);
#820=AXIS2_PLACEMENT_3D('',#972,#973,#974);
#821=AXIS2_PLACEMENT_3D('',#975,#976,#977);
#822=AXIS2_PLACEMENT_3D('',#978,#979,#980);
#823=AXIS2_PLACEMENT_3D('',#981,#982,#983);
#824=AXIS2_PLACEMENT_3D('',#984,#985,#986);
#825=CARTESIAN_POINT('',(12.5,42.0,-0.5));
#826=CARTESIAN_POINT('',(12.5,50.0,-0.5));
#827=VECTOR('',#987,1000.0);
#828=CARTESIAN_POINT('',(12.5,42.0,0.5));
#829=CARTESIAN_POINT('',(12.5,42.0,2.5));
#830=VECTOR('',#988,1000.0);
#831=CARTESIAN_POINT('',(12.5,50.0,0.5));
#832=VECTOR('',#989,1000.0);
#833=CARTESIAN_POINT('',(-10.5,42.0,-2.5));
#834=CARTESIAN_POINT('',(-10.5,50.0,-2.5));
#835=VECTOR('',#990,1000.0);
#836=CARTESIAN_POINT('',(-4.5,48.0,-2.5));
#837=AXIS2_PLACEMENT_3D('',#991,#992,#993);
#838=CARTESIAN_POINT('',(4.5,48.0,-2.5));
#839=CARTESIAN_POINT('',(-12.5,48.0,-2.5));
#840=VECTOR('',#994,1000.0);
#841=CARTESIAN_POINT('',(10.5,42.0,-2.5));
#842=AXIS2_PLACEMENT_3D('',#995,#996,#997);
#843=CARTESIAN_POINT('',(10.5,50.0,-2.5));
#844=VECTOR('',#998,1000.0);
#845=CARTESIAN_POINT('',(-12.5,42.0,0.5));
#846=CARTESIAN_POINT('',(-12.5,42.0,-0.5));
#847=CARTESIAN_POINT('',(-12.5,42.0,2.5));
#848=VECTOR('',#999,1000.0);
#849=CARTESIAN_POINT('',(-12.5,50.0,-0.5));
#850=VECTOR('',#1000,1000.0);
#851=CARTESIAN_POINT('',(-12.5,50.0,0.5));
#852=VECTOR('',#1001,1000.0);
#853=CARTESIAN_POINT('',(-4.5,48.0,2.5));
#854=CARTESIAN_POINT('',(-10.5,42.0,2.5));
#855=AXIS2_PLACEMENT_3D('',#1002,#1003,#1004);
#856=CARTESIAN_POINT('',(-10.5,50.0,2.5));
#857=VECTOR('',#1005,1000.0);
#858=CARTESIAN_POINT('',(10.5,42.0,2.5));
#859=CARTESIAN_POINT('',(10.5,50.0,2.5));
#860=VECTOR('',#1006,1000.0);
#861=CARTESIAN_POINT('',(4.5,48.0,2.5));
#862=AXIS2_PLACEMENT_3D('',#1007,#1008,#1009);
#863=CARTESIAN_POINT('',(-12.5,48.0,2.5));
#864=VECTOR('',#1010,1000.0);
#865=CARTESIAN_POINT('',(4.5,50.0,0.5));
#866=CARTESIAN_POINT('',(4.5,50.0,-0.5));
#867=CARTESIAN_POINT('',(4.5,50.0,0.0));
#868=VECTOR('',#1011,1000.0);
#869=CARTESIAN_POINT('',(-4.5,50.0,-0.5));
#870=CARTESIAN_POINT('',(0.0,50.0,-0.5));
#871=VECTOR('',#1012,1000.0);
#872=CARTESIAN_POINT('',(-4.5,50.0,0.5));
#873=CARTESIAN_POINT('',(-4.5,50.0,0.0));
#874=VECTOR('',#1013,1000.0);
#875=CARTESIAN_POINT('',(0.0,50.0,0.5));
#876=VECTOR('',#1014,1000.0);
#877=AXIS2_PLACEMENT_3D('',#1015,#1016,#1017);
#878=AXIS2_PLACEMENT_3D('',#1018,#1019,#1020);
#879=AXIS2_PLACEMENT_3D('',#1021,#1022,#1023);
#880=AXIS2_PLACEMENT_3D('',#1024,#1025,#1026);
#881=AXIS2_PLACEMENT_3D('',#1027,#1028,#1029);
#882=AXIS2_PLACEMENT_3D('',#1030,#1031,#1032);
#883=AXIS2_PLACEMENT_3D('',#1033,#1034,#1035);
#884=AXIS2_PLACEMENT_3D('',#1036,#1037,#1038);
#885=AXIS2_PLACEMENT_3D('',#1039,#1040,#1041);
#886=AXIS2_PLACEMENT_3D('',#1042,#1043,#1044);
#887=AXIS2_PLACEMENT_3D('',#1045,#1046,#1047);
#888=AXIS2_PLACEMENT_3D('',#1048,#1049,#1050);
#889=AXIS2_PLACEMENT_3D('',#1051,#1052,#1053);
#890=AXIS2_PLACEMENT_3D('',#1054,#1055,#1056);
#891=AXIS2_PLACEMENT_3D('',#1057,#1058,#1059);
#892=AXIS2_PLACEMENT_3D('',#1060,#1061,#1062);
#893=AXIS2_PLACEMENT_3D('',#1063,#1064,#1065);
#894=CARTESIAN_POINT('',(0.0,-5.0,0.0));
#895=DIRECTION('',(0.0,-1.0,0.0));
#896=DIRECTION('',(0.0,0.0,-1.0));
#897=DIRECTION('',(-0.0,1.0,-0.0));
#898=CARTESIAN_POINT('',(0.0,0.0,0.0));
#899=DIRECTION('',(0.0,-1.0,0.0));
#900=DIRECTION('',(0.0,0.0,1.0));
#901=DIRECTION('',(-0.0,1.0,-0.0));
#902=CARTESIAN_POINT('',(0.0,25.6,-15.0));
#903=DIRECTION('',(-0.0,1.0,0.0));
#904=DIRECTION('',(0.0,0.0,1.0));
#905=DIRECTION('',(-0.0,1.0,-0.0));
#906=CARTESIAN_POINT('',(0.0,30.0,-15.0));
#907=DIRECTION('',(-0.0,1.0,0.0));
#908=DIRECTION('',(0.0,0.0,1.0));
#909=DIRECTION('',(-0.0,1.0,-0.0));
#910=CARTESIAN_POINT('',(0.0,0.0,-15.0));
#911=DIRECTION('',(0.0,1.0,0.0));
#912=DIRECTION('',(0.0,0.0,1.0));
#913=DIRECTION('',(-0.0,1.0,-0.0));
#914=CARTESIAN_POINT('',(0.0,25.6,-15.0));
#915=DIRECTION('',(-0.0,1.0,0.0));
#916=DIRECTION('',(0.0,0.0,1.0));
#917=DIRECTION('',(-0.0,1.0,-0.0));
#918=CARTESIAN_POINT('',(0.0,25.6,15.0));
#919=DIRECTION('',(-0.0,1.0,0.0));
#920=DIRECTION('',(0.0,0.0,1.0));
#921=DIRECTION('',(-0.0,1.0,-0.0));
#922=CARTESIAN_POINT('',(0.0,30.0,15.0));
#923=DIRECTION('',(-0.0,1.0,0.0));
#924=DIRECTION('',(0.0,0.0,1.0));
#925=DIRECTION('',(-0.0,1.0,-0.0));
#926=CARTESIAN_POINT('',(0.0,0.0,15.0));
#927=DIRECTION('',(0.0,1.0,0.0));
#928=DIRECTION('',(0.0,0.0,1.0));
#929=DIRECTION('',(-0.0,1.0,-0.0));
#930=CARTESIAN_POINT('',(0.0,25.6,15.0));
#931=DIRECTION('',(-0.0,1.0,0.0));
#932=DIRECTION('',(0.0,0.0,1.0));
#933=DIRECTION('',(-0.0,1.0,-0.0));
#934=CARTESIAN_POINT('',(0.0,0.0,0.0));
#935=DIRECTION('',(0.0,-1.0,0.0));
#936=DIRECTION('',(0.0,0.0,1.0));
#937=DIRECTION('',(4.18853873767692E-17,0.93969262078591,-0.342020143325663));
#938=CARTESIAN_POINT('',(0.0,2.00000000000002,0.0));
#939=DIRECTION('',(-0.0,1.0,0.0));
#940=DIRECTION('',(0.0,0.0,1.0));
#941=DIRECTION('',(0.0,0.93969262078591,0.342020143325663));
#942=CARTESIAN_POINT('',(0.0,30.0,0.0));
#943=DIRECTION('',(0.0,1.0,0.0));
#944=DIRECTION('',(0.0,0.0,1.0));
#945=DIRECTION('',(-0.0,-1.0,-0.0));
#946=DIRECTION('',(-0.0,-1.0,-0.0));
#947=CARTESIAN_POINT('',(0.0,30.0,0.0));
#948=DIRECTION('',(0.0,1.0,0.0));
#949=DIRECTION('',(0.0,0.0,1.0));
#950=CARTESIAN_POINT('',(0.0,30.0,-15.0));
#951=DIRECTION('',(-0.0,1.0,0.0));
#952=DIRECTION('',(0.0,0.0,1.0));
#953=CARTESIAN_POINT('',(0.0,30.0,15.0));
#954=DIRECTION('',(-0.0,1.0,0.0));
#955=DIRECTION('',(0.0,0.0,1.0));
#956=DIRECTION('',(-1.0,-0.0,-0.0));
#957=CARTESIAN_POINT('',(10.5,30.0,-0.5));
#958=DIRECTION('',(0.0,-1.0,0.0));
#959=DIRECTION('',(0.0,0.0,1.0));
#960=DIRECTION('',(0.0,0.0,-1.0));
#961=CARTESIAN_POINT('',(10.5,30.0,0.5));
#962=DIRECTION('',(0.0,-1.0,0.0));
#963=DIRECTION('',(2.60208521396521E-15,0.0,1.0));
#964=DIRECTION('',(1.0,0.0,0.0));
#965=CARTESIAN_POINT('',(-10.5,30.0,0.5));
#966=DIRECTION('',(0.0,-1.0,0.0));
#967=DIRECTION('',(0.0,0.0,1.0));
#968=DIRECTION('',(-0.0,-0.0,1.0));
#969=CARTESIAN_POINT('',(-10.5,30.0,-0.5));
#970=DIRECTION('',(0.0,-1.0,0.0));
#971=DIRECTION('',(0.0,0.0,1.0));
#972=CARTESIAN_POINT('',(0.0,2.00000000000002,0.0));
#973=DIRECTION('',(-0.0,1.0,0.0));
#974=DIRECTION('',(0.0,0.0,1.0));
#975=CARTESIAN_POINT('',(0.0,0.0,0.0));
#976=DIRECTION('',(0.0,-1.0,0.0));
#977=DIRECTION('',(0.0,0.0,1.0));
#978=CARTESIAN_POINT('',(0.0,0.0,0.0));
#979=DIRECTION('',(0.0,-1.0,0.0));
#980=DIRECTION('',(0.0,0.0,1.0));
#981=CARTESIAN_POINT('',(0.0,0.0,-15.0));
#982=DIRECTION('',(0.0,1.0,0.0));
#983=DIRECTION('',(0.0,0.0,1.0));
#984=CARTESIAN_POINT('',(0.0,0.0,15.0));
#985=DIRECTION('',(0.0,1.0,0.0));
#986=DIRECTION('',(0.0,0.0,1.0));
#987=DIRECTION('',(-0.0,1.0,-0.0));
#988=DIRECTION('',(-0.0,-0.0,1.0));
#989=DIRECTION('',(0.0,-1.0,0.0));
#990=DIRECTION('',(-0.0,1.0,-0.0));
#991=CARTESIAN_POINT('',(-4.5,42.0,-2.5));
#992=DIRECTION('',(0.0,0.0,-1.0));
#993=DIRECTION('',(1.0,0.0,0.0));
#994=DIRECTION('',(1.0,-0.0,-0.0));
#995=CARTESIAN_POINT('',(4.5,42.0,-2.5));
#996=DIRECTION('',(0.0,0.0,-1.0));
#997=DIRECTION('',(1.0,0.0,0.0));
#998=DIRECTION('',(0.0,-1.0,0.0));
#999=DIRECTION('',(-0.0,-0.0,-1.0));
#1000=DIRECTION('',(-0.0,-1.0,0.0));
#1001=DIRECTION('',(0.0,1.0,-0.0));
#1002=CARTESIAN_POINT('',(-4.5,42.0,2.5));
#1003=DIRECTION('',(0.0,0.0,1.0));
#1004=DIRECTION('',(-1.0,0.0,0.0));
#1005=DIRECTION('',(0.0,-1.0,0.0));
#1006=DIRECTION('',(-0.0,1.0,-0.0));
#1007=CARTESIAN_POINT('',(4.5,42.0,2.5));
#1008=DIRECTION('',(0.0,0.0,1.0));
#1009=DIRECTION('',(-1.0,0.0,0.0));
#1010=DIRECTION('',(-1.0,-0.0,-0.0));
#1011=DIRECTION('',(0.0,0.0,-1.0));
#1012=DIRECTION('',(-1.0,0.0,0.0));
#1013=DIRECTION('',(0.0,0.0,1.0));
#1014=DIRECTION('',(1.0,0.0,0.0));
#1015=CARTESIAN_POINT('',(-4.5,42.0,-0.5));
#1016=DIRECTION('',(0.0,0.0,1.0));
#1017=DIRECTION('',(1.0,0.0,0.0));
#1018=CARTESIAN_POINT('',(-4.5,42.0,0.5));
#1019=DIRECTION('',(0.0,0.0,-1.0));
#1020=DIRECTION('',(-1.0,0.0,0.0));
#1021=CARTESIAN_POINT('',(4.5,42.0,-0.5));
#1022=DIRECTION('',(0.0,0.0,1.0));
#1023=DIRECTION('',(1.0,0.0,0.0));
#1024=CARTESIAN_POINT('',(4.5,42.0,0.5));
#1025=DIRECTION('',(0.0,0.0,-1.0));
#1026=DIRECTION('',(-1.0,0.0,0.0));
#1027=CARTESIAN_POINT('',(10.5,42.0,-0.5));
#1028=DIRECTION('',(-0.0,1.0,0.0));
#1029=DIRECTION('',(0.0,0.0,1.0));
#1030=CARTESIAN_POINT('',(4.5,48.0,-0.5));
#1031=DIRECTION('',(-1.0,0.0,0.0));
#1032=DIRECTION('',(0.0,0.0,1.0));
#1033=CARTESIAN_POINT('',(-4.5,48.0,-0.5));
#1034=DIRECTION('',(-1.0,0.0,0.0));
#1035=DIRECTION('',(0.0,0.0,1.0));
#1036=CARTESIAN_POINT('',(-10.5,42.0,-0.5));
#1037=DIRECTION('',(0.0,-1.0,0.0));
#1038=DIRECTION('',(0.0,0.0,-1.0));
#1039=CARTESIAN_POINT('',(10.5,42.0,0.5));
#1040=DIRECTION('',(0.0,1.0,0.0));
#1041=DIRECTION('',(0.0,0.0,1.0));
#1042=CARTESIAN_POINT('',(4.5,48.0,0.5));
#1043=DIRECTION('',(-1.0,0.0,0.0));
#1044=DIRECTION('',(0.0,0.0,1.0));
#1045=CARTESIAN_POINT('',(-4.5,48.0,0.5));
#1046=DIRECTION('',(-1.0,0.0,0.0));
#1047=DIRECTION('',(0.0,0.0,1.0));
#1048=CARTESIAN_POINT('',(-10.5,42.0,0.5));
#1049=DIRECTION('',(0.0,-1.0,0.0));
#1050=DIRECTION('',(0.0,0.0,-1.0));
#1051=CARTESIAN_POINT('',(0.0,25.6,15.0));
#1052=DIRECTION('',(-0.0,1.0,0.0));
#1053=DIRECTION('',(0.0,0.0,1.0));
#1054=CARTESIAN_POINT('',(0.0,25.6,15.0));
#1055=DIRECTION('',(-0.0,1.0,0.0));
#1056=DIRECTION('',(0.0,0.0,1.0));
#1057=CARTESIAN_POINT('',(0.0,25.6,-15.0));
#1058=DIRECTION('',(-0.0,1.0,0.0));
#1059=DIRECTION('',(0.0,0.0,1.0));
#1060=CARTESIAN_POINT('',(0.0,25.6,-15.0));
#1061=DIRECTION('',(-0.0,1.0,0.0));
#1062=DIRECTION('',(0.0,0.0,1.0));
#1063=CARTESIAN_POINT('',(0.0,-5.0,0.0));
#1064=DIRECTION('',(0.0,-1.0,0.0));
#1065=DIRECTION('',(0.0,0.0,-1.0));
ENDSEC;
END-ISO-10303-21;
