ISO-10303-21;
HEADER;
FILE_DESCRIPTION(('STEP AP214'),'1');
FILE_NAME('PUNCH_25.step','2026-05-08T22:48:51',(' '),(' '),'Spatial InterOp 3D',' ',' ');
FILE_SCHEMA(('AUTOMOTIVE_DESIGN { 1 0 10303 214 1 1 1 1 }'));
ENDSEC;
DATA;
#1=MECHANICAL_DESIGN_GEOMETRIC_PRESENTATION_REPRESENTATION(' ',(#10),#6);
#2=PRODUCT_DEFINITION_CONTEXT('',#11,'design');
#3=APPLICATION_PROTOCOL_DEFINITION('INTERNATIONAL STANDARD','automotive_design',1994,#11);
#4=PRODUCT_CATEGORY_RELATIONSHIP('NONE','NONE',#12,#13);
#5=SHAPE_DEFINITION_REPRESENTATION(#14,#15);
#6= (GEOMETRIC_REPRESENTATION_CONTEXT(3)GLOBAL_UNCERTAINTY_ASSIGNED_CONTEXT((#18))GLOBAL_UNIT_ASSIGNED_CONTEXT((#20,#21,#22))REPRESENTATION_CONTEXT('NONE','WORKSPACE'));
#10=STYLED_ITEM('',(#24),#25);
#11=APPLICATION_CONTEXT(' ');
#12=PRODUCT_CATEGORY('part','NONE');
#13=PRODUCT_RELATED_PRODUCT_CATEGORY('detail',' ',(#26));
#14=PRODUCT_DEFINITION_SHAPE('NONE','NONE',#27);
#15=MANIFOLD_SURFACE_SHAPE_REPRESENTATION('1',(#25,#28),#6);
#18=UNCERTAINTY_MEASURE_WITH_UNIT(LENGTH_MEASURE(1.0E-06),#20,'','');
#20= (CONVERSION_BASED_UNIT('MILLIMETRE',#31)LENGTH_UNIT()NAMED_UNIT(#34));
#21= (NAMED_UNIT(#36)PLANE_ANGLE_UNIT()SI_UNIT($,.RADIAN.));
#22= (NAMED_UNIT(#36)SOLID_ANGLE_UNIT()SI_UNIT($,.STERADIAN.));
#24=PRESENTATION_STYLE_ASSIGNMENT((#42));
#25=SHELL_BASED_SURFACE_MODEL('1',(#43));
#26=PRODUCT('1','','PART--DESC',(#44));
#27=PRODUCT_DEFINITION('','NONE',#45,#2);
#28=AXIS2_PLACEMENT_3D('',#46,#47,#48);
#31=LENGTH_MEASURE_WITH_UNIT(LENGTH_MEASURE(1.0),#49);
#34=DIMENSIONAL_EXPONENTS(1.0,0.0,0.0,0.0,0.0,0.0,0.0);
#36=DIMENSIONAL_EXPONENTS(0.0,0.0,0.0,0.0,0.0,0.0,0.0);
#42=SURFACE_STYLE_USAGE(.BOTH.,#50);
#43=CLOSED_SHELL('',(#51,#52,#53,#54,#55,#56,#57,#58,#59,#60,#61,#62,#63,#64,#65,#66,#67,#68,#69,#70,#71));
#44=PRODUCT_CONTEXT('',#11,'mechanical');
#45=PRODUCT_DEFINITION_FORMATION_WITH_SPECIFIED_SOURCE(' ','NONE',#26,.NOT_KNOWN.);
#46=CARTESIAN_POINT('',(0.0,0.0,0.0));
#47=DIRECTION('',(0.0,0.0,1.0));
#48=DIRECTION('',(1.0,0.0,0.0));
#49= (NAMED_UNIT(#34)LENGTH_UNIT()SI_UNIT(.MILLI.,.METRE.));
#50=SURFACE_SIDE_STYLE('',(#73));
#51=FACE_SURFACE('',(#74),#75,.T.);
#52=FACE_SURFACE('',(#76),#77,.T.);
#53=FACE_SURFACE('',(#78),#79,.T.);
#54=FACE_SURFACE('',(#80),#81,.F.);
#55=FACE_SURFACE('',(#82),#83,.F.);
#56=FACE_SURFACE('',(#84),#85,.T.);
#57=FACE_SURFACE('',(#86),#87,.T.);
#58=FACE_SURFACE('',(#88),#89,.F.);
#59=FACE_SURFACE('',(#90),#91,.T.);
#60=FACE_SURFACE('',(#92),#93,.T.);
#61=FACE_SURFACE('',(#94),#95,.T.);
#62=FACE_SURFACE('',(#96),#97,.T.);
#63=FACE_SURFACE('',(#98),#99,.T.);
#64=FACE_SURFACE('',(#100),#101,.T.);
#65=FACE_SURFACE('',(#102),#103,.T.);
#66=FACE_SURFACE('',(#104),#105,.F.);
#67=FACE_SURFACE('',(#106),#107,.T.);
#68=FACE_SURFACE('',(#108),#109,.T.);
#69=FACE_SURFACE('',(#110),#111,.T.);
#70=FACE_SURFACE('',(#112),#113,.T.);
#71=FACE_SURFACE('',(#114),#115,.T.);
#73=SURFACE_STYLE_FILL_AREA(#116);
#74=FACE_BOUND('',#117,.T.);
#75=TOROIDAL_SURFACE('',#118,46.0,4.0);
#76=FACE_BOUND('',#119,.T.);
#77=TOROIDAL_SURFACE('',#120,46.0,4.0);
#78=FACE_BOUND('',#121,.T.);
#79=CYLINDRICAL_SURFACE('',#122,50.0);
#80=FACE_BOUND('',#123,.T.);
#81=PLANE('',#124);
#82=FACE_BOUND('',#125,.T.);
#83=PLANE('',#126);
#84=FACE_BOUND('',#127,.T.);
#85=CYLINDRICAL_SURFACE('',#128,50.0);
#86=FACE_BOUND('',#129,.T.);
#87=PLANE('',#130);
#88=FACE_BOUND('',#131,.T.);
#89=PLANE('',#132);
#90=FACE_BOUND('',#133,.T.);
#91=TOROIDAL_SURFACE('',#134,46.0,4.0);
#92=FACE_BOUND('',#135,.T.);
#93=TOROIDAL_SURFACE('',#136,46.0,4.0);
#94=FACE_BOUND('',#137,.T.);
#95=CYLINDRICAL_SURFACE('',#138,4.0);
#96=FACE_BOUND('',#139,.T.);
#97=SPHERICAL_SURFACE('',#140,4.0);
#98=FACE_BOUND('',#141,.T.);
#99=CYLINDRICAL_SURFACE('',#142,4.0);
#100=FACE_BOUND('',#143,.T.);
#101=CYLINDRICAL_SURFACE('',#144,4.0);
#102=FACE_BOUND('',#145,.T.);
#103=SPHERICAL_SURFACE('',#146,4.0);
#104=FACE_BOUND('',#147,.T.);
#105=PLANE('',#148);
#106=FACE_BOUND('',#149,.T.);
#107=CYLINDRICAL_SURFACE('',#150,4.0);
#108=FACE_BOUND('',#151,.T.);
#109=SPHERICAL_SURFACE('',#152,4.0);
#110=FACE_BOUND('',#153,.T.);
#111=CYLINDRICAL_SURFACE('',#154,4.0);
#112=FACE_BOUND('',#155,.T.);
#113=CYLINDRICAL_SURFACE('',#156,4.0);
#114=FACE_BOUND('',#157,.T.);
#115=SPHERICAL_SURFACE('',#158,4.0);
#116=FILL_AREA_STYLE('',(#159));
#117=EDGE_LOOP('',(#160,#161,#162,#163));
#118=AXIS2_PLACEMENT_3D('',#164,#165,#166);
#119=EDGE_LOOP('',(#167,#168,#169,#170));
#120=AXIS2_PLACEMENT_3D('',#171,#172,#173);
#121=EDGE_LOOP('',(#174,#175,#176,#177));
#122=AXIS2_PLACEMENT_3D('',#178,#179,#180);
#123=EDGE_LOOP('',(#181,#182,#183,#184));
#124=AXIS2_PLACEMENT_3D('',#185,#186,#187);
#125=EDGE_LOOP('',(#188,#189,#190,#191,#192,#193,#194,#195));
#126=AXIS2_PLACEMENT_3D('',#196,#197,#198);
#127=EDGE_LOOP('',(#199,#200,#201,#202));
#128=AXIS2_PLACEMENT_3D('',#203,#204,#205);
#129=EDGE_LOOP('',(#206,#207,#208,#209,#210));
#130=AXIS2_PLACEMENT_3D('',#211,#212,#213);
#131=EDGE_LOOP('',(#214,#215,#216,#217,#218));
#132=AXIS2_PLACEMENT_3D('',#219,#220,#221);
#133=EDGE_LOOP('',(#222,#223,#224,#225));
#134=AXIS2_PLACEMENT_3D('',#226,#227,#228);
#135=EDGE_LOOP('',(#229,#230,#231,#232));
#136=AXIS2_PLACEMENT_3D('',#233,#234,#235);
#137=EDGE_LOOP('',(#236,#237,#238,#239));
#138=AXIS2_PLACEMENT_3D('',#240,#241,#242);
#139=EDGE_LOOP('',(#243,#244,#245));
#140=AXIS2_PLACEMENT_3D('',#246,#247,#248);
#141=EDGE_LOOP('',(#249,#250,#251,#252));
#142=AXIS2_PLACEMENT_3D('',#253,#254,#255);
#143=EDGE_LOOP('',(#256,#257,#258,#259));
#144=AXIS2_PLACEMENT_3D('',#260,#261,#262);
#145=EDGE_LOOP('',(#263,#264,#265));
#146=AXIS2_PLACEMENT_3D('',#266,#267,#268);
#147=EDGE_LOOP('',(#269,#270,#271,#272));
#148=AXIS2_PLACEMENT_3D('',#273,#274,#275);
#149=EDGE_LOOP('',(#276,#277,#278,#279));
#150=AXIS2_PLACEMENT_3D('',#280,#281,#282);
#151=EDGE_LOOP('',(#283,#284,#285));
#152=AXIS2_PLACEMENT_3D('',#286,#287,#288);
#153=EDGE_LOOP('',(#289,#290,#291,#292));
#154=AXIS2_PLACEMENT_3D('',#293,#294,#295);
#155=EDGE_LOOP('',(#296,#297,#298,#299));
#156=AXIS2_PLACEMENT_3D('',#300,#301,#302);
#157=EDGE_LOOP('',(#303,#304,#305));
#158=AXIS2_PLACEMENT_3D('',#306,#307,#308);
#159=FILL_AREA_STYLE_COLOUR('',#309);
#160=ORIENTED_EDGE('',*,*,#310,.T.);
#161=ORIENTED_EDGE('',*,*,#311,.T.);
#162=ORIENTED_EDGE('',*,*,#312,.T.);
#163=ORIENTED_EDGE('',*,*,#313,.T.);
#164=CARTESIAN_POINT('',(-3.7364106986726E-13,-4.0,-50.0));
#165=DIRECTION('',(0.0,-1.0,-0.0));
#166=DIRECTION('',(-7.4728213973452E-15,0.0,-1.0));
#167=ORIENTED_EDGE('',*,*,#314,.T.);
#168=ORIENTED_EDGE('',*,*,#315,.T.);
#169=ORIENTED_EDGE('',*,*,#316,.T.);
#170=ORIENTED_EDGE('',*,*,#317,.T.);
#171=CARTESIAN_POINT('',(-3.7364106986726E-13,-6.0,-50.0));
#172=DIRECTION('',(0.0,-1.0,-0.0));
#173=DIRECTION('',(-7.4728213973452E-15,0.0,-1.0));
#174=ORIENTED_EDGE('',*,*,#318,.T.);
#175=ORIENTED_EDGE('',*,*,#317,.F.);
#176=ORIENTED_EDGE('',*,*,#319,.T.);
#177=ORIENTED_EDGE('',*,*,#311,.F.);
#178=CARTESIAN_POINT('',(-3.7364106986726E-13,-10.0,-50.0));
#179=DIRECTION('',(0.0,-1.0,0.0));
#180=DIRECTION('',(7.47282139734521E-15,0.0,1.0));
#181=ORIENTED_EDGE('',*,*,#320,.T.);
#182=ORIENTED_EDGE('',*,*,#321,.T.);
#183=ORIENTED_EDGE('',*,*,#322,.T.);
#184=ORIENTED_EDGE('',*,*,#323,.T.);
#185=CARTESIAN_POINT('',(20.0,-10.0,-4.17424305044175));
#186=DIRECTION('',(-1.0,0.0,7.70996234687895E-15));
#187=DIRECTION('',(0.0,1.0,0.0));
#188=ORIENTED_EDGE('',*,*,#324,.T.);
#189=ORIENTED_EDGE('',*,*,#325,.T.);
#190=ORIENTED_EDGE('',*,*,#326,.T.);
#191=ORIENTED_EDGE('',*,*,#327,.T.);
#192=ORIENTED_EDGE('',*,*,#328,.T.);
#193=ORIENTED_EDGE('',*,*,#329,.T.);
#194=ORIENTED_EDGE('',*,*,#320,.F.);
#195=ORIENTED_EDGE('',*,*,#330,.T.);
#196=CARTESIAN_POINT('',(19.9999999999998,-10.0,-33.434874407237));
#197=DIRECTION('',(7.47282139734521E-15,0.0,1.0));
#198=DIRECTION('',(1.0,0.0,-7.47282139734521E-15));
#199=ORIENTED_EDGE('',*,*,#318,.F.);
#200=ORIENTED_EDGE('',*,*,#331,.T.);
#201=ORIENTED_EDGE('',*,*,#332,.T.);
#202=ORIENTED_EDGE('',*,*,#333,.T.);
#203=CARTESIAN_POINT('',(-3.7364106986726E-13,-10.0,-50.0));
#204=DIRECTION('',(0.0,-1.0,0.0));
#205=DIRECTION('',(7.47282139734521E-15,0.0,1.0));
#206=ORIENTED_EDGE('',*,*,#315,.F.);
#207=ORIENTED_EDGE('',*,*,#334,.T.);
#208=ORIENTED_EDGE('',*,*,#335,.T.);
#209=ORIENTED_EDGE('',*,*,#324,.F.);
#210=ORIENTED_EDGE('',*,*,#336,.T.);
#211=CARTESIAN_POINT('',(-3.7364106986726E-13,-10.0,-50.0));
#212=DIRECTION('',(0.0,-1.0,0.0));
#213=DIRECTION('',(0.0,0.0,-1.0));
#214=ORIENTED_EDGE('',*,*,#328,.F.);
#215=ORIENTED_EDGE('',*,*,#337,.T.);
#216=ORIENTED_EDGE('',*,*,#338,.T.);
#217=ORIENTED_EDGE('',*,*,#313,.F.);
#218=ORIENTED_EDGE('',*,*,#339,.T.);
#219=CARTESIAN_POINT('',(-3.7364106986726E-13,0.0,-50.0));
#220=DIRECTION('',(0.0,-1.0,0.0));
#221=DIRECTION('',(0.0,0.0,-1.0));
#222=ORIENTED_EDGE('',*,*,#314,.F.);
#223=ORIENTED_EDGE('',*,*,#333,.F.);
#224=ORIENTED_EDGE('',*,*,#340,.T.);
#225=ORIENTED_EDGE('',*,*,#334,.F.);
#226=CARTESIAN_POINT('',(-3.7364106986726E-13,-6.0,-50.0));
#227=DIRECTION('',(0.0,-1.0,-0.0));
#228=DIRECTION('',(-7.4728213973452E-15,0.0,-1.0));
#229=ORIENTED_EDGE('',*,*,#310,.F.);
#230=ORIENTED_EDGE('',*,*,#338,.F.);
#231=ORIENTED_EDGE('',*,*,#341,.T.);
#232=ORIENTED_EDGE('',*,*,#331,.F.);
#233=CARTESIAN_POINT('',(-3.7364106986726E-13,-4.0,-50.0));
#234=DIRECTION('',(0.0,-1.0,-0.0));
#235=DIRECTION('',(-7.4728213973452E-15,0.0,-1.0));
#236=ORIENTED_EDGE('',*,*,#342,.T.);
#237=ORIENTED_EDGE('',*,*,#321,.F.);
#238=ORIENTED_EDGE('',*,*,#329,.F.);
#239=ORIENTED_EDGE('',*,*,#339,.F.);
#240=CARTESIAN_POINT('',(16.0,-4.0,-4.17424305044172));
#241=DIRECTION('',(7.80625564189563E-15,0.0,1.0));
#242=DIRECTION('',(1.0,0.0,-7.80625564189563E-15));
#243=ORIENTED_EDGE('',*,*,#312,.F.);
#244=ORIENTED_EDGE('',*,*,#343,.T.);
#245=ORIENTED_EDGE('',*,*,#342,.F.);
#246=CARTESIAN_POINT('',(16.0,-4.0,-6.87228269430448));
#247=DIRECTION('',(-1.0,0.0,7.80625564189563E-15));
#248=DIRECTION('',(-7.80625564189563E-15,0.0,-1.0));
#249=ORIENTED_EDGE('',*,*,#330,.F.);
#250=ORIENTED_EDGE('',*,*,#323,.F.);
#251=ORIENTED_EDGE('',*,*,#344,.T.);
#252=ORIENTED_EDGE('',*,*,#336,.F.);
#253=CARTESIAN_POINT('',(15.9999999999996,-6.0,-50.0000000000001));
#254=DIRECTION('',(-6.93889390390723E-15,0.0,-1.0));
#255=DIRECTION('',(-1.0,0.0,6.93889390390723E-15));
#256=ORIENTED_EDGE('',*,*,#343,.F.);
#257=ORIENTED_EDGE('',*,*,#319,.F.);
#258=ORIENTED_EDGE('',*,*,#345,.T.);
#259=ORIENTED_EDGE('',*,*,#322,.F.);
#260=CARTESIAN_POINT('',(16.0,-10.0,-6.87228269430448));
#261=DIRECTION('',(0.0,-1.0,0.0));
#262=DIRECTION('',(7.80625564189563E-15,0.0,1.0));
#263=ORIENTED_EDGE('',*,*,#344,.F.);
#264=ORIENTED_EDGE('',*,*,#345,.F.);
#265=ORIENTED_EDGE('',*,*,#316,.F.);
#266=CARTESIAN_POINT('',(16.0,-6.0,-6.87228269430448));
#267=DIRECTION('',(-1.0,0.0,7.80625564189563E-15));
#268=DIRECTION('',(-7.80625564189563E-15,0.0,-1.0));
#269=ORIENTED_EDGE('',*,*,#326,.F.);
#270=ORIENTED_EDGE('',*,*,#346,.T.);
#271=ORIENTED_EDGE('',*,*,#347,.T.);
#272=ORIENTED_EDGE('',*,*,#348,.T.);
#273=CARTESIAN_POINT('',(-20.0,-10.0,-4.1742430504416));
#274=DIRECTION('',(1.0,0.0,2.37140949533742E-16));
#275=DIRECTION('',(-2.37140949533742E-16,0.0,1.0));
#276=ORIENTED_EDGE('',*,*,#349,.T.);
#277=ORIENTED_EDGE('',*,*,#337,.F.);
#278=ORIENTED_EDGE('',*,*,#327,.F.);
#279=ORIENTED_EDGE('',*,*,#348,.F.);
#280=CARTESIAN_POINT('',(-16.0,-4.0,-4.1742430504416));
#281=DIRECTION('',(-2.16840434497101E-16,0.0,1.0));
#282=DIRECTION('',(-1.0,0.0,-2.16840434497101E-16));
#283=ORIENTED_EDGE('',*,*,#341,.F.);
#284=ORIENTED_EDGE('',*,*,#349,.F.);
#285=ORIENTED_EDGE('',*,*,#350,.T.);
#286=CARTESIAN_POINT('',(-16.0,-4.0,-6.87228269430436));
#287=DIRECTION('',(1.0,0.0,0.0));
#288=DIRECTION('',(0.0,0.0,-1.0));
#289=ORIENTED_EDGE('',*,*,#325,.F.);
#290=ORIENTED_EDGE('',*,*,#335,.F.);
#291=ORIENTED_EDGE('',*,*,#351,.T.);
#292=ORIENTED_EDGE('',*,*,#346,.F.);
#293=CARTESIAN_POINT('',(-16.0,-6.0,-50.0));
#294=DIRECTION('',(0.0,0.0,-1.0));
#295=DIRECTION('',(1.0,0.0,0.0));
#296=ORIENTED_EDGE('',*,*,#350,.F.);
#297=ORIENTED_EDGE('',*,*,#347,.F.);
#298=ORIENTED_EDGE('',*,*,#352,.T.);
#299=ORIENTED_EDGE('',*,*,#332,.F.);
#300=CARTESIAN_POINT('',(-16.0,-10.0,-6.87228269430436));
#301=DIRECTION('',(0.0,-1.0,0.0));
#302=DIRECTION('',(0.0,0.0,1.0));
#303=ORIENTED_EDGE('',*,*,#351,.F.);
#304=ORIENTED_EDGE('',*,*,#340,.F.);
#305=ORIENTED_EDGE('',*,*,#352,.F.);
#306=CARTESIAN_POINT('',(-16.0,-6.0,-6.87228269430436));
#307=DIRECTION('',(1.0,0.0,0.0));
#308=DIRECTION('',(0.0,0.0,-1.0));
#309=COLOUR_RGB('',0.61176472902298,0.658823549747467,0.670588254928589);
#310=EDGE_CURVE('',#353,#354,#355,.F.);
#311=EDGE_CURVE('',#354,#356,#357,.F.);
#312=EDGE_CURVE('',#356,#358,#359,.T.);
#313=EDGE_CURVE('',#358,#353,#360,.F.);
#314=EDGE_CURVE('',#361,#362,#363,.F.);
#315=EDGE_CURVE('',#362,#364,#365,.F.);
#316=EDGE_CURVE('',#364,#366,#367,.T.);
#317=EDGE_CURVE('',#366,#361,#368,.F.);
#318=EDGE_CURVE('',#354,#361,#369,.F.);
#319=EDGE_CURVE('',#366,#356,#370,.T.);
#320=EDGE_CURVE('',#371,#372,#373,.F.);
#321=EDGE_CURVE('',#372,#374,#375,.T.);
#322=EDGE_CURVE('',#374,#376,#377,.T.);
#323=EDGE_CURVE('',#376,#371,#378,.T.);
#324=EDGE_CURVE('',#379,#380,#381,.F.);
#325=EDGE_CURVE('',#380,#382,#383,.T.);
#326=EDGE_CURVE('',#382,#384,#385,.T.);
#327=EDGE_CURVE('',#384,#386,#387,.T.);
#328=EDGE_CURVE('',#386,#388,#389,.T.);
#329=EDGE_CURVE('',#388,#372,#390,.T.);
#330=EDGE_CURVE('',#371,#379,#391,.T.);
#331=EDGE_CURVE('',#354,#392,#393,.T.);
#332=EDGE_CURVE('',#392,#394,#395,.T.);
#333=EDGE_CURVE('',#394,#361,#396,.T.);
#334=EDGE_CURVE('',#362,#397,#398,.T.);
#335=EDGE_CURVE('',#397,#380,#399,.T.);
#336=EDGE_CURVE('',#379,#364,#400,.T.);
#337=EDGE_CURVE('',#386,#401,#402,.T.);
#338=EDGE_CURVE('',#401,#353,#403,.T.);
#339=EDGE_CURVE('',#358,#388,#404,.T.);
#340=EDGE_CURVE('',#394,#397,#405,.T.);
#341=EDGE_CURVE('',#401,#392,#406,.T.);
#342=EDGE_CURVE('',#358,#374,#407,.F.);
#343=EDGE_CURVE('',#356,#374,#408,.F.);
#344=EDGE_CURVE('',#376,#364,#409,.T.);
#345=EDGE_CURVE('',#366,#376,#410,.F.);
#346=EDGE_CURVE('',#382,#411,#412,.T.);
#347=EDGE_CURVE('',#411,#413,#414,.T.);
#348=EDGE_CURVE('',#413,#384,#415,.T.);
#349=EDGE_CURVE('',#413,#401,#416,.F.);
#350=EDGE_CURVE('',#413,#392,#417,.F.);
#351=EDGE_CURVE('',#397,#411,#418,.T.);
#352=EDGE_CURVE('',#411,#394,#419,.F.);
#353=VERTEX_POINT('',#420);
#354=VERTEX_POINT('',#421);
#355=CIRCLE('',#422,4.0);
#356=VERTEX_POINT('',#423);
#357=CIRCLE('',#424,50.0);
#358=VERTEX_POINT('',#425);
#359=CIRCLE('',#426,4.0);
#360=CIRCLE('',#427,46.0);
#361=VERTEX_POINT('',#428);
#362=VERTEX_POINT('',#429);
#363=CIRCLE('',#430,4.0);
#364=VERTEX_POINT('',#431);
#365=CIRCLE('',#432,46.0);
#366=VERTEX_POINT('',#433);
#367=CIRCLE('',#434,4.0);
#368=CIRCLE('',#435,50.0);
#369=LINE('',#436,#437);
#370=LINE('',#438,#439);
#371=VERTEX_POINT('',#440);
#372=VERTEX_POINT('',#441);
#373=LINE('',#442,#443);
#374=VERTEX_POINT('',#444);
#375=LINE('',#445,#446);
#376=VERTEX_POINT('',#447);
#377=LINE('',#448,#449);
#378=LINE('',#450,#451);
#379=VERTEX_POINT('',#452);
#380=VERTEX_POINT('',#453);
#381=LINE('',#454,#455);
#382=VERTEX_POINT('',#456);
#383=CIRCLE('',#457,4.0);
#384=VERTEX_POINT('',#458);
#385=LINE('',#459,#460);
#386=VERTEX_POINT('',#461);
#387=CIRCLE('',#462,4.0);
#388=VERTEX_POINT('',#463);
#389=LINE('',#464,#465);
#390=CIRCLE('',#466,4.0);
#391=CIRCLE('',#467,4.0);
#392=VERTEX_POINT('',#468);
#393=CIRCLE('',#469,50.0);
#394=VERTEX_POINT('',#470);
#395=LINE('',#471,#472);
#396=CIRCLE('',#473,50.0);
#397=VERTEX_POINT('',#474);
#398=CIRCLE('',#475,46.0);
#399=LINE('',#476,#477);
#400=LINE('',#478,#479);
#401=VERTEX_POINT('',#480);
#402=LINE('',#481,#482);
#403=CIRCLE('',#483,46.0);
#404=LINE('',#484,#485);
#405=CIRCLE('',#486,4.0);
#406=CIRCLE('',#487,4.0);
#407=CIRCLE('',#488,4.0);
#408=CIRCLE('',#489,4.0);
#409=CIRCLE('',#490,4.0);
#410=CIRCLE('',#491,4.0);
#411=VERTEX_POINT('',#492);
#412=LINE('',#493,#494);
#413=VERTEX_POINT('',#495);
#414=LINE('',#496,#497);
#415=LINE('',#498,#499);
#416=CIRCLE('',#500,4.0);
#417=CIRCLE('',#501,4.0);
#418=CIRCLE('',#502,4.0);
#419=CIRCLE('',#503,4.0);
#420=CARTESIAN_POINT('',(-2.42579103133029E-14,0.0,-4.0));
#421=CARTESIAN_POINT('',(6.12323399573736E-15,-4.0,0.0));
#422=AXIS2_PLACEMENT_3D('',#504,#505,#506);
#423=CARTESIAN_POINT('',(17.3913043478261,-4.0,-3.12204640685268));
#424=AXIS2_PLACEMENT_3D('',#507,#508,#509);
#425=CARTESIAN_POINT('',(16.0,0.0,-6.87228269430447));
#426=AXIS2_PLACEMENT_3D('',#510,#511,#512);
#427=AXIS2_PLACEMENT_3D('',#513,#514,#515);
#428=CARTESIAN_POINT('',(6.12323399573736E-15,-6.0,0.0));
#429=CARTESIAN_POINT('',(-2.42579103133029E-14,-10.0,-4.0));
#430=AXIS2_PLACEMENT_3D('',#516,#517,#518);
#431=CARTESIAN_POINT('',(16.0,-10.0,-6.87228269430447));
#432=AXIS2_PLACEMENT_3D('',#519,#520,#521);
#433=CARTESIAN_POINT('',(17.3913043478261,-6.0,-3.12204640685268));
#434=AXIS2_PLACEMENT_3D('',#522,#523,#524);
#435=AXIS2_PLACEMENT_3D('',#525,#526,#527);
#436=CARTESIAN_POINT('',(6.12323399573736E-15,-5.0,0.0));
#437=VECTOR('',#528,1.0);
#438=CARTESIAN_POINT('',(17.3913043478261,-10.0,-3.12204640685268));
#439=VECTOR('',#529,1.0);
#440=CARTESIAN_POINT('',(19.9999999999998,-6.0,-33.434874407237));
#441=CARTESIAN_POINT('',(19.9999999999998,-4.0,-33.434874407237));
#442=CARTESIAN_POINT('',(19.9999999999998,-10.0,-33.434874407237));
#443=VECTOR('',#530,1.0);
#444=CARTESIAN_POINT('',(20.0,-4.0,-6.87228269430451));
#445=CARTESIAN_POINT('',(20.0,-4.0,-4.17424305044175));
#446=VECTOR('',#531,1.0);
#447=CARTESIAN_POINT('',(20.0,-6.0,-6.87228269430451));
#448=CARTESIAN_POINT('',(20.0,-10.0,-6.87228269430451));
#449=VECTOR('',#532,1.0);
#450=CARTESIAN_POINT('',(19.9999999999999,-6.0,-8.57536964558419));
#451=VECTOR('',#533,1.0);
#452=CARTESIAN_POINT('',(15.9999999999998,-10.0,-33.434874407237));
#453=CARTESIAN_POINT('',(-16.0,-10.0,-33.4348744072369));
#454=CARTESIAN_POINT('',(19.9999999999998,-10.0,-33.434874407237));
#455=VECTOR('',#534,1.0);
#456=CARTESIAN_POINT('',(-20.0,-6.0,-33.4348744072369));
#457=AXIS2_PLACEMENT_3D('',#535,#536,#537);
#458=CARTESIAN_POINT('',(-20.0,-4.0,-33.4348744072369));
#459=CARTESIAN_POINT('',(-20.0,-10.0,-33.4348744072369));
#460=VECTOR('',#538,1.0);
#461=CARTESIAN_POINT('',(-16.0,0.0,-33.4348744072369));
#462=AXIS2_PLACEMENT_3D('',#539,#540,#541);
#463=CARTESIAN_POINT('',(15.9999999999998,0.0,-33.434874407237));
#464=CARTESIAN_POINT('',(19.9999999999998,0.0,-33.434874407237));
#465=VECTOR('',#542,1.0);
#466=AXIS2_PLACEMENT_3D('',#543,#544,#545);
#467=AXIS2_PLACEMENT_3D('',#546,#547,#548);
#468=CARTESIAN_POINT('',(-17.3913043478261,-4.0,-3.12204640685255));
#469=AXIS2_PLACEMENT_3D('',#549,#550,#551);
#470=CARTESIAN_POINT('',(-17.3913043478261,-6.0,-3.12204640685255));
#471=CARTESIAN_POINT('',(-17.3913043478261,-10.0,-3.12204640685255));
#472=VECTOR('',#552,1.0);
#473=AXIS2_PLACEMENT_3D('',#553,#554,#555);
#474=CARTESIAN_POINT('',(-16.0,-10.0,-6.87228269430435));
#475=AXIS2_PLACEMENT_3D('',#556,#557,#558);
#476=CARTESIAN_POINT('',(-16.0,-10.0,-33.4348744072369));
#477=VECTOR('',#559,1.0);
#478=CARTESIAN_POINT('',(15.9999999999998,-10.0,-33.434874407237));
#479=VECTOR('',#560,1.0);
#480=CARTESIAN_POINT('',(-16.0,0.0,-6.87228269430435));
#481=CARTESIAN_POINT('',(-16.0,0.0,-50.0));
#482=VECTOR('',#561,1.0);
#483=AXIS2_PLACEMENT_3D('',#562,#563,#564);
#484=CARTESIAN_POINT('',(15.9999999999996,0.0,-50.0000000000001));
#485=VECTOR('',#565,1.0);
#486=AXIS2_PLACEMENT_3D('',#566,#567,#568);
#487=AXIS2_PLACEMENT_3D('',#569,#570,#571);
#488=AXIS2_PLACEMENT_3D('',#572,#573,#574);
#489=AXIS2_PLACEMENT_3D('',#575,#576,#577);
#490=AXIS2_PLACEMENT_3D('',#578,#579,#580);
#491=AXIS2_PLACEMENT_3D('',#581,#582,#583);
#492=CARTESIAN_POINT('',(-20.0,-6.0,-6.87228269430436));
#493=CARTESIAN_POINT('',(-20.0,-6.0,-8.57536964558405));
#494=VECTOR('',#584,1.0);
#495=CARTESIAN_POINT('',(-20.0,-4.0,-6.87228269430436));
#496=CARTESIAN_POINT('',(-20.0,-10.0,-6.87228269430436));
#497=VECTOR('',#585,1.0);
#498=CARTESIAN_POINT('',(-20.0,-4.0,-4.1742430504416));
#499=VECTOR('',#586,1.0);
#500=AXIS2_PLACEMENT_3D('',#587,#588,#589);
#501=AXIS2_PLACEMENT_3D('',#590,#591,#592);
#502=AXIS2_PLACEMENT_3D('',#593,#594,#595);
#503=AXIS2_PLACEMENT_3D('',#596,#597,#598);
#504=CARTESIAN_POINT('',(-2.42579103133029E-14,-4.0,-4.0));
#505=DIRECTION('',(-1.0,-0.0,7.59528607725994E-15));
#506=DIRECTION('',(7.59528607725994E-15,0.0,1.0));
#507=CARTESIAN_POINT('',(-3.7364106986726E-13,-4.0,-50.0));
#508=DIRECTION('',(0.0,-1.0,-0.0));
#509=DIRECTION('',(-7.4728213973452E-15,0.0,-1.0));
#510=CARTESIAN_POINT('',(16.0,-4.0,-6.87228269430447));
#511=DIRECTION('',(-0.937559071862946,0.0,0.347826086956529));
#512=DIRECTION('',(0.347826086956529,0.0,0.937559071862946));
#513=CARTESIAN_POINT('',(-3.7364106986726E-13,0.0,-50.0));
#514=DIRECTION('',(0.0,1.0,0.0));
#515=DIRECTION('',(-7.47282139734521E-15,0.0,-1.0));
#516=CARTESIAN_POINT('',(-2.42579103133029E-14,-6.0,-4.0));
#517=DIRECTION('',(-1.0,-0.0,7.59528607725994E-15));
#518=DIRECTION('',(7.59528607725994E-15,0.0,1.0));
#519=CARTESIAN_POINT('',(-3.7364106986726E-13,-10.0,-50.0));
#520=DIRECTION('',(0.0,-1.0,-0.0));
#521=DIRECTION('',(-7.47282139734521E-15,0.0,-1.0));
#522=CARTESIAN_POINT('',(16.0,-6.0,-6.87228269430447));
#523=DIRECTION('',(-0.937559071862946,0.0,0.347826086956529));
#524=DIRECTION('',(0.347826086956529,0.0,0.937559071862946));
#525=CARTESIAN_POINT('',(-3.7364106986726E-13,-6.0,-50.0));
#526=DIRECTION('',(0.0,1.0,0.0));
#527=DIRECTION('',(-7.4728213973452E-15,0.0,-1.0));
#528=DIRECTION('',(-0.0,1.0,-0.0));
#529=DIRECTION('',(0.0,1.0,0.0));
#530=DIRECTION('',(0.0,-1.0,0.0));
#531=DIRECTION('',(7.70996234687895E-15,0.0,1.0));
#532=DIRECTION('',(0.0,-1.0,0.0));
#533=DIRECTION('',(-7.70996234687895E-15,0.0,-1.0));
#534=DIRECTION('',(1.0,0.0,-7.47282139734521E-15));
#535=CARTESIAN_POINT('',(-16.0,-6.0,-33.4348744072369));
#536=DIRECTION('',(0.0,0.0,-1.0));
#537=DIRECTION('',(1.0,0.0,0.0));
#538=DIRECTION('',(0.0,1.0,0.0));
#539=CARTESIAN_POINT('',(-16.0,-4.0,-33.4348744072369));
#540=DIRECTION('',(0.0,0.0,-1.0));
#541=DIRECTION('',(1.0,0.0,0.0));
#542=DIRECTION('',(1.0,0.0,-7.47282139734521E-15));
#543=CARTESIAN_POINT('',(15.9999999999998,-4.0,-33.434874407237));
#544=DIRECTION('',(-6.93889390390723E-15,0.0,-1.0));
#545=DIRECTION('',(-1.0,0.0,6.93889390390723E-15));
#546=CARTESIAN_POINT('',(15.9999999999998,-6.0,-33.434874407237));
#547=DIRECTION('',(-6.93889390390723E-15,0.0,-1.0));
#548=DIRECTION('',(-1.0,0.0,6.93889390390723E-15));
#549=CARTESIAN_POINT('',(-3.7364106986726E-13,-4.0,-50.0));
#550=DIRECTION('',(0.0,-1.0,-0.0));
#551=DIRECTION('',(-7.4728213973452E-15,0.0,-1.0));
#552=DIRECTION('',(0.0,-1.0,0.0));
#553=CARTESIAN_POINT('',(-3.7364106986726E-13,-6.0,-50.0));
#554=DIRECTION('',(0.0,1.0,0.0));
#555=DIRECTION('',(-7.4728213973452E-15,0.0,-1.0));
#556=CARTESIAN_POINT('',(-3.7364106986726E-13,-10.0,-50.0));
#557=DIRECTION('',(0.0,-1.0,-0.0));
#558=DIRECTION('',(-7.47282139734521E-15,0.0,-1.0));
#559=DIRECTION('',(2.37140949533742E-16,0.0,-1.0));
#560=DIRECTION('',(7.70996234687895E-15,0.0,1.0));
#561=DIRECTION('',(-2.37140949533742E-16,0.0,1.0));
#562=CARTESIAN_POINT('',(-3.7364106986726E-13,0.0,-50.0));
#563=DIRECTION('',(0.0,1.0,0.0));
#564=DIRECTION('',(-7.47282139734521E-15,0.0,-1.0));
#565=DIRECTION('',(-7.70996234687895E-15,0.0,-1.0));
#566=CARTESIAN_POINT('',(-16.0,-6.0,-6.87228269430435));
#567=DIRECTION('',(0.937559071862949,0.0,0.347826086956522));
#568=DIRECTION('',(-0.347826086956522,0.0,0.937559071862949));
#569=CARTESIAN_POINT('',(-16.0,-4.0,-6.87228269430435));
#570=DIRECTION('',(0.937559071862949,0.0,0.347826086956522));
#571=DIRECTION('',(-0.347826086956522,0.0,0.937559071862949));
#572=CARTESIAN_POINT('',(16.0,-4.0,-6.87228269430447));
#573=DIRECTION('',(9.10729824887824E-15,0.0,1.0));
#574=DIRECTION('',(-1.0,0.0,9.10729824887824E-15));
#575=CARTESIAN_POINT('',(16.0,-4.0,-6.87228269430446));
#576=DIRECTION('',(0.0,-1.0,-0.0));
#577=DIRECTION('',(-7.80625564189563E-15,0.0,-1.0));
#578=CARTESIAN_POINT('',(16.0,-6.0,-6.87228269430448));
#579=DIRECTION('',(-7.68966183184231E-15,-1.51788304147971E-15,-1.0));
#580=DIRECTION('',(0.0,-1.0,1.51788304147971E-15));
#581=CARTESIAN_POINT('',(16.0,-6.0,-6.87228269430447));
#582=DIRECTION('',(0.0,-1.0,-0.0));
#583=DIRECTION('',(-7.80625564189563E-15,0.0,-1.0));
#584=DIRECTION('',(-2.37140949533742E-16,0.0,1.0));
#585=DIRECTION('',(0.0,1.0,0.0));
#586=DIRECTION('',(2.37140949533742E-16,0.0,-1.0));
#587=CARTESIAN_POINT('',(-16.0,-4.0,-6.87228269430435));
#588=DIRECTION('',(-1.73472347597681E-15,0.0,1.0));
#589=DIRECTION('',(1.0,0.0,1.73472347597681E-15));
#590=CARTESIAN_POINT('',(-16.0,-4.0,-6.87228269430434));
#591=DIRECTION('',(0.0,-1.0,0.0));
#592=DIRECTION('',(0.0,0.0,-1.0));
#593=CARTESIAN_POINT('',(-16.0,-6.0,-6.87228269430436));
#594=DIRECTION('',(2.16840434497101E-16,-1.51788304147971E-15,-1.0));
#595=DIRECTION('',(0.0,-1.0,1.51788304147971E-15));
#596=CARTESIAN_POINT('',(-16.0,-6.0,-6.87228269430435));
#597=DIRECTION('',(0.0,-1.0,0.0));
#598=DIRECTION('',(0.0,0.0,-1.0));
ENDSEC;
END-ISO-10303-21;
