ISO-10303-21;
HEADER;
FILE_DESCRIPTION(('STEP AP214'),'1');
FILE_NAME('PUNCH_2.step','2026-05-08T22:48:54',(' '),(' '),'Spatial InterOp 3D',' ',' ');
FILE_SCHEMA(('AUTOMOTIVE_DESIGN { 1 0 10303 214 1 1 1 1 }'));
ENDSEC;
DATA;
#1=MECHANICAL_DESIGN_GEOMETRIC_PRESENTATION_REPRESENTATION(' ',(#10),#6);
#2=PRODUCT_DEFINITION_CONTEXT('',#11,'design');
#3=APPLICATION_PROTOCOL_DEFINITION('INTERNATIONAL STANDARD','automotive_design',1994,#11);
#4=PRODUCT_CATEGORY_RELATIONSHIP('NONE','NONE',#12,#13);
#5=SHAPE_DEFINITION_REPRESENTATION(#14,#15);
#6= (GEOMETRIC_REPRESENTATION_CONTEXT(3)GLOBAL_UNCERTAINTY_ASSIGNED_CONTEXT((#18))GLOBAL_UNIT_ASSIGNED_CONTEXT((#20,#21,#22))REPRESENTATION_CONTEXT('NONE','WORKSPACE'));
#10=STYLED_ITEM('',(#24),#25);
#11=APPLICATION_CONTEXT(' ');
#12=PRODUCT_CATEGORY('part','NONE');
#13=PRODUCT_RELATED_PRODUCT_CATEGORY('detail',' ',(#26));
#14=PRODUCT_DEFINITION_SHAPE('NONE','NONE',#27);
#15=MANIFOLD_SURFACE_SHAPE_REPRESENTATION('1',(#25,#28),#6);
#18=UNCERTAINTY_MEASURE_WITH_UNIT(LENGTH_MEASURE(1.0E-06),#20,'','');
#20= (CONVERSION_BASED_UNIT('MILLIMETRE',#31)LENGTH_UNIT()NAMED_UNIT(#34));
#21= (NAMED_UNIT(#36)PLANE_ANGLE_UNIT()SI_UNIT($,.RADIAN.));
#22= (NAMED_UNIT(#36)SOLID_ANGLE_UNIT()SI_UNIT($,.STERADIAN.));
#24=PRESENTATION_STYLE_ASSIGNMENT((#42));
#25=SHELL_BASED_SURFACE_MODEL('1',(#43));
#26=PRODUCT('1','','PART--DESC',(#44));
#27=PRODUCT_DEFINITION('','NONE',#45,#2);
#28=AXIS2_PLACEMENT_3D('',#46,#47,#48);
#31=LENGTH_MEASURE_WITH_UNIT(LENGTH_MEASURE(1.0),#49);
#34=DIMENSIONAL_EXPONENTS(1.0,0.0,0.0,0.0,0.0,0.0,0.0);
#36=DIMENSIONAL_EXPONENTS(0.0,0.0,0.0,0.0,0.0,0.0,0.0);
#42=SURFACE_STYLE_USAGE(.BOTH.,#50);
#43=CLOSED_SHELL('',(#51,#52,#53,#54,#55,#56,#57,#58,#59,#60,#61,#62,#63,#64,#65,#66,#67,#68,#69,#70,#71));
#44=PRODUCT_CONTEXT('',#11,'mechanical');
#45=PRODUCT_DEFINITION_FORMATION_WITH_SPECIFIED_SOURCE(' ','NONE',#26,.NOT_KNOWN.);
#46=CARTESIAN_POINT('',(0.0,0.0,0.0));
#47=DIRECTION('',(0.0,0.0,1.0));
#48=DIRECTION('',(1.0,0.0,0.0));
#49= (NAMED_UNIT(#34)LENGTH_UNIT()SI_UNIT(.MILLI.,.METRE.));
#50=SURFACE_SIDE_STYLE('',(#73));
#51=FACE_SURFACE('',(#74),#75,.T.);
#52=FACE_SURFACE('',(#76),#77,.T.);
#53=FACE_SURFACE('',(#78),#79,.T.);
#54=FACE_SURFACE('',(#80),#81,.F.);
#55=FACE_SURFACE('',(#82),#83,.F.);
#56=FACE_SURFACE('',(#84),#85,.T.);
#57=FACE_SURFACE('',(#86),#87,.T.);
#58=FACE_SURFACE('',(#88),#89,.T.);
#59=FACE_SURFACE('',(#90),#91,.F.);
#60=FACE_SURFACE('',(#92),#93,.T.);
#61=FACE_SURFACE('',(#94),#95,.T.);
#62=FACE_SURFACE('',(#96),#97,.T.);
#63=FACE_SURFACE('',(#98),#99,.T.);
#64=FACE_SURFACE('',(#100),#101,.T.);
#65=FACE_SURFACE('',(#102),#103,.T.);
#66=FACE_SURFACE('',(#104),#105,.F.);
#67=FACE_SURFACE('',(#106),#107,.T.);
#68=FACE_SURFACE('',(#108),#109,.T.);
#69=FACE_SURFACE('',(#110),#111,.T.);
#70=FACE_SURFACE('',(#112),#113,.T.);
#71=FACE_SURFACE('',(#114),#115,.T.);
#73=SURFACE_STYLE_FILL_AREA(#116);
#74=FACE_BOUND('',#117,.T.);
#75=TOROIDAL_SURFACE('',#118,46.0,4.0);
#76=FACE_BOUND('',#119,.T.);
#77=TOROIDAL_SURFACE('',#120,46.0,4.0);
#78=FACE_BOUND('',#121,.T.);
#79=CYLINDRICAL_SURFACE('',#122,50.0);
#80=FACE_BOUND('',#123,.T.);
#81=PLANE('',#124);
#82=FACE_BOUND('',#125,.T.);
#83=PLANE('',#126);
#84=FACE_BOUND('',#127,.T.);
#85=CYLINDRICAL_SURFACE('',#128,50.0);
#86=FACE_BOUND('',#129,.T.);
#87=CYLINDRICAL_SURFACE('',#130,13.0);
#88=FACE_BOUND('',#131,.T.);
#89=PLANE('',#132);
#90=FACE_BOUND('',#133,.T.);
#91=PLANE('',#134);
#92=FACE_BOUND('',#135,.T.);
#93=CYLINDRICAL_SURFACE('',#136,4.0);
#94=FACE_BOUND('',#137,.T.);
#95=TOROIDAL_SURFACE('',#138,9.0,4.0);
#96=FACE_BOUND('',#139,.T.);
#97=TOROIDAL_SURFACE('',#140,46.0,4.0);
#98=FACE_BOUND('',#141,.T.);
#99=CYLINDRICAL_SURFACE('',#142,4.0);
#100=FACE_BOUND('',#143,.T.);
#101=TOROIDAL_SURFACE('',#144,9.0,4.0);
#102=FACE_BOUND('',#145,.T.);
#103=TOROIDAL_SURFACE('',#146,46.0,4.0);
#104=FACE_BOUND('',#147,.T.);
#105=PLANE('',#148);
#106=FACE_BOUND('',#149,.T.);
#107=CYLINDRICAL_SURFACE('',#150,13.0);
#108=FACE_BOUND('',#151,.T.);
#109=CYLINDRICAL_SURFACE('',#152,4.0);
#110=FACE_BOUND('',#153,.T.);
#111=TOROIDAL_SURFACE('',#154,9.0,4.0);
#112=FACE_BOUND('',#155,.T.);
#113=CYLINDRICAL_SURFACE('',#156,4.0);
#114=FACE_BOUND('',#157,.T.);
#115=TOROIDAL_SURFACE('',#158,9.0,4.0);
#116=FILL_AREA_STYLE('',(#159));
#117=EDGE_LOOP('',(#160,#161,#162,#163));
#118=AXIS2_PLACEMENT_3D('',#164,#165,#166);
#119=EDGE_LOOP('',(#167,#168,#169,#170));
#120=AXIS2_PLACEMENT_3D('',#171,#172,#173);
#121=EDGE_LOOP('',(#174,#175,#176,#177));
#122=AXIS2_PLACEMENT_3D('',#178,#179,#180);
#123=EDGE_LOOP('',(#181,#182,#183,#184));
#124=AXIS2_PLACEMENT_3D('',#185,#186,#187);
#125=EDGE_LOOP('',(#188,#189,#190,#191,#192,#193,#194,#195));
#126=AXIS2_PLACEMENT_3D('',#196,#197,#198);
#127=EDGE_LOOP('',(#199,#200,#201,#202));
#128=AXIS2_PLACEMENT_3D('',#203,#204,#205);
#129=EDGE_LOOP('',(#206,#207,#208,#209));
#130=AXIS2_PLACEMENT_3D('',#210,#211,#212);
#131=EDGE_LOOP('',(#213,#214,#215,#216,#217,#218,#219));
#132=AXIS2_PLACEMENT_3D('',#220,#221,#222);
#133=EDGE_LOOP('',(#223,#224,#225,#226,#227,#228,#229));
#134=AXIS2_PLACEMENT_3D('',#230,#231,#232);
#135=EDGE_LOOP('',(#233,#234,#235,#236));
#136=AXIS2_PLACEMENT_3D('',#237,#238,#239);
#137=EDGE_LOOP('',(#240,#241,#242,#243));
#138=AXIS2_PLACEMENT_3D('',#244,#245,#246);
#139=EDGE_LOOP('',(#247,#248,#249,#250));
#140=AXIS2_PLACEMENT_3D('',#251,#252,#253);
#141=EDGE_LOOP('',(#254,#255,#256,#257));
#142=AXIS2_PLACEMENT_3D('',#258,#259,#260);
#143=EDGE_LOOP('',(#261,#262,#263,#264));
#144=AXIS2_PLACEMENT_3D('',#265,#266,#267);
#145=EDGE_LOOP('',(#268,#269,#270,#271));
#146=AXIS2_PLACEMENT_3D('',#272,#273,#274);
#147=EDGE_LOOP('',(#275,#276,#277,#278));
#148=AXIS2_PLACEMENT_3D('',#279,#280,#281);
#149=EDGE_LOOP('',(#282,#283,#284,#285));
#150=AXIS2_PLACEMENT_3D('',#286,#287,#288);
#151=EDGE_LOOP('',(#289,#290,#291,#292));
#152=AXIS2_PLACEMENT_3D('',#293,#294,#295);
#153=EDGE_LOOP('',(#296,#297,#298,#299));
#154=AXIS2_PLACEMENT_3D('',#300,#301,#302);
#155=EDGE_LOOP('',(#303,#304,#305,#306));
#156=AXIS2_PLACEMENT_3D('',#307,#308,#309);
#157=EDGE_LOOP('',(#310,#311,#312,#313));
#158=AXIS2_PLACEMENT_3D('',#314,#315,#316);
#159=FILL_AREA_STYLE_COLOUR('',#317);
#160=ORIENTED_EDGE('',*,*,#318,.T.);
#161=ORIENTED_EDGE('',*,*,#319,.T.);
#162=ORIENTED_EDGE('',*,*,#320,.T.);
#163=ORIENTED_EDGE('',*,*,#321,.T.);
#164=CARTESIAN_POINT('',(-3.7364106986726E-13,-4.0,-50.0));
#165=DIRECTION('',(0.0,-1.0,-0.0));
#166=DIRECTION('',(-7.4728213973452E-15,0.0,-1.0));
#167=ORIENTED_EDGE('',*,*,#322,.T.);
#168=ORIENTED_EDGE('',*,*,#323,.T.);
#169=ORIENTED_EDGE('',*,*,#324,.T.);
#170=ORIENTED_EDGE('',*,*,#325,.T.);
#171=CARTESIAN_POINT('',(-3.7364106986726E-13,-6.0,-50.0));
#172=DIRECTION('',(0.0,-1.0,-0.0));
#173=DIRECTION('',(-7.4728213973452E-15,0.0,-1.0));
#174=ORIENTED_EDGE('',*,*,#326,.T.);
#175=ORIENTED_EDGE('',*,*,#325,.F.);
#176=ORIENTED_EDGE('',*,*,#327,.T.);
#177=ORIENTED_EDGE('',*,*,#319,.F.);
#178=CARTESIAN_POINT('',(-3.7364106986726E-13,-10.0,-50.0));
#179=DIRECTION('',(0.0,-1.0,0.0));
#180=DIRECTION('',(7.47282139734521E-15,0.0,1.0));
#181=ORIENTED_EDGE('',*,*,#328,.T.);
#182=ORIENTED_EDGE('',*,*,#329,.T.);
#183=ORIENTED_EDGE('',*,*,#330,.T.);
#184=ORIENTED_EDGE('',*,*,#331,.T.);
#185=CARTESIAN_POINT('',(19.9999999999999,-10.0,-13.6681957508303));
#186=DIRECTION('',(-1.0,0.0,7.47282139734521E-15));
#187=DIRECTION('',(0.0,1.0,0.0));
#188=ORIENTED_EDGE('',*,*,#330,.F.);
#189=ORIENTED_EDGE('',*,*,#332,.T.);
#190=ORIENTED_EDGE('',*,*,#333,.T.);
#191=ORIENTED_EDGE('',*,*,#334,.T.);
#192=ORIENTED_EDGE('',*,*,#335,.T.);
#193=ORIENTED_EDGE('',*,*,#336,.T.);
#194=ORIENTED_EDGE('',*,*,#337,.T.);
#195=ORIENTED_EDGE('',*,*,#338,.T.);
#196=CARTESIAN_POINT('',(19.9999999999998,-10.0,-33.434874407237));
#197=DIRECTION('',(7.47282139734521E-15,0.0,1.0));
#198=DIRECTION('',(1.0,0.0,-7.47282139734521E-15));
#199=ORIENTED_EDGE('',*,*,#326,.F.);
#200=ORIENTED_EDGE('',*,*,#339,.T.);
#201=ORIENTED_EDGE('',*,*,#340,.T.);
#202=ORIENTED_EDGE('',*,*,#341,.T.);
#203=CARTESIAN_POINT('',(-3.7364106986726E-13,-10.0,-50.0));
#204=DIRECTION('',(0.0,-1.0,0.0));
#205=DIRECTION('',(7.47282139734521E-15,0.0,1.0));
#206=ORIENTED_EDGE('',*,*,#327,.F.);
#207=ORIENTED_EDGE('',*,*,#342,.T.);
#208=ORIENTED_EDGE('',*,*,#328,.F.);
#209=ORIENTED_EDGE('',*,*,#343,.T.);
#210=CARTESIAN_POINT('',(6.99999999999989,-10.0,-13.6681957508302));
#211=DIRECTION('',(0.0,-1.0,0.0));
#212=DIRECTION('',(7.47265497343856E-15,0.0,1.0));
#213=ORIENTED_EDGE('',*,*,#323,.F.);
#214=ORIENTED_EDGE('',*,*,#344,.T.);
#215=ORIENTED_EDGE('',*,*,#345,.T.);
#216=ORIENTED_EDGE('',*,*,#346,.T.);
#217=ORIENTED_EDGE('',*,*,#333,.F.);
#218=ORIENTED_EDGE('',*,*,#347,.T.);
#219=ORIENTED_EDGE('',*,*,#348,.T.);
#220=CARTESIAN_POINT('',(-3.7364106986726E-13,-10.0,-50.0));
#221=DIRECTION('',(0.0,-1.0,0.0));
#222=DIRECTION('',(0.0,0.0,-1.0));
#223=ORIENTED_EDGE('',*,*,#349,.T.);
#224=ORIENTED_EDGE('',*,*,#350,.T.);
#225=ORIENTED_EDGE('',*,*,#337,.F.);
#226=ORIENTED_EDGE('',*,*,#351,.T.);
#227=ORIENTED_EDGE('',*,*,#352,.T.);
#228=ORIENTED_EDGE('',*,*,#353,.T.);
#229=ORIENTED_EDGE('',*,*,#321,.F.);
#230=CARTESIAN_POINT('',(-3.7364106986726E-13,0.0,-50.0));
#231=DIRECTION('',(0.0,-1.0,0.0));
#232=DIRECTION('',(0.0,0.0,-1.0));
#233=ORIENTED_EDGE('',*,*,#332,.F.);
#234=ORIENTED_EDGE('',*,*,#329,.F.);
#235=ORIENTED_EDGE('',*,*,#354,.T.);
#236=ORIENTED_EDGE('',*,*,#347,.F.);
#237=CARTESIAN_POINT('',(15.9999999999996,-6.0,-50.0000000000001));
#238=DIRECTION('',(-6.93889390390723E-15,0.0,-1.0));
#239=DIRECTION('',(-1.0,0.0,6.93889390390723E-15));
#240=ORIENTED_EDGE('',*,*,#354,.F.);
#241=ORIENTED_EDGE('',*,*,#342,.F.);
#242=ORIENTED_EDGE('',*,*,#324,.F.);
#243=ORIENTED_EDGE('',*,*,#348,.F.);
#244=CARTESIAN_POINT('',(6.99999999999989,-6.0,-13.6681957508302));
#245=DIRECTION('',(0.0,-1.0,-0.0));
#246=DIRECTION('',(-7.47265497343856E-15,0.0,-1.0));
#247=ORIENTED_EDGE('',*,*,#322,.F.);
#248=ORIENTED_EDGE('',*,*,#341,.F.);
#249=ORIENTED_EDGE('',*,*,#355,.T.);
#250=ORIENTED_EDGE('',*,*,#344,.F.);
#251=CARTESIAN_POINT('',(-3.7364106986726E-13,-6.0,-50.0));
#252=DIRECTION('',(0.0,-1.0,-0.0));
#253=DIRECTION('',(-7.4728213973452E-15,0.0,-1.0));
#254=ORIENTED_EDGE('',*,*,#338,.F.);
#255=ORIENTED_EDGE('',*,*,#350,.F.);
#256=ORIENTED_EDGE('',*,*,#356,.T.);
#257=ORIENTED_EDGE('',*,*,#331,.F.);
#258=CARTESIAN_POINT('',(15.9999999999999,-4.0,-13.6681957508302));
#259=DIRECTION('',(7.37257477290143E-15,0.0,1.0));
#260=DIRECTION('',(1.0,0.0,-7.37257477290143E-15));
#261=ORIENTED_EDGE('',*,*,#356,.F.);
#262=ORIENTED_EDGE('',*,*,#349,.F.);
#263=ORIENTED_EDGE('',*,*,#320,.F.);
#264=ORIENTED_EDGE('',*,*,#343,.F.);
#265=CARTESIAN_POINT('',(6.99999999999989,-4.0,-13.6681957508302));
#266=DIRECTION('',(0.0,-1.0,-0.0));
#267=DIRECTION('',(-7.47265497343856E-15,0.0,-1.0));
#268=ORIENTED_EDGE('',*,*,#318,.F.);
#269=ORIENTED_EDGE('',*,*,#353,.F.);
#270=ORIENTED_EDGE('',*,*,#357,.T.);
#271=ORIENTED_EDGE('',*,*,#339,.F.);
#272=CARTESIAN_POINT('',(-3.7364106986726E-13,-4.0,-50.0));
#273=DIRECTION('',(0.0,-1.0,-0.0));
#274=DIRECTION('',(-7.4728213973452E-15,0.0,-1.0));
#275=ORIENTED_EDGE('',*,*,#358,.T.);
#276=ORIENTED_EDGE('',*,*,#359,.T.);
#277=ORIENTED_EDGE('',*,*,#335,.F.);
#278=ORIENTED_EDGE('',*,*,#360,.T.);
#279=CARTESIAN_POINT('',(-20.0,-10.0,-13.6681957508301));
#280=DIRECTION('',(1.0,0.0,0.0));
#281=DIRECTION('',(0.0,1.0,0.0));
#282=ORIENTED_EDGE('',*,*,#340,.F.);
#283=ORIENTED_EDGE('',*,*,#361,.T.);
#284=ORIENTED_EDGE('',*,*,#358,.F.);
#285=ORIENTED_EDGE('',*,*,#362,.T.);
#286=CARTESIAN_POINT('',(-7.0,-10.0,-13.6681957508301));
#287=DIRECTION('',(0.0,-1.0,0.0));
#288=DIRECTION('',(0.0,0.0,1.0));
#289=ORIENTED_EDGE('',*,*,#334,.F.);
#290=ORIENTED_EDGE('',*,*,#346,.F.);
#291=ORIENTED_EDGE('',*,*,#363,.T.);
#292=ORIENTED_EDGE('',*,*,#360,.F.);
#293=CARTESIAN_POINT('',(-16.0,-6.0,-50.0));
#294=DIRECTION('',(0.0,0.0,-1.0));
#295=DIRECTION('',(1.0,0.0,0.0));
#296=ORIENTED_EDGE('',*,*,#363,.F.);
#297=ORIENTED_EDGE('',*,*,#345,.F.);
#298=ORIENTED_EDGE('',*,*,#355,.F.);
#299=ORIENTED_EDGE('',*,*,#362,.F.);
#300=CARTESIAN_POINT('',(-7.0,-6.0,-13.6681957508301));
#301=DIRECTION('',(0.0,-1.0,0.0));
#302=DIRECTION('',(0.0,0.0,-1.0));
#303=ORIENTED_EDGE('',*,*,#336,.F.);
#304=ORIENTED_EDGE('',*,*,#359,.F.);
#305=ORIENTED_EDGE('',*,*,#364,.T.);
#306=ORIENTED_EDGE('',*,*,#351,.F.);
#307=CARTESIAN_POINT('',(-16.0,-4.0,-13.6681957508301));
#308=DIRECTION('',(0.0,0.0,1.0));
#309=DIRECTION('',(-1.0,0.0,0.0));
#310=ORIENTED_EDGE('',*,*,#364,.F.);
#311=ORIENTED_EDGE('',*,*,#361,.F.);
#312=ORIENTED_EDGE('',*,*,#357,.F.);
#313=ORIENTED_EDGE('',*,*,#352,.F.);
#314=CARTESIAN_POINT('',(-7.0,-4.0,-13.6681957508301));
#315=DIRECTION('',(0.0,-1.0,0.0));
#316=DIRECTION('',(0.0,0.0,-1.0));
#317=COLOUR_RGB('',0.596078455448151,0.666666686534882,0.686274528503418);
#318=EDGE_CURVE('',#365,#366,#367,.F.);
#319=EDGE_CURVE('',#366,#368,#369,.F.);
#320=EDGE_CURVE('',#368,#370,#371,.T.);
#321=EDGE_CURVE('',#370,#365,#372,.F.);
#322=EDGE_CURVE('',#373,#374,#375,.F.);
#323=EDGE_CURVE('',#374,#376,#377,.F.);
#324=EDGE_CURVE('',#376,#378,#379,.T.);
#325=EDGE_CURVE('',#378,#373,#380,.F.);
#326=EDGE_CURVE('',#366,#373,#381,.F.);
#327=EDGE_CURVE('',#378,#368,#382,.F.);
#328=EDGE_CURVE('',#383,#384,#385,.T.);
#329=EDGE_CURVE('',#384,#386,#387,.T.);
#330=EDGE_CURVE('',#386,#388,#389,.F.);
#331=EDGE_CURVE('',#388,#383,#390,.T.);
#332=EDGE_CURVE('',#386,#391,#392,.T.);
#333=EDGE_CURVE('',#391,#393,#394,.F.);
#334=EDGE_CURVE('',#393,#395,#396,.T.);
#335=EDGE_CURVE('',#395,#397,#398,.T.);
#336=EDGE_CURVE('',#397,#399,#400,.T.);
#337=EDGE_CURVE('',#399,#401,#402,.T.);
#338=EDGE_CURVE('',#401,#388,#403,.T.);
#339=EDGE_CURVE('',#366,#404,#405,.T.);
#340=EDGE_CURVE('',#404,#406,#407,.F.);
#341=EDGE_CURVE('',#406,#373,#408,.T.);
#342=EDGE_CURVE('',#378,#384,#409,.T.);
#343=EDGE_CURVE('',#383,#368,#410,.T.);
#344=EDGE_CURVE('',#374,#411,#412,.T.);
#345=EDGE_CURVE('',#411,#413,#414,.T.);
#346=EDGE_CURVE('',#413,#393,#415,.T.);
#347=EDGE_CURVE('',#391,#416,#417,.T.);
#348=EDGE_CURVE('',#416,#376,#418,.T.);
#349=EDGE_CURVE('',#370,#419,#420,.T.);
#350=EDGE_CURVE('',#419,#401,#421,.T.);
#351=EDGE_CURVE('',#399,#422,#423,.T.);
#352=EDGE_CURVE('',#422,#424,#425,.T.);
#353=EDGE_CURVE('',#424,#365,#426,.T.);
#354=EDGE_CURVE('',#384,#416,#427,.T.);
#355=EDGE_CURVE('',#406,#411,#428,.T.);
#356=EDGE_CURVE('',#419,#383,#429,.T.);
#357=EDGE_CURVE('',#424,#404,#430,.T.);
#358=EDGE_CURVE('',#431,#432,#433,.T.);
#359=EDGE_CURVE('',#432,#397,#434,.T.);
#360=EDGE_CURVE('',#395,#431,#435,.T.);
#361=EDGE_CURVE('',#404,#432,#436,.T.);
#362=EDGE_CURVE('',#431,#406,#437,.T.);
#363=EDGE_CURVE('',#413,#431,#438,.T.);
#364=EDGE_CURVE('',#432,#422,#439,.T.);
#365=VERTEX_POINT('',#440);
#366=VERTEX_POINT('',#441);
#367=CIRCLE('',#442,4.0);
#368=VERTEX_POINT('',#443);
#369=CIRCLE('',#444,50.0);
#370=VERTEX_POINT('',#445);
#371=CIRCLE('',#446,4.0);
#372=CIRCLE('',#447,46.0);
#373=VERTEX_POINT('',#448);
#374=VERTEX_POINT('',#449);
#375=CIRCLE('',#450,4.0);
#376=VERTEX_POINT('',#451);
#377=CIRCLE('',#452,46.0);
#378=VERTEX_POINT('',#453);
#379=CIRCLE('',#454,4.0);
#380=CIRCLE('',#455,50.0);
#381=LINE('',#456,#457);
#382=LINE('',#458,#459);
#383=VERTEX_POINT('',#460);
#384=VERTEX_POINT('',#461);
#385=LINE('',#462,#463);
#386=VERTEX_POINT('',#464);
#387=LINE('',#465,#466);
#388=VERTEX_POINT('',#467);
#389=LINE('',#468,#469);
#390=LINE('',#470,#471);
#391=VERTEX_POINT('',#472);
#392=CIRCLE('',#473,4.0);
#393=VERTEX_POINT('',#474);
#394=LINE('',#475,#476);
#395=VERTEX_POINT('',#477);
#396=CIRCLE('',#478,4.0);
#397=VERTEX_POINT('',#479);
#398=LINE('',#480,#481);
#399=VERTEX_POINT('',#482);
#400=CIRCLE('',#483,4.0);
#401=VERTEX_POINT('',#484);
#402=LINE('',#485,#486);
#403=CIRCLE('',#487,4.0);
#404=VERTEX_POINT('',#488);
#405=CIRCLE('',#489,50.0);
#406=VERTEX_POINT('',#490);
#407=LINE('',#491,#492);
#408=CIRCLE('',#493,50.0);
#409=CIRCLE('',#494,13.0);
#410=CIRCLE('',#495,13.0);
#411=VERTEX_POINT('',#496);
#412=CIRCLE('',#497,46.0);
#413=VERTEX_POINT('',#498);
#414=CIRCLE('',#499,9.0);
#415=LINE('',#500,#501);
#416=VERTEX_POINT('',#502);
#417=LINE('',#503,#504);
#418=CIRCLE('',#505,9.0);
#419=VERTEX_POINT('',#506);
#420=CIRCLE('',#507,9.0);
#421=LINE('',#508,#509);
#422=VERTEX_POINT('',#510);
#423=LINE('',#511,#512);
#424=VERTEX_POINT('',#513);
#425=CIRCLE('',#514,9.0);
#426=CIRCLE('',#515,46.0);
#427=CIRCLE('',#516,4.0);
#428=CIRCLE('',#517,4.0);
#429=CIRCLE('',#518,4.0);
#430=CIRCLE('',#519,4.0);
#431=VERTEX_POINT('',#520);
#432=VERTEX_POINT('',#521);
#433=LINE('',#522,#523);
#434=LINE('',#524,#525);
#435=LINE('',#526,#527);
#436=CIRCLE('',#528,13.0);
#437=CIRCLE('',#529,13.0);
#438=CIRCLE('',#530,4.0);
#439=CIRCLE('',#531,4.0);
#440=CARTESIAN_POINT('',(-2.4257910313303E-14,0.0,-4.0));
#441=CARTESIAN_POINT('',(6.12323399573736E-15,-4.0,0.0));
#442=AXIS2_PLACEMENT_3D('',#532,#533,#534);
#443=CARTESIAN_POINT('',(9.45945945945946,-4.0,-0.902967230851552));
#444=AXIS2_PLACEMENT_3D('',#535,#536,#537);
#445=CARTESIAN_POINT('',(8.70270270270268,0.0,-4.83072985238344));
#446=AXIS2_PLACEMENT_3D('',#538,#539,#540);
#447=AXIS2_PLACEMENT_3D('',#541,#542,#543);
#448=CARTESIAN_POINT('',(6.12323399573736E-15,-6.0,0.0));
#449=CARTESIAN_POINT('',(-2.4257910313303E-14,-10.0,-4.0));
#450=AXIS2_PLACEMENT_3D('',#544,#545,#546);
#451=CARTESIAN_POINT('',(8.70270270270268,-10.0,-4.83072985238344));
#452=AXIS2_PLACEMENT_3D('',#547,#548,#549);
#453=CARTESIAN_POINT('',(9.45945945945946,-6.0,-0.902967230851552));
#454=AXIS2_PLACEMENT_3D('',#550,#551,#552);
#455=AXIS2_PLACEMENT_3D('',#553,#554,#555);
#456=CARTESIAN_POINT('',(6.12323399573736E-15,-5.0,0.0));
#457=VECTOR('',#556,1.0);
#458=CARTESIAN_POINT('',(9.45945945945946,-10.0,-0.902967230851552));
#459=VECTOR('',#557,1.0);
#460=CARTESIAN_POINT('',(19.9999999999999,-4.0,-13.6681957508303));
#461=CARTESIAN_POINT('',(19.9999999999999,-6.0,-13.6681957508303));
#462=CARTESIAN_POINT('',(19.9999999999999,-10.0,-13.6681957508303));
#463=VECTOR('',#558,1.0);
#464=CARTESIAN_POINT('',(19.9999999999998,-6.0,-33.434874407237));
#465=CARTESIAN_POINT('',(19.9999999999999,-6.0,-13.6681957508303));
#466=VECTOR('',#559,1.0);
#467=CARTESIAN_POINT('',(19.9999999999998,-4.0,-33.434874407237));
#468=CARTESIAN_POINT('',(19.9999999999998,-10.0,-33.434874407237));
#469=VECTOR('',#560,1.0);
#470=CARTESIAN_POINT('',(19.9999999999999,-4.0,-13.6681957508303));
#471=VECTOR('',#561,1.0);
#472=CARTESIAN_POINT('',(15.9999999999998,-10.0,-33.434874407237));
#473=AXIS2_PLACEMENT_3D('',#562,#563,#564);
#474=CARTESIAN_POINT('',(-16.0,-10.0,-33.4348744072369));
#475=CARTESIAN_POINT('',(19.9999999999998,-10.0,-33.434874407237));
#476=VECTOR('',#565,1.0);
#477=CARTESIAN_POINT('',(-20.0,-6.0,-33.4348744072369));
#478=AXIS2_PLACEMENT_3D('',#566,#567,#568);
#479=CARTESIAN_POINT('',(-20.0,-4.0,-33.4348744072369));
#480=CARTESIAN_POINT('',(-20.0,-10.0,-33.4348744072369));
#481=VECTOR('',#569,1.0);
#482=CARTESIAN_POINT('',(-16.0,0.0,-33.4348744072369));
#483=AXIS2_PLACEMENT_3D('',#570,#571,#572);
#484=CARTESIAN_POINT('',(15.9999999999998,0.0,-33.434874407237));
#485=CARTESIAN_POINT('',(19.9999999999998,0.0,-33.434874407237));
#486=VECTOR('',#573,1.0);
#487=AXIS2_PLACEMENT_3D('',#574,#575,#576);
#488=CARTESIAN_POINT('',(-9.45945945945947,-4.0,-0.902967230851481));
#489=AXIS2_PLACEMENT_3D('',#577,#578,#579);
#490=CARTESIAN_POINT('',(-9.45945945945947,-6.0,-0.902967230851481));
#491=CARTESIAN_POINT('',(-9.45945945945947,-10.0,-0.902967230851481));
#492=VECTOR('',#580,1.0);
#493=AXIS2_PLACEMENT_3D('',#581,#582,#583);
#494=AXIS2_PLACEMENT_3D('',#584,#585,#586);
#495=AXIS2_PLACEMENT_3D('',#587,#588,#589);
#496=CARTESIAN_POINT('',(-8.70270270270271,-10.0,-4.83072985238337));
#497=AXIS2_PLACEMENT_3D('',#590,#591,#592);
#498=CARTESIAN_POINT('',(-16.0,-10.0,-13.6681957508301));
#499=AXIS2_PLACEMENT_3D('',#593,#594,#595);
#500=CARTESIAN_POINT('',(-16.0,-10.0,-33.4348744072369));
#501=VECTOR('',#596,1.0);
#502=CARTESIAN_POINT('',(15.9999999999999,-10.0,-13.6681957508302));
#503=CARTESIAN_POINT('',(15.9999999999998,-10.0,-33.434874407237));
#504=VECTOR('',#597,1.0);
#505=AXIS2_PLACEMENT_3D('',#598,#599,#600);
#506=CARTESIAN_POINT('',(15.9999999999999,0.0,-13.6681957508302));
#507=AXIS2_PLACEMENT_3D('',#601,#602,#603);
#508=CARTESIAN_POINT('',(15.9999999999996,0.0,-50.0000000000001));
#509=VECTOR('',#604,1.0);
#510=CARTESIAN_POINT('',(-16.0,0.0,-13.6681957508301));
#511=CARTESIAN_POINT('',(-16.0,0.0,-50.0));
#512=VECTOR('',#605,1.0);
#513=CARTESIAN_POINT('',(-8.70270270270271,0.0,-4.83072985238337));
#514=AXIS2_PLACEMENT_3D('',#606,#607,#608);
#515=AXIS2_PLACEMENT_3D('',#609,#610,#611);
#516=AXIS2_PLACEMENT_3D('',#612,#613,#614);
#517=AXIS2_PLACEMENT_3D('',#615,#616,#617);
#518=AXIS2_PLACEMENT_3D('',#618,#619,#620);
#519=AXIS2_PLACEMENT_3D('',#621,#622,#623);
#520=CARTESIAN_POINT('',(-20.0,-6.0,-13.6681957508301));
#521=CARTESIAN_POINT('',(-20.0,-4.0,-13.6681957508301));
#522=CARTESIAN_POINT('',(-20.0,-10.0,-13.6681957508301));
#523=VECTOR('',#624,1.0);
#524=CARTESIAN_POINT('',(-20.0,-4.0,-13.6681957508301));
#525=VECTOR('',#625,1.0);
#526=CARTESIAN_POINT('',(-20.0,-6.0,-13.6681957508301));
#527=VECTOR('',#626,1.0);
#528=AXIS2_PLACEMENT_3D('',#627,#628,#629);
#529=AXIS2_PLACEMENT_3D('',#630,#631,#632);
#530=AXIS2_PLACEMENT_3D('',#633,#634,#635);
#531=AXIS2_PLACEMENT_3D('',#636,#637,#638);
#532=CARTESIAN_POINT('',(-2.42579103133029E-14,-4.0,-4.0));
#533=DIRECTION('',(-1.0,-0.0,7.59528607725994E-15));
#534=DIRECTION('',(7.59528607725994E-15,0.0,1.0));
#535=CARTESIAN_POINT('',(-3.7364106986726E-13,-4.0,-50.0));
#536=DIRECTION('',(0.0,-1.0,-0.0));
#537=DIRECTION('',(-7.4728213973452E-15,0.0,-1.0));
#538=CARTESIAN_POINT('',(8.70270270270268,-4.0,-4.83072985238344));
#539=DIRECTION('',(-0.981940655382969,0.0,0.189189189189197));
#540=DIRECTION('',(-0.189189189189197,0.0,-0.981940655382969));
#541=CARTESIAN_POINT('',(-3.7364106986726E-13,0.0,-50.0));
#542=DIRECTION('',(0.0,1.0,0.0));
#543=DIRECTION('',(-7.47282139734521E-15,0.0,-1.0));
#544=CARTESIAN_POINT('',(-2.42579103133029E-14,-6.0,-4.0));
#545=DIRECTION('',(-1.0,-0.0,7.59528607725994E-15));
#546=DIRECTION('',(7.59528607725994E-15,0.0,1.0));
#547=CARTESIAN_POINT('',(-3.7364106986726E-13,-10.0,-50.0));
#548=DIRECTION('',(0.0,-1.0,-0.0));
#549=DIRECTION('',(-7.47282139734521E-15,0.0,-1.0));
#550=CARTESIAN_POINT('',(8.70270270270267,-6.0,-4.83072985238344));
#551=DIRECTION('',(-0.981940655382969,-8.92721619440383E-16,0.189189189189197));
#552=DIRECTION('',(-0.189189189189197,0.0,-0.981940655382969));
#553=CARTESIAN_POINT('',(-3.7364106986726E-13,-6.0,-50.0));
#554=DIRECTION('',(0.0,1.0,0.0));
#555=DIRECTION('',(-7.4728213973452E-15,0.0,-1.0));
#556=DIRECTION('',(-0.0,1.0,-0.0));
#557=DIRECTION('',(0.0,-1.0,0.0));
#558=DIRECTION('',(0.0,-1.0,0.0));
#559=DIRECTION('',(-7.47282139734521E-15,0.0,-1.0));
#560=DIRECTION('',(0.0,-1.0,0.0));
#561=DIRECTION('',(7.47282139734521E-15,0.0,1.0));
#562=CARTESIAN_POINT('',(15.9999999999998,-6.0,-33.434874407237));
#563=DIRECTION('',(-6.93889390390723E-15,0.0,-1.0));
#564=DIRECTION('',(-1.0,0.0,6.93889390390723E-15));
#565=DIRECTION('',(1.0,0.0,-7.47282139734521E-15));
#566=CARTESIAN_POINT('',(-16.0,-6.0,-33.4348744072369));
#567=DIRECTION('',(0.0,0.0,-1.0));
#568=DIRECTION('',(1.0,0.0,0.0));
#569=DIRECTION('',(0.0,1.0,0.0));
#570=CARTESIAN_POINT('',(-16.0,-4.0,-33.4348744072369));
#571=DIRECTION('',(0.0,0.0,-1.0));
#572=DIRECTION('',(1.0,0.0,0.0));
#573=DIRECTION('',(1.0,0.0,-7.47282139734521E-15));
#574=CARTESIAN_POINT('',(15.9999999999998,-4.0,-33.434874407237));
#575=DIRECTION('',(-6.93889390390723E-15,0.0,-1.0));
#576=DIRECTION('',(-1.0,0.0,6.93889390390723E-15));
#577=CARTESIAN_POINT('',(-3.7364106986726E-13,-4.0,-50.0));
#578=DIRECTION('',(0.0,-1.0,-0.0));
#579=DIRECTION('',(-7.4728213973452E-15,0.0,-1.0));
#580=DIRECTION('',(0.0,1.0,0.0));
#581=CARTESIAN_POINT('',(-3.7364106986726E-13,-6.0,-50.0));
#582=DIRECTION('',(0.0,1.0,0.0));
#583=DIRECTION('',(-7.4728213973452E-15,0.0,-1.0));
#584=CARTESIAN_POINT('',(6.99999999999989,-6.0,-13.6681957508302));
#585=DIRECTION('',(0.0,1.0,0.0));
#586=DIRECTION('',(-7.47265497343856E-15,0.0,-1.0));
#587=CARTESIAN_POINT('',(6.99999999999989,-4.0,-13.6681957508302));
#588=DIRECTION('',(0.0,-1.0,-0.0));
#589=DIRECTION('',(-7.47265497343856E-15,0.0,-1.0));
#590=CARTESIAN_POINT('',(-3.7364106986726E-13,-10.0,-50.0));
#591=DIRECTION('',(0.0,-1.0,-0.0));
#592=DIRECTION('',(-7.47282139734521E-15,0.0,-1.0));
#593=CARTESIAN_POINT('',(-7.0,-10.0,-13.6681957508301));
#594=DIRECTION('',(0.0,-1.0,0.0));
#595=DIRECTION('',(0.0,0.0,-1.0));
#596=DIRECTION('',(0.0,0.0,-1.0));
#597=DIRECTION('',(7.47282139734521E-15,0.0,1.0));
#598=CARTESIAN_POINT('',(6.99999999999989,-10.0,-13.6681957508302));
#599=DIRECTION('',(0.0,-1.0,-0.0));
#600=DIRECTION('',(-7.51713506256617E-15,0.0,-1.0));
#601=CARTESIAN_POINT('',(6.99999999999989,0.0,-13.6681957508302));
#602=DIRECTION('',(0.0,1.0,0.0));
#603=DIRECTION('',(-7.51713506256617E-15,0.0,-1.0));
#604=DIRECTION('',(-7.47282139734521E-15,0.0,-1.0));
#605=DIRECTION('',(0.0,0.0,1.0));
#606=CARTESIAN_POINT('',(-7.0,0.0,-13.6681957508301));
#607=DIRECTION('',(0.0,1.0,0.0));
#608=DIRECTION('',(0.0,0.0,-1.0));
#609=CARTESIAN_POINT('',(-3.7364106986726E-13,0.0,-50.0));
#610=DIRECTION('',(0.0,1.0,0.0));
#611=DIRECTION('',(-7.47282139734521E-15,0.0,-1.0));
#612=CARTESIAN_POINT('',(15.9999999999999,-6.0,-13.6681957508302));
#613=DIRECTION('',(-7.37257477290143E-15,0.0,-1.0));
#614=DIRECTION('',(-1.0,0.0,7.37257477290143E-15));
#615=CARTESIAN_POINT('',(-8.70270270270271,-6.0,-4.83072985238337));
#616=DIRECTION('',(0.98194065538297,-8.92721619440383E-16,0.18918918918919));
#617=DIRECTION('',(0.18918918918919,0.0,-0.98194065538297));
#618=CARTESIAN_POINT('',(15.9999999999999,-4.0,-13.6681957508302));
#619=DIRECTION('',(-7.37257477290143E-15,0.0,-1.0));
#620=DIRECTION('',(-1.0,0.0,7.37257477290143E-15));
#621=CARTESIAN_POINT('',(-8.70270270270271,-4.0,-4.83072985238337));
#622=DIRECTION('',(0.98194065538297,0.0,0.189189189189189));
#623=DIRECTION('',(0.189189189189189,0.0,-0.98194065538297));
#624=DIRECTION('',(0.0,1.0,0.0));
#625=DIRECTION('',(0.0,0.0,-1.0));
#626=DIRECTION('',(0.0,0.0,1.0));
#627=CARTESIAN_POINT('',(-7.0,-4.0,-13.6681957508301));
#628=DIRECTION('',(0.0,-1.0,0.0));
#629=DIRECTION('',(0.0,0.0,-1.0));
#630=CARTESIAN_POINT('',(-7.0,-6.0,-13.6681957508301));
#631=DIRECTION('',(0.0,1.0,0.0));
#632=DIRECTION('',(0.0,0.0,-1.0));
#633=CARTESIAN_POINT('',(-16.0,-6.0,-13.6681957508301));
#634=DIRECTION('',(0.0,0.0,-1.0));
#635=DIRECTION('',(1.0,0.0,0.0));
#636=CARTESIAN_POINT('',(-16.0,-4.0,-13.6681957508301));
#637=DIRECTION('',(0.0,0.0,-1.0));
#638=DIRECTION('',(1.0,0.0,0.0));
ENDSEC;
END-ISO-10303-21;
