ISO-10303-21;
HEADER;
FILE_DESCRIPTION(('STEP AP214'),'1');
FILE_NAME('PUNCH_24.step','2026-05-08T22:48:48',(' '),(' '),'Spatial InterOp 3D',' ',' ');
FILE_SCHEMA(('AUTOMOTIVE_DESIGN { 1 0 10303 214 1 1 1 1 }'));
ENDSEC;
DATA;
#1=MECHANICAL_DESIGN_GEOMETRIC_PRESENTATION_REPRESENTATION(' ',(#10),#6);
#2=PRODUCT_DEFINITION_CONTEXT('',#11,'design');
#3=APPLICATION_PROTOCOL_DEFINITION('INTERNATIONAL STANDARD','automotive_design',1994,#11);
#4=PRODUCT_CATEGORY_RELATIONSHIP('NONE','NONE',#12,#13);
#5=SHAPE_DEFINITION_REPRESENTATION(#14,#15);
#6= (GEOMETRIC_REPRESENTATION_CONTEXT(3)GLOBAL_UNCERTAINTY_ASSIGNED_CONTEXT((#18))GLOBAL_UNIT_ASSIGNED_CONTEXT((#20,#21,#22))REPRESENTATION_CONTEXT('NONE','WORKSPACE'));
#10=STYLED_ITEM('',(#24),#25);
#11=APPLICATION_CONTEXT(' ');
#12=PRODUCT_CATEGORY('part','NONE');
#13=PRODUCT_RELATED_PRODUCT_CATEGORY('detail',' ',(#26));
#14=PRODUCT_DEFINITION_SHAPE('NONE','NONE',#27);
#15=MANIFOLD_SURFACE_SHAPE_REPRESENTATION('1',(#25,#28),#6);
#18=UNCERTAINTY_MEASURE_WITH_UNIT(LENGTH_MEASURE(1.0E-06),#20,'','');
#20= (CONVERSION_BASED_UNIT('MILLIMETRE',#31)LENGTH_UNIT()NAMED_UNIT(#34));
#21= (NAMED_UNIT(#36)PLANE_ANGLE_UNIT()SI_UNIT($,.RADIAN.));
#22= (NAMED_UNIT(#36)SOLID_ANGLE_UNIT()SI_UNIT($,.STERADIAN.));
#24=PRESENTATION_STYLE_ASSIGNMENT((#42));
#25=SHELL_BASED_SURFACE_MODEL('1',(#43));
#26=PRODUCT('1','','PART--DESC',(#44));
#27=PRODUCT_DEFINITION('','NONE',#45,#2);
#28=AXIS2_PLACEMENT_3D('',#46,#47,#48);
#31=LENGTH_MEASURE_WITH_UNIT(LENGTH_MEASURE(1.0),#49);
#34=DIMENSIONAL_EXPONENTS(1.0,0.0,0.0,0.0,0.0,0.0,0.0);
#36=DIMENSIONAL_EXPONENTS(0.0,0.0,0.0,0.0,0.0,0.0,0.0);
#42=SURFACE_STYLE_USAGE(.BOTH.,#50);
#43=CLOSED_SHELL('',(#51,#52,#53,#54,#55,#56,#57,#58,#59,#60,#61,#62,#63));
#44=PRODUCT_CONTEXT('',#11,'mechanical');
#45=PRODUCT_DEFINITION_FORMATION_WITH_SPECIFIED_SOURCE(' ','NONE',#26,.NOT_KNOWN.);
#46=CARTESIAN_POINT('',(0.0,0.0,0.0));
#47=DIRECTION('',(0.0,0.0,1.0));
#48=DIRECTION('',(1.0,0.0,0.0));
#49= (NAMED_UNIT(#34)LENGTH_UNIT()SI_UNIT(.MILLI.,.METRE.));
#50=SURFACE_SIDE_STYLE('',(#65));
#51=FACE_SURFACE('',(#66),#67,.T.);
#52=FACE_SURFACE('',(#68),#69,.T.);
#53=FACE_SURFACE('',(#70),#71,.T.);
#54=FACE_SURFACE('',(#72),#73,.T.);
#55=FACE_SURFACE('',(#74),#75,.T.);
#56=FACE_SURFACE('',(#76),#77,.T.);
#57=FACE_SURFACE('',(#78),#79,.T.);
#58=FACE_SURFACE('',(#80),#81,.T.);
#59=FACE_SURFACE('',(#82),#83,.T.);
#60=FACE_SURFACE('',(#84),#85,.T.);
#61=FACE_SURFACE('',(#86),#87,.T.);
#62=FACE_SURFACE('',(#88),#89,.T.);
#63=FACE_SURFACE('',(#90),#91,.T.);
#65=SURFACE_STYLE_FILL_AREA(#92);
#66=FACE_BOUND('',#93,.T.);
#67=CYLINDRICAL_SURFACE('',#94,2.50000000000001);
#68=FACE_BOUND('',#95,.T.);
#69=PLANE('',#96);
#70=FACE_BOUND('',#97,.T.);
#71=PLANE('',#98);
#72=FACE_BOUND('',#99,.T.);
#73=CYLINDRICAL_SURFACE('',#100,2.50000000000001);
#74=FACE_BOUND('',#101,.T.);
#75=PLANE('',#102);
#76=FACE_BOUND('',#103,.T.);
#77=CYLINDRICAL_SURFACE('',#104,20.0);
#78=FACE_BOUND('',#105,.T.);
#79=CYLINDRICAL_SURFACE('',#106,20.0);
#80=FACE_BOUND('',#107,.T.);
#81=(B_SPLINE_SURFACE(3,2,((#109,#110,#111),(#112,#113,#114),(#115,#116,#117),(#118,#119,#120)),.UNSPECIFIED.,.F.,.F.,.F.)B_SPLINE_SURFACE_WITH_KNOTS((4,4),(3,3),(0.0,1.0),(0.0,1.0),.UNSPECIFIED.)RATIONAL_B_SPLINE_SURFACE(((1.0,0.884894074722716,1.0),(1.0,0.838513362861093,1.0),(1.0,0.778247848417046,1.0),(1.0,0.707106781186548,1.0)))BOUNDED_SURFACE()REPRESENTATION_ITEM('')GEOMETRIC_REPRESENTATION_ITEM()SURFACE());
#82=FACE_BOUND('',#127,.T.);
#83=SPHERICAL_SURFACE('',#128,2.5);
#84=FACE_BOUND('',#129,.T.);
#85=(B_SPLINE_SURFACE(3,2,((#131,#132,#133),(#134,#135,#136),(#137,#138,#139),(#140,#141,#142)),.UNSPECIFIED.,.F.,.F.,.F.)B_SPLINE_SURFACE_WITH_KNOTS((4,4),(3,3),(0.0,1.0),(0.0,1.0),.UNSPECIFIED.)RATIONAL_B_SPLINE_SURFACE(((1.0,0.707106781186547,1.0),(1.0,0.778247848417048,1.0),(1.0,0.838513362861092,1.0),(1.0,0.884894074722717,1.0)))BOUNDED_SURFACE()REPRESENTATION_ITEM('')GEOMETRIC_REPRESENTATION_ITEM()SURFACE());
#86=FACE_BOUND('',#149,.T.);
#87=(B_SPLINE_SURFACE(3,2,((#151,#152,#153),(#154,#155,#156),(#157,#158,#159),(#160,#161,#162)),.UNSPECIFIED.,.F.,.F.,.F.)B_SPLINE_SURFACE_WITH_KNOTS((4,4),(3,3),(0.0,1.0),(0.0,1.0),.UNSPECIFIED.)RATIONAL_B_SPLINE_SURFACE(((1.0,0.884894074722716,1.0),(1.0,0.838513362861093,1.0),(1.0,0.778247848417047,1.0),(1.0,0.707106781186547,1.0)))BOUNDED_SURFACE()REPRESENTATION_ITEM('')GEOMETRIC_REPRESENTATION_ITEM()SURFACE());
#88=FACE_BOUND('',#169,.T.);
#89=SPHERICAL_SURFACE('',#170,2.5);
#90=FACE_BOUND('',#171,.T.);
#91=(B_SPLINE_SURFACE(3,2,((#173,#174,#175),(#176,#177,#178),(#179,#180,#181),(#182,#183,#184)),.UNSPECIFIED.,.F.,.F.,.F.)B_SPLINE_SURFACE_WITH_KNOTS((4,4),(3,3),(0.0,1.0),(0.0,1.0),.UNSPECIFIED.)RATIONAL_B_SPLINE_SURFACE(((1.0,0.707106781186547,1.0),(1.0,0.778247848417046,1.0),(1.0,0.838513362861093,1.0),(1.0,0.884894074722717,1.0)))BOUNDED_SURFACE()REPRESENTATION_ITEM('')GEOMETRIC_REPRESENTATION_ITEM()SURFACE());
#92=FILL_AREA_STYLE('',(#191));
#93=EDGE_LOOP('',(#192,#193,#194,#195));
#94=AXIS2_PLACEMENT_3D('',#196,#197,#198);
#95=EDGE_LOOP('',(#199,#200,#201,#202,#203,#204,#205,#206));
#96=AXIS2_PLACEMENT_3D('',#207,#208,#209);
#97=EDGE_LOOP('',(#210,#211,#212,#213));
#98=AXIS2_PLACEMENT_3D('',#214,#215,#216);
#99=EDGE_LOOP('',(#217,#218,#219,#220));
#100=AXIS2_PLACEMENT_3D('',#221,#222,#223);
#101=EDGE_LOOP('',(#224,#225,#226,#227));
#102=AXIS2_PLACEMENT_3D('',#228,#229,#230);
#103=EDGE_LOOP('',(#231,#232,#233));
#104=AXIS2_PLACEMENT_3D('',#234,#235,#236);
#105=EDGE_LOOP('',(#237,#238,#239));
#106=AXIS2_PLACEMENT_3D('',#240,#241,#242);
#107=EDGE_LOOP('',(#243,#244,#245,#246));
#109=CARTESIAN_POINT('',(-11.5435387161088,-16.3323823709127,-0.751818610547912));
#110=CARTESIAN_POINT('',(-12.5876134077567,-15.5944424701783,-0.440225469124003));
#111=CARTESIAN_POINT('',(-12.552509350945,-14.2908345745486,-0.263840366960442));
#112=CARTESIAN_POINT('',(-8.19567892095723,-18.6986109029034,13.967235679144));
#113=CARTESIAN_POINT('',(-9.48914464168607,-18.1231075042506,15.1284517577801));
#114=CARTESIAN_POINT('',(-9.62336337712273,-16.3611210266656,14.4540514885855));
#115=CARTESIAN_POINT('',(-4.1048792545107,-20.0,31.9526669882461));
#116=CARTESIAN_POINT('',(-5.73277031951402,-19.5428097299603,34.0028648243902));
#117=CARTESIAN_POINT('',(-6.04350856839859,-17.5000000000638,32.4415182806909));
#118=CARTESIAN_POINT('',(-1.01064309961486E-14,-20.0,50.0));
#119=CARTESIAN_POINT('',(-2.45191297434989,-20.0,50.4879782435874));
#120=CARTESIAN_POINT('',(-2.45191297434989,-17.5,50.4879782435875));
#127=EDGE_LOOP('',(#247,#248,#249,#250));
#128=AXIS2_PLACEMENT_3D('',#251,#252,#253);
#129=EDGE_LOOP('',(#254,#255,#256,#257));
#131=CARTESIAN_POINT('',(-3.67394039744206E-15,-20.0,50.0));
#132=CARTESIAN_POINT('',(2.45191297434988,-20.0,50.4879782435875));
#133=CARTESIAN_POINT('',(2.45191297434988,-17.5,50.4879782435875));
#134=CARTESIAN_POINT('',(4.10487925452184,-20.0,31.9526669882447));
#135=CARTESIAN_POINT('',(5.73277031950877,-19.5428097300283,34.0028648244023));
#136=CARTESIAN_POINT('',(6.04350856839695,-17.5000000000638,32.4415182806991));
#137=CARTESIAN_POINT('',(8.19567892097802,-18.6986109028887,13.967235679154));
#138=CARTESIAN_POINT('',(9.48914464172055,-18.1231075042667,15.1284517577634));
#139=CARTESIAN_POINT('',(9.62336337712492,-16.361121026701,14.4540514885745));
#140=CARTESIAN_POINT('',(11.5435387161088,-16.3323823709126,-0.751818610547961));
#141=CARTESIAN_POINT('',(12.5876134077567,-15.5944424701783,-0.440225469124052));
#142=CARTESIAN_POINT('',(12.5525093509451,-14.2908345745486,-0.26384036696049));
#149=EDGE_LOOP('',(#258,#259,#260,#261));
#151=CARTESIAN_POINT('',(11.5435387161088,16.3323823709126,-0.751818610547912));
#152=CARTESIAN_POINT('',(12.5876134077567,15.5944424701783,-0.440225469124003));
#153=CARTESIAN_POINT('',(12.552509350945,14.2908345745486,-0.263840366960441));
#154=CARTESIAN_POINT('',(8.19567892094863,18.6986109029094,13.9672356791398));
#155=CARTESIAN_POINT('',(9.4891446416535,18.1231075044046,15.1284517576925));
#156=CARTESIAN_POINT('',(9.62336337712406,16.3611210266871,14.4540514885788));
#157=CARTESIAN_POINT('',(4.10487925456553,20.0,31.9526669882604));
#158=CARTESIAN_POINT('',(5.73277031956695,19.5428097300715,34.0028648244474));
#159=CARTESIAN_POINT('',(6.04350856839758,17.5000000000638,32.441518280696));
#160=CARTESIAN_POINT('',(-1.65389215948552E-14,20.0,50.0000000000001));
#161=CARTESIAN_POINT('',(2.45191297434987,20.0,50.4879782435876));
#162=CARTESIAN_POINT('',(2.45191297434987,17.5,50.4879782435876));
#169=EDGE_LOOP('',(#262,#263,#264,#265));
#170=AXIS2_PLACEMENT_3D('',#266,#267,#268);
#171=EDGE_LOOP('',(#269,#270,#271,#272));
#173=CARTESIAN_POINT('',(3.67394039744206E-15,20.0,50.0));
#174=CARTESIAN_POINT('',(-2.45191297434988,20.0,50.4879782435875));
#175=CARTESIAN_POINT('',(-2.45191297434988,17.5,50.4879782435875));
#176=CARTESIAN_POINT('',(-4.10487925452136,20.0,31.9526669882468));
#177=CARTESIAN_POINT('',(-5.73277031950749,19.5428097300285,34.0028648244087));
#178=CARTESIAN_POINT('',(-6.04350856839562,17.5000000000638,32.4415182807058));
#179=CARTESIAN_POINT('',(-8.19567892096651,18.6986109028968,13.9672356791484));
#180=CARTESIAN_POINT('',(-9.48914464172059,18.1231075043006,15.128451757752));
#181=CARTESIAN_POINT('',(-9.62336337712668,16.3611210267296,14.4540514885656));
#182=CARTESIAN_POINT('',(-11.5435387161088,16.3323823709126,-0.751818610547982));
#183=CARTESIAN_POINT('',(-12.5876134077567,15.5944424701783,-0.440225469124073));
#184=CARTESIAN_POINT('',(-12.5525093509451,14.2908345745486,-0.263840366960511));
#191=FILL_AREA_STYLE_COLOUR('',#273);
#192=ORIENTED_EDGE('',*,*,#274,.T.);
#193=ORIENTED_EDGE('',*,*,#275,.T.);
#194=ORIENTED_EDGE('',*,*,#276,.T.);
#195=ORIENTED_EDGE('',*,*,#277,.T.);
#196=CARTESIAN_POINT('',(-6.93889390390723E-15,-30.0,50.0));
#197=DIRECTION('',(0.0,-1.0,0.0));
#198=DIRECTION('',(0.0,0.0,1.0));
#199=ORIENTED_EDGE('',*,*,#278,.T.);
#200=ORIENTED_EDGE('',*,*,#279,.T.);
#201=ORIENTED_EDGE('',*,*,#280,.T.);
#202=ORIENTED_EDGE('',*,*,#281,.T.);
#203=ORIENTED_EDGE('',*,*,#282,.T.);
#204=ORIENTED_EDGE('',*,*,#283,.T.);
#205=ORIENTED_EDGE('',*,*,#284,.T.);
#206=ORIENTED_EDGE('',*,*,#285,.T.);
#207=CARTESIAN_POINT('',(12.5,-30.0,3.05311331771918E-15));
#208=DIRECTION('',(1.22124532708767E-16,0.0,-1.0));
#209=DIRECTION('',(0.0,-1.0,0.0));
#210=ORIENTED_EDGE('',*,*,#286,.T.);
#211=ORIENTED_EDGE('',*,*,#287,.T.);
#212=ORIENTED_EDGE('',*,*,#278,.F.);
#213=ORIENTED_EDGE('',*,*,#288,.T.);
#214=CARTESIAN_POINT('',(-12.5,-30.0,0.0));
#215=DIRECTION('',(-0.980765189739953,0.0,0.195191297434988));
#216=DIRECTION('',(0.0,1.0,0.0));
#217=ORIENTED_EDGE('',*,*,#274,.F.);
#218=ORIENTED_EDGE('',*,*,#289,.T.);
#219=ORIENTED_EDGE('',*,*,#286,.F.);
#220=ORIENTED_EDGE('',*,*,#290,.T.);
#221=CARTESIAN_POINT('',(-6.93889390390723E-15,-30.0,50.0));
#222=DIRECTION('',(0.0,-1.0,0.0));
#223=DIRECTION('',(0.0,0.0,1.0));
#224=ORIENTED_EDGE('',*,*,#282,.F.);
#225=ORIENTED_EDGE('',*,*,#291,.T.);
#226=ORIENTED_EDGE('',*,*,#276,.F.);
#227=ORIENTED_EDGE('',*,*,#292,.T.);
#228=CARTESIAN_POINT('',(2.45191297434989,-30.0,50.4879782435875));
#229=DIRECTION('',(0.980765189739953,0.0,0.195191297434988));
#230=DIRECTION('',(0.0,-1.0,0.0));
#231=ORIENTED_EDGE('',*,*,#280,.F.);
#232=ORIENTED_EDGE('',*,*,#293,.T.);
#233=ORIENTED_EDGE('',*,*,#294,.T.);
#234=CARTESIAN_POINT('',(0.0,0.0,70.0));
#235=DIRECTION('',(0.0,0.0,1.0));
#236=DIRECTION('',(-1.0,0.0,0.0));
#237=ORIENTED_EDGE('',*,*,#284,.F.);
#238=ORIENTED_EDGE('',*,*,#295,.T.);
#239=ORIENTED_EDGE('',*,*,#296,.T.);
#240=CARTESIAN_POINT('',(0.0,0.0,70.0));
#241=DIRECTION('',(0.0,0.0,1.0));
#242=DIRECTION('',(-1.0,0.0,0.0));
#243=ORIENTED_EDGE('',*,*,#297,.T.);
#244=ORIENTED_EDGE('',*,*,#288,.F.);
#245=ORIENTED_EDGE('',*,*,#285,.F.);
#246=ORIENTED_EDGE('',*,*,#296,.F.);
#247=ORIENTED_EDGE('',*,*,#290,.F.);
#248=ORIENTED_EDGE('',*,*,#297,.F.);
#249=ORIENTED_EDGE('',*,*,#298,.T.);
#250=ORIENTED_EDGE('',*,*,#275,.F.);
#251=CARTESIAN_POINT('',(-6.93889390390723E-15,-17.5,50.0));
#252=DIRECTION('',(0.0,1.0,0.0));
#253=DIRECTION('',(-1.0,0.0,0.0));
#254=ORIENTED_EDGE('',*,*,#283,.F.);
#255=ORIENTED_EDGE('',*,*,#292,.F.);
#256=ORIENTED_EDGE('',*,*,#298,.F.);
#257=ORIENTED_EDGE('',*,*,#295,.F.);
#258=ORIENTED_EDGE('',*,*,#299,.T.);
#259=ORIENTED_EDGE('',*,*,#291,.F.);
#260=ORIENTED_EDGE('',*,*,#281,.F.);
#261=ORIENTED_EDGE('',*,*,#294,.F.);
#262=ORIENTED_EDGE('',*,*,#277,.F.);
#263=ORIENTED_EDGE('',*,*,#299,.F.);
#264=ORIENTED_EDGE('',*,*,#300,.T.);
#265=ORIENTED_EDGE('',*,*,#289,.F.);
#266=CARTESIAN_POINT('',(-6.93889390390723E-15,17.5,50.0));
#267=DIRECTION('',(0.0,-1.0,0.0));
#268=DIRECTION('',(1.0,0.0,0.0));
#269=ORIENTED_EDGE('',*,*,#279,.F.);
#270=ORIENTED_EDGE('',*,*,#287,.F.);
#271=ORIENTED_EDGE('',*,*,#300,.F.);
#272=ORIENTED_EDGE('',*,*,#293,.F.);
#273=COLOUR_RGB('',0.61176472902298,0.658823549747467,0.670588254928589);
#274=EDGE_CURVE('',#301,#302,#303,.F.);
#275=EDGE_CURVE('',#302,#304,#305,.T.);
#276=EDGE_CURVE('',#304,#306,#307,.T.);
#277=EDGE_CURVE('',#306,#301,#308,.T.);
#278=EDGE_CURVE('',#309,#310,#311,.T.);
#279=EDGE_CURVE('',#310,#312,#313,.T.);
#280=EDGE_CURVE('',#312,#314,#315,.F.);
#281=EDGE_CURVE('',#314,#316,#317,.T.);
#282=EDGE_CURVE('',#316,#318,#319,.F.);
#283=EDGE_CURVE('',#318,#320,#321,.T.);
#284=EDGE_CURVE('',#320,#322,#323,.F.);
#285=EDGE_CURVE('',#322,#309,#324,.T.);
#286=EDGE_CURVE('',#325,#326,#327,.T.);
#287=EDGE_CURVE('',#326,#310,#328,.T.);
#288=EDGE_CURVE('',#309,#325,#329,.T.);
#289=EDGE_CURVE('',#301,#326,#330,.T.);
#290=EDGE_CURVE('',#325,#302,#331,.T.);
#291=EDGE_CURVE('',#316,#306,#332,.T.);
#292=EDGE_CURVE('',#304,#318,#333,.T.);
#293=EDGE_CURVE('',#312,#334,#335,.T.);
#294=EDGE_CURVE('',#334,#314,#336,.T.);
#295=EDGE_CURVE('',#320,#337,#338,.T.);
#296=EDGE_CURVE('',#337,#322,#339,.T.);
#297=EDGE_CURVE('',#337,#325,#340,.F.);
#298=EDGE_CURVE('',#337,#304,#341,.F.);
#299=EDGE_CURVE('',#334,#306,#342,.F.);
#300=EDGE_CURVE('',#334,#326,#343,.F.);
#301=VERTEX_POINT('',#344);
#302=VERTEX_POINT('',#345);
#303=LINE('',#346,#347);
#304=VERTEX_POINT('',#348);
#305=CIRCLE('',#349,2.50000000000001);
#306=VERTEX_POINT('',#350);
#307=LINE('',#351,#352);
#308=CIRCLE('',#353,2.50000000000001);
#309=VERTEX_POINT('',#354);
#310=VERTEX_POINT('',#355);
#311=LINE('',#356,#357);
#312=VERTEX_POINT('',#358);
#313=B_SPLINE_CURVE_WITH_KNOTS('',3,(#359,#360,#361,#362,#363,#364,#365,#366,#367,#368),.UNSPECIFIED.,.F.,.F.,(4,3,3,4),(0.0,0.343971733940157,0.687485843233158,1.0),.UNSPECIFIED.);
#314=VERTEX_POINT('',#369);
#315=CIRCLE('',#370,20.0);
#316=VERTEX_POINT('',#371);
#317=B_SPLINE_CURVE_WITH_KNOTS('',3,(#372,#373,#374,#375,#376,#377,#378,#379,#380,#381),.UNSPECIFIED.,.F.,.F.,(4,3,3,4),(0.0,0.355144166180707,0.710572262107977,1.0),.UNSPECIFIED.);
#318=VERTEX_POINT('',#382);
#319=LINE('',#383,#384);
#320=VERTEX_POINT('',#385);
#321=B_SPLINE_CURVE_WITH_KNOTS('',3,(#386,#387,#388,#389,#390,#391,#392,#393,#394,#395),.UNSPECIFIED.,.F.,.F.,(4,3,3,4),(0.0,0.343971733940158,0.687485843233161,1.0),.UNSPECIFIED.);
#322=VERTEX_POINT('',#396);
#323=CIRCLE('',#397,20.0);
#324=B_SPLINE_CURVE_WITH_KNOTS('',3,(#398,#399,#400,#401,#402,#403,#404,#405,#406,#407),.UNSPECIFIED.,.F.,.F.,(4,3,3,4),(0.0,0.355144166180708,0.71057226210798,1.0),.UNSPECIFIED.);
#325=VERTEX_POINT('',#408);
#326=VERTEX_POINT('',#409);
#327=LINE('',#410,#411);
#328=ELLIPSE('',#412,89.6556364446969,17.5);
#329=ELLIPSE('',#413,89.6556364446969,17.5);
#330=CIRCLE('',#414,2.50000000000001);
#331=CIRCLE('',#415,2.50000000000001);
#332=ELLIPSE('',#416,89.6556364446969,17.5);
#333=ELLIPSE('',#417,89.6556364446969,17.5);
#334=VERTEX_POINT('',#418);
#335=ELLIPSE('',#419,90.1769546297926,20.0);
#336=ELLIPSE('',#420,90.1769546297925,20.0);
#337=VERTEX_POINT('',#421);
#338=ELLIPSE('',#422,90.1769546297925,20.0);
#339=ELLIPSE('',#423,90.1769546297926,20.0);
#340=CIRCLE('',#424,2.5);
#341=CIRCLE('',#425,2.5);
#342=CIRCLE('',#426,2.5);
#343=CIRCLE('',#427,2.5);
#344=CARTESIAN_POINT('',(-6.63273220412039E-15,17.5,52.5));
#345=CARTESIAN_POINT('',(-6.63273220412039E-15,-17.5,52.5));
#346=CARTESIAN_POINT('',(-6.63273220412039E-15,0.0,52.5));
#347=VECTOR('',#428,1.0);
#348=CARTESIAN_POINT('',(2.45191297434988,-17.5,50.4879782435875));
#349=AXIS2_PLACEMENT_3D('',#429,#430,#431);
#350=CARTESIAN_POINT('',(2.45191297434988,17.5,50.4879782435875));
#351=CARTESIAN_POINT('',(2.45191297434988,-30.0,50.4879782435875));
#352=VECTOR('',#432,1.0);
#353=AXIS2_PLACEMENT_3D('',#433,#434,#435);
#354=CARTESIAN_POINT('',(-12.5,-14.3278032902801,0.0));
#355=CARTESIAN_POINT('',(-12.5,14.3278032902801,0.0));
#356=CARTESIAN_POINT('',(-12.5,-30.0,0.0));
#357=VECTOR('',#436,1.0);
#358=CARTESIAN_POINT('',(-11.3725370165451,16.4519117979435,0.0));
#359=CARTESIAN_POINT('',(-12.5,14.3278032902801,0.0));
#360=CARTESIAN_POINT('',(-12.5,14.6129425403862,0.0));
#361=CARTESIAN_POINT('',(-12.4497985333977,14.9019402337064,6.13083065010162E-18));
#362=CARTESIAN_POINT('',(-12.3549033934942,15.1708255333673,1.77198552671469E-17));
#363=CARTESIAN_POINT('',(-12.2600845183933,15.4394947367738,2.92995660808158E-17));
#364=CARTESIAN_POINT('',(-12.1181996003067,15.6954590633231,4.66271954005629E-17));
#365=CARTESIAN_POINT('',(-11.9413929835249,15.9188716417439,6.8219620854865E-17));
#366=CARTESIAN_POINT('',(-11.7801338286609,16.1226384703721,8.7913319787638E-17));
#367=CARTESIAN_POINT('',(-11.5862938826658,16.3041503765139,-2.6104957388282E-17));
#368=CARTESIAN_POINT('',(-11.3725370165451,16.4519117979435,0.0));
#369=CARTESIAN_POINT('',(11.3725370165451,16.4519117979435,0.0));
#370=AXIS2_PLACEMENT_3D('',#437,#438,#439);
#371=CARTESIAN_POINT('',(12.5,14.3278032902801,0.0));
#372=CARTESIAN_POINT('',(11.3725370165451,16.4519117979435,0.0));
#373=CARTESIAN_POINT('',(11.6147049026131,16.2845109947814,2.95746399231241E-17));
#374=CARTESIAN_POINT('',(11.8315309000291,16.0732797078794,2.97147684125499E-15));
#375=CARTESIAN_POINT('',(12.0048482425188,15.8353103553689,2.99264314071686E-15));
#376=CARTESIAN_POINT('',(12.1782423957202,15.5972355396943,3.01381882065102E-15));
#377=CARTESIAN_POINT('',(12.3128879975567,15.3256343821571,3.03026235185659E-15));
#378=CARTESIAN_POINT('',(12.3962410946787,15.0431500260893,3.04044180989245E-15));
#379=CARTESIAN_POINT('',(12.4644302911089,14.8120562586176,3.04876938364227E-15));
#380=CARTESIAN_POINT('',(12.5,14.568747466126,0.0));
#381=CARTESIAN_POINT('',(12.5,14.3278032902801,0.0));
#382=CARTESIAN_POINT('',(12.5,-14.3278032902801,0.0));
#383=CARTESIAN_POINT('',(12.5,-30.0,0.0));
#384=VECTOR('',#440,1.0);
#385=CARTESIAN_POINT('',(11.3725370165451,-16.4519117979435,0.0));
#386=CARTESIAN_POINT('',(12.5,-14.3278032902801,0.0));
#387=CARTESIAN_POINT('',(12.5,-14.6129425403862,-2.46368467571503E-32));
#388=CARTESIAN_POINT('',(12.4497985333977,-14.9019402337064,3.04698248706908E-15));
#389=CARTESIAN_POINT('',(12.3549033934942,-15.1708255333673,3.03539346245203E-15));
#390=CARTESIAN_POINT('',(12.2600845183933,-15.4394947367738,3.02381375163836E-15));
#391=CARTESIAN_POINT('',(12.1181996003067,-15.6954590633231,3.00648612231862E-15));
#392=CARTESIAN_POINT('',(11.9413929835249,-15.9188716417439,2.98489369686431E-15));
#393=CARTESIAN_POINT('',(11.7801338286609,-16.1226384703721,2.96519999793154E-15));
#394=CARTESIAN_POINT('',(11.5862938826658,-16.3041503765139,2.61049573882818E-17));
#395=CARTESIAN_POINT('',(11.3725370165451,-16.4519117979435,0.0));
#396=CARTESIAN_POINT('',(-11.3725370165451,-16.4519117979435,0.0));
#397=AXIS2_PLACEMENT_3D('',#441,#442,#443);
#398=CARTESIAN_POINT('',(-11.3725370165451,-16.4519117979435,0.0));
#399=CARTESIAN_POINT('',(-11.6147049026131,-16.2845109947814,-2.95746399231241E-17));
#400=CARTESIAN_POINT('',(-11.8315309000291,-16.0732797078794,8.16364764641932E-17));
#401=CARTESIAN_POINT('',(-12.0048482425188,-15.8353103553689,6.04701770023161E-17));
#402=CARTESIAN_POINT('',(-12.1782423957202,-15.5972355396943,3.92944970681621E-17));
#403=CARTESIAN_POINT('',(-12.3128879975567,-15.3256343821571,2.28509658625917E-17));
#404=CARTESIAN_POINT('',(-12.3962410946787,-15.0431500260893,1.26715078267324E-17));
#405=CARTESIAN_POINT('',(-12.4644302911089,-14.8120562586176,4.34393407691066E-18));
#406=CARTESIAN_POINT('',(-12.5,-14.568747466126,0.0));
#407=CARTESIAN_POINT('',(-12.5,-14.3278032902801,0.0));
#408=CARTESIAN_POINT('',(-2.45191297434989,-17.5,50.4879782435875));
#409=CARTESIAN_POINT('',(-2.45191297434989,17.5,50.4879782435875));
#410=CARTESIAN_POINT('',(-2.45191297434989,-30.0,50.4879782435875));
#411=VECTOR('',#444,1.0);
#412=AXIS2_PLACEMENT_3D('',#445,#446,#447);
#413=AXIS2_PLACEMENT_3D('',#448,#449,#450);
#414=AXIS2_PLACEMENT_3D('',#451,#452,#453);
#415=AXIS2_PLACEMENT_3D('',#454,#455,#456);
#416=AXIS2_PLACEMENT_3D('',#457,#458,#459);
#417=AXIS2_PLACEMENT_3D('',#460,#461,#462);
#418=CARTESIAN_POINT('',(6.26160778229318E-15,20.0,50.0));
#419=AXIS2_PLACEMENT_3D('',#463,#464,#465);
#420=AXIS2_PLACEMENT_3D('',#466,#467,#468);
#421=CARTESIAN_POINT('',(-3.96508223080413E-15,-20.0,50.0));
#422=AXIS2_PLACEMENT_3D('',#469,#470,#471);
#423=AXIS2_PLACEMENT_3D('',#472,#473,#474);
#424=AXIS2_PLACEMENT_3D('',#475,#476,#477);
#425=AXIS2_PLACEMENT_3D('',#478,#479,#480);
#426=AXIS2_PLACEMENT_3D('',#481,#482,#483);
#427=AXIS2_PLACEMENT_3D('',#484,#485,#486);
#428=DIRECTION('',(-0.0,1.0,-0.0));
#429=CARTESIAN_POINT('',(-6.93889390390723E-15,-17.5,50.0));
#430=DIRECTION('',(0.0,1.0,0.0));
#431=DIRECTION('',(0.0,0.0,1.0));
#432=DIRECTION('',(0.0,1.0,0.0));
#433=CARTESIAN_POINT('',(-6.93889390390723E-15,17.5,50.0));
#434=DIRECTION('',(0.0,-1.0,0.0));
#435=DIRECTION('',(0.0,0.0,1.0));
#436=DIRECTION('',(0.0,1.0,0.0));
#437=CARTESIAN_POINT('',(0.0,0.0,0.0));
#438=DIRECTION('',(0.0,0.0,1.0));
#439=DIRECTION('',(1.0,0.0,0.0));
#440=DIRECTION('',(0.0,1.0,0.0));
#441=CARTESIAN_POINT('',(0.0,0.0,0.0));
#442=DIRECTION('',(0.0,0.0,1.0));
#443=DIRECTION('',(1.0,0.0,0.0));
#444=DIRECTION('',(0.0,1.0,0.0));
#445=CARTESIAN_POINT('',(-2.45191297434988,0.0,50.4879782435875));
#446=DIRECTION('',(-0.980765189739953,0.0,0.195191297434988));
#447=DIRECTION('',(-0.195191297434988,0.0,-0.980765189739953));
#448=CARTESIAN_POINT('',(-2.45191297434988,0.0,50.4879782435875));
#449=DIRECTION('',(-0.980765189739953,0.0,0.195191297434988));
#450=DIRECTION('',(-0.195191297434988,0.0,-0.980765189739953));
#451=CARTESIAN_POINT('',(-6.93889390390723E-15,17.5,50.0));
#452=DIRECTION('',(0.0,-1.0,0.0));
#453=DIRECTION('',(0.0,0.0,1.0));
#454=CARTESIAN_POINT('',(-6.93889390390723E-15,-17.5,50.0));
#455=DIRECTION('',(0.0,1.0,0.0));
#456=DIRECTION('',(0.0,0.0,1.0));
#457=CARTESIAN_POINT('',(2.45191297434988,0.0,50.4879782435875));
#458=DIRECTION('',(0.980765189739953,0.0,0.195191297434988));
#459=DIRECTION('',(0.195191297434988,0.0,-0.980765189739953));
#460=CARTESIAN_POINT('',(2.45191297434988,0.0,50.4879782435875));
#461=DIRECTION('',(0.980765189739953,0.0,0.195191297434988));
#462=DIRECTION('',(0.195191297434988,0.0,-0.980765189739953));
#463=CARTESIAN_POINT('',(0.0,0.0,50.0));
#464=DIRECTION('',(0.975095329509928,0.0,-0.221786154590237));
#465=DIRECTION('',(-0.221786154590237,0.0,-0.975095329509928));
#466=CARTESIAN_POINT('',(0.0,0.0,50.0));
#467=DIRECTION('',(-0.975095329509928,0.0,-0.221786154590238));
#468=DIRECTION('',(0.221786154590238,0.0,-0.975095329509928));
#469=CARTESIAN_POINT('',(0.0,0.0,50.0));
#470=DIRECTION('',(-0.975095329509928,0.0,-0.221786154590238));
#471=DIRECTION('',(0.221786154590238,0.0,-0.975095329509928));
#472=CARTESIAN_POINT('',(0.0,0.0,50.0));
#473=DIRECTION('',(0.975095329509928,0.0,-0.221786154590237));
#474=DIRECTION('',(-0.221786154590237,0.0,-0.975095329509928));
#475=CARTESIAN_POINT('',(-3.46944695195361E-15,-17.5,50.0));
#476=DIRECTION('',(0.195191297434988,-3.86974772533538E-17,0.980765189739953));
#477=DIRECTION('',(0.980765189739953,8.59256604831633E-34,-0.195191297434988));
#478=CARTESIAN_POINT('',(1.73472347597681E-15,-17.5,50.0));
#479=DIRECTION('',(0.195191297434991,-7.54600806440408E-16,-0.980765189739953));
#480=DIRECTION('',(-0.980765189739952,-1.6755503794217E-32,-0.195191297434991));
#481=CARTESIAN_POINT('',(5.63785129692462E-15,17.5,50.0));
#482=DIRECTION('',(-0.195191297434988,4.87007350650305E-17,0.980765189739953));
#483=DIRECTION('',(0.980765189739953,1.08137354770733E-33,0.195191297434988));
#484=CARTESIAN_POINT('',(-1.51788304147971E-14,17.5,50.0));
#485=DIRECTION('',(-0.195191297434993,5.65950604830314E-16,-0.980765189739952));
#486=DIRECTION('',(-0.980765189739952,0.0,0.195191297434993));
ENDSEC;
END-ISO-10303-21;
