ISO-10303-21;
HEADER;
FILE_DESCRIPTION(('STEP AP214'),'1');
FILE_NAME('PUNCH_21.step','2026-05-08T22:48:43',(' '),(' '),'Spatial InterOp 3D',' ',' ');
FILE_SCHEMA(('AUTOMOTIVE_DESIGN { 1 0 10303 214 1 1 1 1 }'));
ENDSEC;
DATA;
#1=MECHANICAL_DESIGN_GEOMETRIC_PRESENTATION_REPRESENTATION(' ',(#10),#6);
#2=PRODUCT_DEFINITION_CONTEXT('',#11,'design');
#3=APPLICATION_PROTOCOL_DEFINITION('INTERNATIONAL STANDARD','automotive_design',1994,#11);
#4=PRODUCT_CATEGORY_RELATIONSHIP('NONE','NONE',#12,#13);
#5=SHAPE_DEFINITION_REPRESENTATION(#14,#15);
#6= (GEOMETRIC_REPRESENTATION_CONTEXT(3)GLOBAL_UNCERTAINTY_ASSIGNED_CONTEXT((#18))GLOBAL_UNIT_ASSIGNED_CONTEXT((#20,#21,#22))REPRESENTATION_CONTEXT('NONE','WORKSPACE'));
#10=STYLED_ITEM('',(#24),#25);
#11=APPLICATION_CONTEXT(' ');
#12=PRODUCT_CATEGORY('part','NONE');
#13=PRODUCT_RELATED_PRODUCT_CATEGORY('detail',' ',(#26));
#14=PRODUCT_DEFINITION_SHAPE('NONE','NONE',#27);
#15=MANIFOLD_SURFACE_SHAPE_REPRESENTATION('1',(#25,#28),#6);
#18=UNCERTAINTY_MEASURE_WITH_UNIT(LENGTH_MEASURE(1.0E-06),#20,'','');
#20= (CONVERSION_BASED_UNIT('MILLIMETRE',#31)LENGTH_UNIT()NAMED_UNIT(#34));
#21= (NAMED_UNIT(#36)PLANE_ANGLE_UNIT()SI_UNIT($,.RADIAN.));
#22= (NAMED_UNIT(#36)SOLID_ANGLE_UNIT()SI_UNIT($,.STERADIAN.));
#24=PRESENTATION_STYLE_ASSIGNMENT((#42));
#25=SHELL_BASED_SURFACE_MODEL('1',(#43));
#26=PRODUCT('1','','PART--DESC',(#44));
#27=PRODUCT_DEFINITION('','NONE',#45,#2);
#28=AXIS2_PLACEMENT_3D('',#46,#47,#48);
#31=LENGTH_MEASURE_WITH_UNIT(LENGTH_MEASURE(1.0),#49);
#34=DIMENSIONAL_EXPONENTS(1.0,0.0,0.0,0.0,0.0,0.0,0.0);
#36=DIMENSIONAL_EXPONENTS(0.0,0.0,0.0,0.0,0.0,0.0,0.0);
#42=SURFACE_STYLE_USAGE(.BOTH.,#50);
#43=CLOSED_SHELL('',(#51,#52,#53,#54,#55,#56,#57));
#44=PRODUCT_CONTEXT('',#11,'mechanical');
#45=PRODUCT_DEFINITION_FORMATION_WITH_SPECIFIED_SOURCE(' ','NONE',#26,.NOT_KNOWN.);
#46=CARTESIAN_POINT('',(0.0,0.0,0.0));
#47=DIRECTION('',(0.0,0.0,1.0));
#48=DIRECTION('',(1.0,0.0,0.0));
#49= (NAMED_UNIT(#34)LENGTH_UNIT()SI_UNIT(.MILLI.,.METRE.));
#50=SURFACE_SIDE_STYLE('',(#59));
#51=FACE_SURFACE('',(#60),#61,.T.);
#52=FACE_SURFACE('',(#62),#63,.T.);
#53=FACE_SURFACE('',(#64),#65,.T.);
#54=FACE_SURFACE('',(#66),#67,.T.);
#55=FACE_SURFACE('',(#68),#69,.T.);
#56=FACE_SURFACE('',(#70),#71,.T.);
#57=FACE_SURFACE('',(#72),#73,.T.);
#59=SURFACE_STYLE_FILL_AREA(#74);
#60=FACE_BOUND('',#75,.T.);
#61=CYLINDRICAL_SURFACE('',#76,2.50000000000001);
#62=FACE_BOUND('',#77,.T.);
#63=PLANE('',#78);
#64=FACE_BOUND('',#79,.T.);
#65=PLANE('',#80);
#66=FACE_BOUND('',#81,.T.);
#67=CYLINDRICAL_SURFACE('',#82,2.50000000000001);
#68=FACE_BOUND('',#83,.T.);
#69=PLANE('',#84);
#70=FACE_BOUND('',#85,.T.);
#71=CYLINDRICAL_SURFACE('',#86,20.0);
#72=FACE_BOUND('',#87,.T.);
#73=CYLINDRICAL_SURFACE('',#88,20.0);
#74=FILL_AREA_STYLE('',(#89));
#75=EDGE_LOOP('',(#90,#91,#92,#93));
#76=AXIS2_PLACEMENT_3D('',#94,#95,#96);
#77=EDGE_LOOP('',(#97,#98,#99,#100));
#78=AXIS2_PLACEMENT_3D('',#101,#102,#103);
#79=EDGE_LOOP('',(#104,#105,#106,#107));
#80=AXIS2_PLACEMENT_3D('',#108,#109,#110);
#81=EDGE_LOOP('',(#111,#112,#113,#114));
#82=AXIS2_PLACEMENT_3D('',#115,#116,#117);
#83=EDGE_LOOP('',(#118,#119,#120,#121));
#84=AXIS2_PLACEMENT_3D('',#122,#123,#124);
#85=EDGE_LOOP('',(#125,#126,#127,#128,#129));
#86=AXIS2_PLACEMENT_3D('',#130,#131,#132);
#87=EDGE_LOOP('',(#133,#134,#135,#136,#137));
#88=AXIS2_PLACEMENT_3D('',#138,#139,#140);
#89=FILL_AREA_STYLE_COLOUR('',#141);
#90=ORIENTED_EDGE('',*,*,#142,.T.);
#91=ORIENTED_EDGE('',*,*,#143,.T.);
#92=ORIENTED_EDGE('',*,*,#144,.T.);
#93=ORIENTED_EDGE('',*,*,#145,.T.);
#94=CARTESIAN_POINT('',(-6.93889390390723E-15,-30.0,50.0));
#95=DIRECTION('',(0.0,-1.0,0.0));
#96=DIRECTION('',(0.0,0.0,1.0));
#97=ORIENTED_EDGE('',*,*,#146,.T.);
#98=ORIENTED_EDGE('',*,*,#147,.T.);
#99=ORIENTED_EDGE('',*,*,#148,.T.);
#100=ORIENTED_EDGE('',*,*,#149,.T.);
#101=CARTESIAN_POINT('',(12.5,-30.0,3.05311331771918E-15));
#102=DIRECTION('',(1.22124532708767E-16,0.0,-1.0));
#103=DIRECTION('',(0.0,-1.0,0.0));
#104=ORIENTED_EDGE('',*,*,#150,.T.);
#105=ORIENTED_EDGE('',*,*,#149,.F.);
#106=ORIENTED_EDGE('',*,*,#151,.T.);
#107=ORIENTED_EDGE('',*,*,#152,.T.);
#108=CARTESIAN_POINT('',(-12.5,-30.0,0.0));
#109=DIRECTION('',(-0.980765189739953,0.0,0.195191297434988));
#110=DIRECTION('',(0.0,1.0,0.0));
#111=ORIENTED_EDGE('',*,*,#142,.F.);
#112=ORIENTED_EDGE('',*,*,#153,.T.);
#113=ORIENTED_EDGE('',*,*,#152,.F.);
#114=ORIENTED_EDGE('',*,*,#154,.T.);
#115=CARTESIAN_POINT('',(-6.93889390390723E-15,-30.0,50.0));
#116=DIRECTION('',(0.0,-1.0,0.0));
#117=DIRECTION('',(0.0,0.0,1.0));
#118=ORIENTED_EDGE('',*,*,#155,.T.);
#119=ORIENTED_EDGE('',*,*,#147,.F.);
#120=ORIENTED_EDGE('',*,*,#156,.T.);
#121=ORIENTED_EDGE('',*,*,#144,.F.);
#122=CARTESIAN_POINT('',(2.45191297434989,-30.0,50.4879782435875));
#123=DIRECTION('',(0.980765189739953,0.0,0.195191297434988));
#124=DIRECTION('',(0.0,-1.0,0.0));
#125=ORIENTED_EDGE('',*,*,#150,.F.);
#126=ORIENTED_EDGE('',*,*,#153,.F.);
#127=ORIENTED_EDGE('',*,*,#145,.F.);
#128=ORIENTED_EDGE('',*,*,#156,.F.);
#129=ORIENTED_EDGE('',*,*,#146,.F.);
#130=CARTESIAN_POINT('',(0.0,0.0,70.0));
#131=DIRECTION('',(0.0,0.0,1.0));
#132=DIRECTION('',(-1.0,0.0,0.0));
#133=ORIENTED_EDGE('',*,*,#151,.F.);
#134=ORIENTED_EDGE('',*,*,#148,.F.);
#135=ORIENTED_EDGE('',*,*,#155,.F.);
#136=ORIENTED_EDGE('',*,*,#143,.F.);
#137=ORIENTED_EDGE('',*,*,#154,.F.);
#138=CARTESIAN_POINT('',(0.0,0.0,70.0));
#139=DIRECTION('',(0.0,0.0,1.0));
#140=DIRECTION('',(-1.0,0.0,0.0));
#141=COLOUR_RGB('',0.61176472902298,0.658823549747467,0.670588254928589);
#142=EDGE_CURVE('',#157,#158,#159,.F.);
#143=EDGE_CURVE('',#158,#160,#161,.F.);
#144=EDGE_CURVE('',#160,#162,#163,.T.);
#145=EDGE_CURVE('',#162,#157,#164,.F.);
#146=EDGE_CURVE('',#165,#166,#167,.F.);
#147=EDGE_CURVE('',#166,#168,#169,.F.);
#148=EDGE_CURVE('',#168,#170,#171,.F.);
#149=EDGE_CURVE('',#170,#165,#172,.T.);
#150=EDGE_CURVE('',#173,#165,#174,.F.);
#151=EDGE_CURVE('',#170,#175,#176,.F.);
#152=EDGE_CURVE('',#175,#173,#177,.T.);
#153=EDGE_CURVE('',#157,#173,#178,.F.);
#154=EDGE_CURVE('',#175,#158,#179,.F.);
#155=EDGE_CURVE('',#160,#168,#180,.F.);
#156=EDGE_CURVE('',#166,#162,#181,.F.);
#157=VERTEX_POINT('',#182);
#158=VERTEX_POINT('',#183);
#159=LINE('',#184,#185);
#160=VERTEX_POINT('',#186);
#161=B_SPLINE_CURVE_WITH_KNOTS('',3,(#187,#188,#189,#190,#191,#192,#193,#194,#195,#196,#197,#198,#199,#200,#201,#202,#203,#204,#205,#206,#207,#208,#209,#210,#211,#212,#213,#214),.UNSPECIFIED.,.F.,.F.,(4,3,3,3,3,3,3,3,3,4),(0.0,0.122561854408688,0.245083937164477,0.368128324173265,0.490919382999056,0.612842655662563,0.734631699931701,0.857218197175003,0.980312507067795,1.0),.UNSPECIFIED.);
#162=VERTEX_POINT('',#215);
#163=LINE('',#216,#217);
#164=B_SPLINE_CURVE_WITH_KNOTS('',3,(#218,#219,#220,#221,#222,#223,#224,#225,#226,#227,#228,#229,#230,#231,#232,#233,#234,#235,#236,#237,#238,#239,#240,#241,#242,#243,#244,#245),.UNSPECIFIED.,.F.,.F.,(4,3,3,3,3,3,3,3,3,4),(0.0,0.122561854408687,0.245083937164476,0.368128324173263,0.490919382999054,0.612842655662562,0.7346316999317,0.857218197175001,0.980312507067794,1.0),.UNSPECIFIED.);
#165=VERTEX_POINT('',#246);
#166=VERTEX_POINT('',#247);
#167=CIRCLE('',#248,20.0);
#168=VERTEX_POINT('',#249);
#169=LINE('',#250,#251);
#170=VERTEX_POINT('',#252);
#171=CIRCLE('',#253,20.0);
#172=LINE('',#254,#255);
#173=VERTEX_POINT('',#256);
#174=ELLIPSE('',#257,102.463584508225,20.0);
#175=VERTEX_POINT('',#258);
#176=ELLIPSE('',#259,102.463584508225,20.0);
#177=LINE('',#260,#261);
#178=B_SPLINE_CURVE_WITH_KNOTS('',3,(#262,#263,#264,#265,#266,#267,#268,#269,#270,#271,#272,#273,#274,#275,#276,#277,#278,#279,#280,#281,#282,#283,#284,#285,#286,#287,#288,#289),.UNSPECIFIED.,.F.,.F.,(4,3,3,3,3,3,3,3,3,4),(0.0,0.122561854408687,0.245083937164476,0.368128324173263,0.490919382999054,0.612842655662562,0.7346316999317,0.857218197175001,0.980312507067794,1.0),.UNSPECIFIED.);
#179=B_SPLINE_CURVE_WITH_KNOTS('',3,(#290,#291,#292,#293,#294,#295,#296,#297,#298,#299,#300,#301,#302,#303,#304,#305,#306,#307,#308,#309,#310,#311,#312,#313,#314,#315,#316,#317),.UNSPECIFIED.,.F.,.F.,(4,3,3,3,3,3,3,3,3,4),(0.0,0.122561854408688,0.245083937164477,0.368128324173265,0.490919382999056,0.612842655662563,0.734631699931701,0.857218197175003,0.980312507067795,1.0),.UNSPECIFIED.);
#180=ELLIPSE('',#318,102.463584508225,20.0);
#181=ELLIPSE('',#319,102.463584508225,20.0);
#182=CARTESIAN_POINT('',(-6.93012968715432E-15,20.0,52.5));
#183=CARTESIAN_POINT('',(-6.4003909863869E-15,-20.0,52.5));
#184=CARTESIAN_POINT('',(-6.63273220412039E-15,0.0,52.5));
#185=VECTOR('',#320,1.0);
#186=CARTESIAN_POINT('',(2.45191297434988,-19.8491340558276,50.4879782435875));
#187=CARTESIAN_POINT('',(2.45191297434988,-19.8491340558276,50.4879782435875));
#188=CARTESIAN_POINT('',(2.3973425937905,-19.8558749959478,50.7621745338259));
#189=CARTESIAN_POINT('',(2.29474665808312,-19.8684304445843,51.0305864831262));
#190=CARTESIAN_POINT('',(2.15278078977345,-19.8838008155177,51.2710369275447));
#191=CARTESIAN_POINT('',(2.01084316797438,-19.8991681282559,51.5114395302806));
#192=CARTESIAN_POINT('',(1.82566947485846,-19.9176482404702,51.7305517235677));
#193=CARTESIAN_POINT('',(1.61240225346295,-19.934898017623,51.9105389221441));
#194=CARTESIAN_POINT('',(1.39826146374418,-19.9522184519485,52.0912633700467));
#195=CARTESIAN_POINT('',(1.14983859263333,-19.9686446824912,52.2375328167692));
#196=CARTESIAN_POINT('',(0.887610564792691,-19.9802939789501,52.3371237633614));
#197=CARTESIAN_POINT('',(0.625942984790515,-19.9919183779063,52.4365018588284));
#198=CARTESIAN_POINT('',(0.343239770029969,-19.9990154103257,52.4921209305272));
#199=CARTESIAN_POINT('',(0.063185954942421,-19.9999001881284,52.4992013794607));
#200=CARTESIAN_POINT('',(-0.214940857452226,-20.0007788779254,52.5062331090286));
#201=CARTESIAN_POINT('',(-0.49811983876834,-19.995551577893,52.4655991597436));
#202=CARTESIAN_POINT('',(-0.762891678598004,-19.9854446106842,52.3807554025405));
#203=CARTESIAN_POINT('',(-1.02741394540132,-19.975347170268,52.2959916187714));
#204=CARTESIAN_POINT('',(-1.28082054520471,-19.9601841153681,52.1648275916715));
#205=CARTESIAN_POINT('',(-1.5025683120827,-19.9434773414148,51.9980711868012));
#206=CARTESIAN_POINT('',(-1.72574372996233,-19.9266630063216,51.8302411749593));
#207=CARTESIAN_POINT('',(-1.92299899554946,-19.9079490255178,51.6217486675079));
#208=CARTESIAN_POINT('',(-2.07822951787064,-19.8917309973529,51.389590612753));
#209=CARTESIAN_POINT('',(-2.23406972685889,-19.8754492709193,51.1565207291354));
#210=CARTESIAN_POINT('',(-2.35184542414939,-19.8613635133109,50.8930977278536));
#211=CARTESIAN_POINT('',(-2.42159584748702,-19.8528555515682,50.6211872112606));
#212=CARTESIAN_POINT('',(-2.43291001172283,-19.8514754814287,50.5770808088193));
#213=CARTESIAN_POINT('',(-2.44302355067811,-19.8502321436925,50.5326443604109));
#214=CARTESIAN_POINT('',(-2.4519129743499,-19.8491340558276,50.4879782435875));
#215=CARTESIAN_POINT('',(2.45191297434988,19.8491340558276,50.4879782435875));
#216=CARTESIAN_POINT('',(2.45191297434988,-30.0,50.4879782435875));
#217=VECTOR('',#321,1.0);
#218=CARTESIAN_POINT('',(-2.4519129743499,19.8491340558276,50.4879782435875));
#219=CARTESIAN_POINT('',(-2.39734259379051,19.8558749959478,50.7621745338259));
#220=CARTESIAN_POINT('',(-2.29474665808313,19.8684304445843,51.0305864831262));
#221=CARTESIAN_POINT('',(-2.15278078977347,19.8838008155177,51.2710369275447));
#222=CARTESIAN_POINT('',(-2.01084316797439,19.8991681282559,51.5114395302806));
#223=CARTESIAN_POINT('',(-1.82566947485847,19.9176482404701,51.7305517235677));
#224=CARTESIAN_POINT('',(-1.61240225346297,19.934898017623,51.9105389221441));
#225=CARTESIAN_POINT('',(-1.3982614637442,19.9522184519485,52.0912633700467));
#226=CARTESIAN_POINT('',(-1.14983859263335,19.9686446824912,52.2375328167692));
#227=CARTESIAN_POINT('',(-0.887610564792705,19.9802939789501,52.3371237633614));
#228=CARTESIAN_POINT('',(-0.62594298479053,19.9919183779063,52.4365018588284));
#229=CARTESIAN_POINT('',(-0.343239770029984,19.9990154103257,52.4921209305272));
#230=CARTESIAN_POINT('',(-0.0631859549424362,19.9999001881284,52.4992013794607));
#231=CARTESIAN_POINT('',(0.214940857452211,20.0007788779254,52.5062331090286));
#232=CARTESIAN_POINT('',(0.498119838768325,19.995551577893,52.4655991597436));
#233=CARTESIAN_POINT('',(0.762891678597989,19.9854446106842,52.3807554025405));
#234=CARTESIAN_POINT('',(1.0274139454013,19.975347170268,52.2959916187714));
#235=CARTESIAN_POINT('',(1.28082054520469,19.9601841153681,52.1648275916715));
#236=CARTESIAN_POINT('',(1.50256831208268,19.9434773414148,51.9980711868012));
#237=CARTESIAN_POINT('',(1.72574372996232,19.9266630063216,51.8302411749593));
#238=CARTESIAN_POINT('',(1.92299899554944,19.9079490255178,51.6217486675079));
#239=CARTESIAN_POINT('',(2.07822951787062,19.8917309973529,51.389590612753));
#240=CARTESIAN_POINT('',(2.23406972685887,19.8754492709193,51.1565207291354));
#241=CARTESIAN_POINT('',(2.35184542414938,19.8613635133109,50.8930977278536));
#242=CARTESIAN_POINT('',(2.42159584748701,19.8528555515682,50.6211872112606));
#243=CARTESIAN_POINT('',(2.43291001172282,19.8514754814287,50.5770808088193));
#244=CARTESIAN_POINT('',(2.4430235506781,19.8502321436925,50.5326443604108));
#245=CARTESIAN_POINT('',(2.45191297434988,19.8491340558276,50.4879782435875));
#246=CARTESIAN_POINT('',(-12.5,15.612494995996,0.0));
#247=CARTESIAN_POINT('',(12.5,15.612494995996,0.0));
#248=AXIS2_PLACEMENT_3D('',#322,#323,#324);
#249=CARTESIAN_POINT('',(12.5,-15.612494995996,1.52655665885959E-15));
#250=CARTESIAN_POINT('',(12.5,-30.0,0.0));
#251=VECTOR('',#325,1.0);
#252=CARTESIAN_POINT('',(-12.5,-15.612494995996,0.0));
#253=AXIS2_PLACEMENT_3D('',#326,#327,#328);
#254=CARTESIAN_POINT('',(-12.5,-30.0,0.0));
#255=VECTOR('',#329,1.0);
#256=CARTESIAN_POINT('',(-2.4519129743499,19.8491340558276,50.4879782435875));
#257=AXIS2_PLACEMENT_3D('',#330,#331,#332);
#258=CARTESIAN_POINT('',(-2.4519129743499,-19.8491340558276,50.4879782435875));
#259=AXIS2_PLACEMENT_3D('',#333,#334,#335);
#260=CARTESIAN_POINT('',(-2.45191297434989,-30.0,50.4879782435875));
#261=VECTOR('',#336,1.0);
#262=CARTESIAN_POINT('',(-2.4519129743499,19.8491340558276,50.4879782435875));
#263=CARTESIAN_POINT('',(-2.39734259379051,19.8558749959478,50.7621745338259));
#264=CARTESIAN_POINT('',(-2.29474665808313,19.8684304445843,51.0305864831262));
#265=CARTESIAN_POINT('',(-2.15278078977347,19.8838008155177,51.2710369275447));
#266=CARTESIAN_POINT('',(-2.01084316797439,19.8991681282559,51.5114395302806));
#267=CARTESIAN_POINT('',(-1.82566947485847,19.9176482404701,51.7305517235677));
#268=CARTESIAN_POINT('',(-1.61240225346297,19.934898017623,51.9105389221441));
#269=CARTESIAN_POINT('',(-1.3982614637442,19.9522184519485,52.0912633700467));
#270=CARTESIAN_POINT('',(-1.14983859263335,19.9686446824912,52.2375328167692));
#271=CARTESIAN_POINT('',(-0.887610564792705,19.9802939789501,52.3371237633614));
#272=CARTESIAN_POINT('',(-0.62594298479053,19.9919183779063,52.4365018588284));
#273=CARTESIAN_POINT('',(-0.343239770029984,19.9990154103257,52.4921209305272));
#274=CARTESIAN_POINT('',(-0.0631859549424362,19.9999001881284,52.4992013794607));
#275=CARTESIAN_POINT('',(0.214940857452211,20.0007788779254,52.5062331090286));
#276=CARTESIAN_POINT('',(0.498119838768325,19.995551577893,52.4655991597436));
#277=CARTESIAN_POINT('',(0.762891678597989,19.9854446106842,52.3807554025405));
#278=CARTESIAN_POINT('',(1.0274139454013,19.975347170268,52.2959916187714));
#279=CARTESIAN_POINT('',(1.28082054520469,19.9601841153681,52.1648275916715));
#280=CARTESIAN_POINT('',(1.50256831208268,19.9434773414148,51.9980711868012));
#281=CARTESIAN_POINT('',(1.72574372996232,19.9266630063216,51.8302411749593));
#282=CARTESIAN_POINT('',(1.92299899554944,19.9079490255178,51.6217486675079));
#283=CARTESIAN_POINT('',(2.07822951787062,19.8917309973529,51.389590612753));
#284=CARTESIAN_POINT('',(2.23406972685887,19.8754492709193,51.1565207291354));
#285=CARTESIAN_POINT('',(2.35184542414938,19.8613635133109,50.8930977278536));
#286=CARTESIAN_POINT('',(2.42159584748701,19.8528555515682,50.6211872112606));
#287=CARTESIAN_POINT('',(2.43291001172282,19.8514754814287,50.5770808088193));
#288=CARTESIAN_POINT('',(2.4430235506781,19.8502321436925,50.5326443604108));
#289=CARTESIAN_POINT('',(2.45191297434988,19.8491340558276,50.4879782435875));
#290=CARTESIAN_POINT('',(2.45191297434988,-19.8491340558276,50.4879782435875));
#291=CARTESIAN_POINT('',(2.3973425937905,-19.8558749959478,50.7621745338259));
#292=CARTESIAN_POINT('',(2.29474665808312,-19.8684304445843,51.0305864831262));
#293=CARTESIAN_POINT('',(2.15278078977345,-19.8838008155177,51.2710369275447));
#294=CARTESIAN_POINT('',(2.01084316797438,-19.8991681282559,51.5114395302806));
#295=CARTESIAN_POINT('',(1.82566947485846,-19.9176482404702,51.7305517235677));
#296=CARTESIAN_POINT('',(1.61240225346295,-19.934898017623,51.9105389221441));
#297=CARTESIAN_POINT('',(1.39826146374418,-19.9522184519485,52.0912633700467));
#298=CARTESIAN_POINT('',(1.14983859263333,-19.9686446824912,52.2375328167692));
#299=CARTESIAN_POINT('',(0.887610564792691,-19.9802939789501,52.3371237633614));
#300=CARTESIAN_POINT('',(0.625942984790515,-19.9919183779063,52.4365018588284));
#301=CARTESIAN_POINT('',(0.343239770029969,-19.9990154103257,52.4921209305272));
#302=CARTESIAN_POINT('',(0.063185954942421,-19.9999001881284,52.4992013794607));
#303=CARTESIAN_POINT('',(-0.214940857452226,-20.0007788779254,52.5062331090286));
#304=CARTESIAN_POINT('',(-0.49811983876834,-19.995551577893,52.4655991597436));
#305=CARTESIAN_POINT('',(-0.762891678598004,-19.9854446106842,52.3807554025405));
#306=CARTESIAN_POINT('',(-1.02741394540132,-19.975347170268,52.2959916187714));
#307=CARTESIAN_POINT('',(-1.28082054520471,-19.9601841153681,52.1648275916715));
#308=CARTESIAN_POINT('',(-1.5025683120827,-19.9434773414148,51.9980711868012));
#309=CARTESIAN_POINT('',(-1.72574372996233,-19.9266630063216,51.8302411749593));
#310=CARTESIAN_POINT('',(-1.92299899554946,-19.9079490255178,51.6217486675079));
#311=CARTESIAN_POINT('',(-2.07822951787064,-19.8917309973529,51.389590612753));
#312=CARTESIAN_POINT('',(-2.23406972685889,-19.8754492709193,51.1565207291354));
#313=CARTESIAN_POINT('',(-2.35184542414939,-19.8613635133109,50.8930977278536));
#314=CARTESIAN_POINT('',(-2.42159584748702,-19.8528555515682,50.6211872112606));
#315=CARTESIAN_POINT('',(-2.43291001172283,-19.8514754814287,50.5770808088193));
#316=CARTESIAN_POINT('',(-2.44302355067811,-19.8502321436925,50.5326443604109));
#317=CARTESIAN_POINT('',(-2.4519129743499,-19.8491340558276,50.4879782435875));
#318=AXIS2_PLACEMENT_3D('',#337,#338,#339);
#319=AXIS2_PLACEMENT_3D('',#340,#341,#342);
#320=DIRECTION('',(-0.0,1.0,-0.0));
#321=DIRECTION('',(0.0,1.0,0.0));
#322=CARTESIAN_POINT('',(0.0,0.0,0.0));
#323=DIRECTION('',(0.0,0.0,1.0));
#324=DIRECTION('',(1.0,0.0,0.0));
#325=DIRECTION('',(0.0,1.0,0.0));
#326=CARTESIAN_POINT('',(0.0,0.0,0.0));
#327=DIRECTION('',(0.0,0.0,1.0));
#328=DIRECTION('',(1.0,0.0,0.0));
#329=DIRECTION('',(0.0,1.0,0.0));
#330=CARTESIAN_POINT('',(0.0,0.0,62.8079480635282));
#331=DIRECTION('',(0.980765189739953,0.0,-0.195191297434988));
#332=DIRECTION('',(-0.195191297434988,0.0,-0.980765189739953));
#333=CARTESIAN_POINT('',(0.0,0.0,62.8079480635282));
#334=DIRECTION('',(0.980765189739953,0.0,-0.195191297434988));
#335=DIRECTION('',(-0.195191297434988,0.0,-0.980765189739953));
#336=DIRECTION('',(0.0,1.0,0.0));
#337=CARTESIAN_POINT('',(0.0,0.0,62.8079480635282));
#338=DIRECTION('',(-0.980765189739953,0.0,-0.195191297434988));
#339=DIRECTION('',(0.195191297434988,0.0,-0.980765189739953));
#340=CARTESIAN_POINT('',(0.0,0.0,62.8079480635282));
#341=DIRECTION('',(-0.980765189739953,0.0,-0.195191297434988));
#342=DIRECTION('',(0.195191297434988,0.0,-0.980765189739953));
ENDSEC;
END-ISO-10303-21;
