ISO-10303-21;
HEADER;
FILE_DESCRIPTION(('STEP AP214'),'1');
FILE_NAME('PUNCH_23.step','2026-05-08T22:48:46',(' '),(' '),'Spatial InterOp 3D',' ',' ');
FILE_SCHEMA(('AUTOMOTIVE_DESIGN { 1 0 10303 214 1 1 1 1 }'));
ENDSEC;
DATA;
#1=MECHANICAL_DESIGN_GEOMETRIC_PRESENTATION_REPRESENTATION(' ',(#10),#6);
#2=PRODUCT_DEFINITION_CONTEXT('',#11,'design');
#3=APPLICATION_PROTOCOL_DEFINITION('INTERNATIONAL STANDARD','automotive_design',1994,#11);
#4=PRODUCT_CATEGORY_RELATIONSHIP('NONE','NONE',#12,#13);
#5=SHAPE_DEFINITION_REPRESENTATION(#14,#15);
#6= (GEOMETRIC_REPRESENTATION_CONTEXT(3)GLOBAL_UNCERTAINTY_ASSIGNED_CONTEXT((#18))GLOBAL_UNIT_ASSIGNED_CONTEXT((#20,#21,#22))REPRESENTATION_CONTEXT('NONE','WORKSPACE'));
#10=STYLED_ITEM('',(#24),#25);
#11=APPLICATION_CONTEXT(' ');
#12=PRODUCT_CATEGORY('part','NONE');
#13=PRODUCT_RELATED_PRODUCT_CATEGORY('detail',' ',(#26));
#14=PRODUCT_DEFINITION_SHAPE('NONE','NONE',#27);
#15=MANIFOLD_SURFACE_SHAPE_REPRESENTATION('1',(#25,#28),#6);
#18=UNCERTAINTY_MEASURE_WITH_UNIT(LENGTH_MEASURE(1.0E-06),#20,'','');
#20= (CONVERSION_BASED_UNIT('MILLIMETRE',#31)LENGTH_UNIT()NAMED_UNIT(#34));
#21= (NAMED_UNIT(#36)PLANE_ANGLE_UNIT()SI_UNIT($,.RADIAN.));
#22= (NAMED_UNIT(#36)SOLID_ANGLE_UNIT()SI_UNIT($,.STERADIAN.));
#24=PRESENTATION_STYLE_ASSIGNMENT((#42));
#25=SHELL_BASED_SURFACE_MODEL('1',(#43));
#26=PRODUCT('1','','PART--DESC',(#44));
#27=PRODUCT_DEFINITION('','NONE',#45,#2);
#28=AXIS2_PLACEMENT_3D('',#46,#47,#48);
#31=LENGTH_MEASURE_WITH_UNIT(LENGTH_MEASURE(1.0),#49);
#34=DIMENSIONAL_EXPONENTS(1.0,0.0,0.0,0.0,0.0,0.0,0.0);
#36=DIMENSIONAL_EXPONENTS(0.0,0.0,0.0,0.0,0.0,0.0,0.0);
#42=SURFACE_STYLE_USAGE(.BOTH.,#50);
#43=CLOSED_SHELL('',(#51,#52,#53,#54,#55,#56,#57,#58,#59,#60,#61,#62,#63,#64,#65,#66,#67,#68,#69,#70,#71,#72,#73,#74,#75,#76,#77,#78,#79,#80,#81,#82,#83,#84,#85,#86,#87,#88,#89,#90,#91,#92,#93,#94,#95,#96));
#44=PRODUCT_CONTEXT('',#11,'mechanical');
#45=PRODUCT_DEFINITION_FORMATION_WITH_SPECIFIED_SOURCE(' ','NONE',#26,.NOT_KNOWN.);
#46=CARTESIAN_POINT('',(0.0,0.0,0.0));
#47=DIRECTION('',(0.0,0.0,1.0));
#48=DIRECTION('',(1.0,0.0,0.0));
#49= (NAMED_UNIT(#34)LENGTH_UNIT()SI_UNIT(.MILLI.,.METRE.));
#50=SURFACE_SIDE_STYLE('',(#98));
#51=FACE_SURFACE('',(#99),#100,.T.);
#52=FACE_SURFACE('',(#101),#102,.T.);
#53=FACE_SURFACE('',(#103),#104,.T.);
#54=FACE_SURFACE('',(#105),#106,.T.);
#55=FACE_SURFACE('',(#107),#108,.F.);
#56=FACE_SURFACE('',(#109),#110,.F.);
#57=FACE_SURFACE('',(#111),#112,.F.);
#58=FACE_SURFACE('',(#113),#114,.F.);
#59=FACE_SURFACE('',(#115),#116,.F.);
#60=FACE_SURFACE('',(#117),#118,.F.);
#61=FACE_SURFACE('',(#119),#120,.F.);
#62=FACE_SURFACE('',(#121),#122,.T.);
#63=FACE_SURFACE('',(#123),#124,.T.);
#64=FACE_SURFACE('',(#125),#126,.F.);
#65=FACE_SURFACE('',(#127),#128,.T.);
#66=FACE_SURFACE('',(#129),#130,.T.);
#67=FACE_SURFACE('',(#131),#132,.T.);
#68=FACE_SURFACE('',(#133),#134,.T.);
#69=FACE_SURFACE('',(#135),#136,.T.);
#70=FACE_SURFACE('',(#137),#138,.T.);
#71=FACE_SURFACE('',(#139),#140,.T.);
#72=FACE_SURFACE('',(#141),#142,.T.);
#73=FACE_SURFACE('',(#143),#144,.T.);
#74=FACE_SURFACE('',(#145),#146,.T.);
#75=FACE_SURFACE('',(#147),#148,.T.);
#76=FACE_SURFACE('',(#149),#150,.T.);
#77=FACE_SURFACE('',(#151),#152,.T.);
#78=FACE_SURFACE('',(#153),#154,.F.);
#79=FACE_SURFACE('',(#155),#156,.F.);
#80=FACE_SURFACE('',(#157),#158,.F.);
#81=FACE_SURFACE('',(#159),#160,.F.);
#82=FACE_SURFACE('',(#161),#162,.F.);
#83=FACE_SURFACE('',(#163),#164,.T.);
#84=FACE_SURFACE('',(#165),#166,.F.);
#85=FACE_SURFACE('',(#167),#168,.T.);
#86=FACE_SURFACE('',(#169),#170,.T.);
#87=FACE_SURFACE('',(#171),#172,.T.);
#88=FACE_SURFACE('',(#173),#174,.T.);
#89=FACE_SURFACE('',(#175),#176,.T.);
#90=FACE_SURFACE('',(#177),#178,.T.);
#91=FACE_SURFACE('',(#179),#180,.T.);
#92=FACE_SURFACE('',(#181),#182,.T.);
#93=FACE_SURFACE('',(#183),#184,.T.);
#94=FACE_SURFACE('',(#185),#186,.T.);
#95=FACE_SURFACE('',(#187),#188,.T.);
#96=FACE_SURFACE('',(#189),#190,.T.);
#98=SURFACE_STYLE_FILL_AREA(#191);
#99=FACE_BOUND('',#192,.T.);
#100=TOROIDAL_SURFACE('',#193,52.5,2.5);
#101=FACE_BOUND('',#194,.T.);
#102=TOROIDAL_SURFACE('',#195,52.5,2.5);
#103=FACE_BOUND('',#196,.T.);
#104=CYLINDRICAL_SURFACE('',#197,2.5);
#105=FACE_BOUND('',#198,.T.);
#106=CYLINDRICAL_SURFACE('',#199,2.5);
#107=FACE_BOUND('',#200,.T.);
#108=CYLINDRICAL_SURFACE('',#201,50.0);
#109=FACE_BOUND('',#202,.T.);
#110=PLANE('',#203);
#111=FACE_BOUND('',#204,.T.);
#112=PLANE('',#205);
#113=FACE_BOUND('',#206,.T.);
#114=CYLINDRICAL_SURFACE('',#207,50.0);
#115=FACE_BOUND('',#208,.T.);
#116=PLANE('',#209);
#117=FACE_BOUND('',#210,.T.);
#118=PLANE('',#211);
#119=FACE_BOUND('',#212,.T.);
#120=PLANE('',#213);
#121=FACE_BOUND('',#214,.T.);
#122=PLANE('',#215);
#123=FACE_BOUND('',#216,.T.);
#124=PLANE('',#217);
#125=FACE_BOUND('',#218,.T.);
#126=CYLINDRICAL_SURFACE('',#219,50.0);
#127=FACE_BOUND('',#220,.T.);
#128=CYLINDRICAL_SURFACE('',#221,2.5);
#129=FACE_BOUND('',#222,.T.);
#130=TOROIDAL_SURFACE('',#223,52.5,2.5);
#131=FACE_BOUND('',#224,.T.);
#132=CYLINDRICAL_SURFACE('',#225,2.5);
#133=FACE_BOUND('',#226,.T.);
#134=(B_SPLINE_SURFACE(3,2,((#228,#229,#230),(#231,#232,#233),(#234,#235,#236),(#237,#238,#239)),.UNSPECIFIED.,.F.,.F.,.F.)B_SPLINE_SURFACE_WITH_KNOTS((4,4),(3,3),(0.0,1.0),(0.0,1.0),.UNSPECIFIED.)RATIONAL_B_SPLINE_SURFACE(((1.0,0.707106781186548,1.0),(1.0,0.707659125313582,1.0),(1.0,0.709393827077741,1.0),(1.0,0.712235260648134,1.0)))BOUNDED_SURFACE()REPRESENTATION_ITEM('')GEOMETRIC_REPRESENTATION_ITEM()SURFACE());
#135=FACE_BOUND('',#246,.T.);
#136=(B_SPLINE_SURFACE(3,2,((#248,#249,#250),(#251,#252,#253),(#254,#255,#256),(#257,#258,#259)),.UNSPECIFIED.,.F.,.F.,.F.)B_SPLINE_SURFACE_WITH_KNOTS((4,4),(3,3),(0.0,1.0),(0.0,1.0),.UNSPECIFIED.)RATIONAL_B_SPLINE_SURFACE(((1.0,0.712235260648134,1.0),(1.0,0.712817568055142,1.0),(1.0,0.713396982795977,1.0),(1.0,0.713972788279174,1.0)))BOUNDED_SURFACE()REPRESENTATION_ITEM('')GEOMETRIC_REPRESENTATION_ITEM()SURFACE());
#137=FACE_BOUND('',#266,.T.);
#138=(B_SPLINE_SURFACE(3,2,((#268,#269,#270),(#271,#272,#273),(#274,#275,#276),(#277,#278,#279)),.UNSPECIFIED.,.F.,.F.,.F.)B_SPLINE_SURFACE_WITH_KNOTS((4,4),(3,3),(0.0,1.0),(0.0,1.0),.UNSPECIFIED.)RATIONAL_B_SPLINE_SURFACE(((1.0,0.712235260648134,1.0),(1.0,0.70939382707774,1.0),(1.0,0.707659125313582,1.0),(1.0,0.707106781186548,1.0)))BOUNDED_SURFACE()REPRESENTATION_ITEM('')GEOMETRIC_REPRESENTATION_ITEM()SURFACE());
#139=FACE_BOUND('',#286,.T.);
#140=CYLINDRICAL_SURFACE('',#287,2.5);
#141=FACE_BOUND('',#288,.T.);
#142=(B_SPLINE_SURFACE(3,2,((#290,#291,#292),(#293,#294,#295),(#296,#297,#298),(#299,#300,#301)),.UNSPECIFIED.,.F.,.F.,.F.)B_SPLINE_SURFACE_WITH_KNOTS((4,4),(3,3),(0.0,1.0),(0.0,1.0),.UNSPECIFIED.)RATIONAL_B_SPLINE_SURFACE(((1.0,0.713972788279173,1.0),(1.0,0.713396982795977,1.0),(1.0,0.712817568055144,1.0),(1.0,0.712235260648133,1.0)))BOUNDED_SURFACE()REPRESENTATION_ITEM('')GEOMETRIC_REPRESENTATION_ITEM()SURFACE());
#143=FACE_BOUND('',#308,.T.);
#144=CYLINDRICAL_SURFACE('',#309,2.5);
#145=FACE_BOUND('',#310,.T.);
#146=SPHERICAL_SURFACE('',#311,2.5);
#147=FACE_BOUND('',#312,.T.);
#148=CYLINDRICAL_SURFACE('',#313,2.5);
#149=FACE_BOUND('',#314,.T.);
#150=SPHERICAL_SURFACE('',#315,2.5);
#151=FACE_BOUND('',#316,.T.);
#152=CYLINDRICAL_SURFACE('',#317,2.5);
#153=FACE_BOUND('',#318,.T.);
#154=CYLINDRICAL_SURFACE('',#319,50.0);
#155=FACE_BOUND('',#320,.T.);
#156=CYLINDRICAL_SURFACE('',#321,50.0);
#157=FACE_BOUND('',#322,.T.);
#158=PLANE('',#323);
#159=FACE_BOUND('',#324,.T.);
#160=PLANE('',#325);
#161=FACE_BOUND('',#326,.T.);
#162=PLANE('',#327);
#163=FACE_BOUND('',#328,.T.);
#164=PLANE('',#329);
#165=FACE_BOUND('',#330,.T.);
#166=CYLINDRICAL_SURFACE('',#331,50.0);
#167=FACE_BOUND('',#332,.T.);
#168=TOROIDAL_SURFACE('',#333,52.5,2.5);
#169=FACE_BOUND('',#334,.T.);
#170=CYLINDRICAL_SURFACE('',#335,2.5);
#171=FACE_BOUND('',#336,.T.);
#172=(B_SPLINE_SURFACE(3,2,((#338,#339,#340),(#341,#342,#343),(#344,#345,#346),(#347,#348,#349)),.UNSPECIFIED.,.F.,.F.,.F.)B_SPLINE_SURFACE_WITH_KNOTS((4,4),(3,3),(0.0,1.0),(0.0,1.0),.UNSPECIFIED.)RATIONAL_B_SPLINE_SURFACE(((1.0,0.707106781186548,1.0),(1.0,0.707659125313582,1.0),(1.0,0.709393827077741,1.0),(1.0,0.712235260648134,1.0)))BOUNDED_SURFACE()REPRESENTATION_ITEM('')GEOMETRIC_REPRESENTATION_ITEM()SURFACE());
#173=FACE_BOUND('',#356,.T.);
#174=(B_SPLINE_SURFACE(3,2,((#358,#359,#360),(#361,#362,#363),(#364,#365,#366),(#367,#368,#369)),.UNSPECIFIED.,.F.,.F.,.F.)B_SPLINE_SURFACE_WITH_KNOTS((4,4),(3,3),(0.0,1.0),(0.0,1.0),.UNSPECIFIED.)RATIONAL_B_SPLINE_SURFACE(((1.0,0.712235260648134,1.0),(1.0,0.712817568055143,1.0),(1.0,0.713396982795977,1.0),(1.0,0.713972788279173,1.0)))BOUNDED_SURFACE()REPRESENTATION_ITEM('')GEOMETRIC_REPRESENTATION_ITEM()SURFACE());
#175=FACE_BOUND('',#376,.T.);
#176=(B_SPLINE_SURFACE(3,2,((#378,#379,#380),(#381,#382,#383),(#384,#385,#386),(#387,#388,#389)),.UNSPECIFIED.,.F.,.F.,.F.)B_SPLINE_SURFACE_WITH_KNOTS((4,4),(3,3),(0.0,1.0),(0.0,1.0),.UNSPECIFIED.)RATIONAL_B_SPLINE_SURFACE(((1.0,0.712235260648134,1.0),(1.0,0.70939382707774,1.0),(1.0,0.707659125313583,1.0),(1.0,0.707106781186548,1.0)))BOUNDED_SURFACE()REPRESENTATION_ITEM('')GEOMETRIC_REPRESENTATION_ITEM()SURFACE());
#177=FACE_BOUND('',#396,.T.);
#178=CYLINDRICAL_SURFACE('',#397,2.5);
#179=FACE_BOUND('',#398,.T.);
#180=(B_SPLINE_SURFACE(3,2,((#400,#401,#402),(#403,#404,#405),(#406,#407,#408),(#409,#410,#411)),.UNSPECIFIED.,.F.,.F.,.F.)B_SPLINE_SURFACE_WITH_KNOTS((4,4),(3,3),(0.0,1.0),(0.0,1.0),.UNSPECIFIED.)RATIONAL_B_SPLINE_SURFACE(((1.0,0.713972788279173,1.0),(1.0,0.713396982795976,1.0),(1.0,0.712817568055143,1.0),(1.0,0.712235260648134,1.0)))BOUNDED_SURFACE()REPRESENTATION_ITEM('')GEOMETRIC_REPRESENTATION_ITEM()SURFACE());
#181=FACE_BOUND('',#418,.T.);
#182=CYLINDRICAL_SURFACE('',#419,2.5);
#183=FACE_BOUND('',#420,.T.);
#184=SPHERICAL_SURFACE('',#421,2.5);
#185=FACE_BOUND('',#422,.T.);
#186=CYLINDRICAL_SURFACE('',#423,2.5);
#187=FACE_BOUND('',#424,.T.);
#188=SPHERICAL_SURFACE('',#425,2.5);
#189=FACE_BOUND('',#426,.T.);
#190=CYLINDRICAL_SURFACE('',#427,2.5);
#191=FILL_AREA_STYLE('',(#428));
#192=EDGE_LOOP('',(#429,#430,#431,#432));
#193=AXIS2_PLACEMENT_3D('',#433,#434,#435);
#194=EDGE_LOOP('',(#436,#437,#438,#439));
#195=AXIS2_PLACEMENT_3D('',#440,#441,#442);
#196=EDGE_LOOP('',(#443,#444,#445,#446));
#197=AXIS2_PLACEMENT_3D('',#447,#448,#449);
#198=EDGE_LOOP('',(#450,#451,#452,#453));
#199=AXIS2_PLACEMENT_3D('',#454,#455,#456);
#200=EDGE_LOOP('',(#457,#458,#459,#460));
#201=AXIS2_PLACEMENT_3D('',#461,#462,#463);
#202=EDGE_LOOP('',(#464,#465,#466,#467,#468,#469));
#203=AXIS2_PLACEMENT_3D('',#470,#471,#472);
#204=EDGE_LOOP('',(#473,#474,#475,#476,#477,#478));
#205=AXIS2_PLACEMENT_3D('',#479,#480,#481);
#206=EDGE_LOOP('',(#482,#483,#484,#485));
#207=AXIS2_PLACEMENT_3D('',#486,#487,#488);
#208=EDGE_LOOP('',(#489,#490,#491,#492));
#209=AXIS2_PLACEMENT_3D('',#493,#494,#495);
#210=EDGE_LOOP('',(#496,#497,#498,#499,#500));
#211=AXIS2_PLACEMENT_3D('',#501,#502,#503);
#212=EDGE_LOOP('',(#504,#505,#506,#507,#508));
#213=AXIS2_PLACEMENT_3D('',#509,#510,#511);
#214=EDGE_LOOP('',(#512,#513,#514,#515,#516,#517,#518,#519,#520,#521,#522,#523,#524,#525,#526,#527));
#215=AXIS2_PLACEMENT_3D('',#528,#529,#530);
#216=EDGE_LOOP('',(#531,#532,#533,#534));
#217=AXIS2_PLACEMENT_3D('',#535,#536,#537);
#218=EDGE_LOOP('',(#538,#539,#540,#541,#542));
#219=AXIS2_PLACEMENT_3D('',#543,#544,#545);
#220=EDGE_LOOP('',(#546,#547,#548,#549,#550,#551));
#221=AXIS2_PLACEMENT_3D('',#552,#553,#554);
#222=EDGE_LOOP('',(#555,#556,#557,#558));
#223=AXIS2_PLACEMENT_3D('',#559,#560,#561);
#224=EDGE_LOOP('',(#562,#563,#564,#565));
#225=AXIS2_PLACEMENT_3D('',#566,#567,#568);
#226=EDGE_LOOP('',(#569,#570,#571,#572));
#228=CARTESIAN_POINT('',(7.50621894395537,-2.49999999999998,25.5575344345656));
#229=CARTESIAN_POINT('',(7.38920967616515,-2.49999999999998,28.0547946995862));
#230=CARTESIAN_POINT('',(7.38920967616515,1.64656288020744E-14,28.0547946995862));
#231=CARTESIAN_POINT('',(9.17675108717578,-2.49999999999998,25.63972095434));
#232=CARTESIAN_POINT('',(8.97512982817337,-2.49609376925655,28.129103076019));
#233=CARTESIAN_POINT('',(9.05974159665909,-7.46974872251915E-11,28.1330675650841));
#234=CARTESIAN_POINT('',(10.8351314650485,-2.58351314650485,25.8092873302749));
#235=CARTESIAN_POINT('',(10.5470032945758,-2.56667763794176,28.277444571371));
#236=CARTESIAN_POINT('',(10.718122001791,-0.0876887832814432,28.2945593332676));
#237=CARTESIAN_POINT('',(12.4814048950053,-2.74814048950052,26.0649435326797));
#238=CARTESIAN_POINT('',(12.1244543343505,-2.71244543343504,28.5025543964862));
#239=CARTESIAN_POINT('',(12.3643956272151,-0.260547513975548,28.538041459695));
#246=EDGE_LOOP('',(#573,#574,#575,#576));
#248=CARTESIAN_POINT('',(12.4814048950053,-2.7481404895005,26.0649435326797));
#249=CARTESIAN_POINT('',(12.1244543343505,-2.71244543343502,28.5025543964862));
#250=CARTESIAN_POINT('',(12.3643956272151,-0.260547513975528,28.538041459695));
#251=CARTESIAN_POINT('',(13.3567023762488,-2.83567023762485,26.1943991035603));
#252=CARTESIAN_POINT('',(12.9589771872315,-2.79589771872517,28.6218504654797));
#253=CARTESIAN_POINT('',(13.1980122760208,-0.348077262100293,28.6613324795728));
#254=CARTESIAN_POINT('',(14.2287258394796,-2.92287258394794,26.3459872706106));
#255=CARTESIAN_POINT('',(13.7912688660882,-2.87912688661397,28.7623693573415));
#256=CARTESIAN_POINT('',(14.0285108127498,-0.435279608456939,28.8057021625499));
#257=CARTESIAN_POINT('',(15.096362117563,-3.00963621175628,26.5195145262267));
#258=CARTESIAN_POINT('',(14.6202177561752,-2.96202177561749,28.924043551235));
#259=CARTESIAN_POINT('',(14.85483107727,-0.522043236231305,28.970966215454));
#266=EDGE_LOOP('',(#577,#578,#579,#580));
#268=CARTESIAN_POINT('',(12.4814048950053,2.74814048950053,26.0649435326797));
#269=CARTESIAN_POINT('',(12.1244543343505,2.71244543343505,28.5025543964862));
#270=CARTESIAN_POINT('',(12.3643956272151,0.260547513975555,28.538041459695));
#271=CARTESIAN_POINT('',(10.8351314650435,2.58351314650434,25.8092873302811));
#272=CARTESIAN_POINT('',(10.5470032945661,2.56667763796,28.2774445713771));
#273=CARTESIAN_POINT('',(10.7181220017837,0.0876887832989554,28.2945593332665));
#274=CARTESIAN_POINT('',(9.17675108717838,2.49999999999998,25.6397209543583));
#275=CARTESIAN_POINT('',(8.97512982817993,2.49609376927213,28.1291030760286));
#276=CARTESIAN_POINT('',(9.05974159666452,9.31511889026306E-11,28.1330675650844));
#277=CARTESIAN_POINT('',(7.50621894395526,2.49999999999998,25.5575344345656));
#278=CARTESIAN_POINT('',(7.38920967616505,2.49999999999998,28.0547946995862));
#279=CARTESIAN_POINT('',(7.38920967616505,-1.88586295660802E-14,28.0547946995862));
#286=EDGE_LOOP('',(#581,#582,#583,#584));
#287=AXIS2_PLACEMENT_3D('',#585,#586,#587);
#288=EDGE_LOOP('',(#588,#589,#590,#591));
#290=CARTESIAN_POINT('',(15.096362117563,3.00963621175632,26.5195145262267));
#291=CARTESIAN_POINT('',(14.6202177561752,2.96202177561754,28.924043551235));
#292=CARTESIAN_POINT('',(14.85483107727,0.522043236231344,28.970966215454));
#293=CARTESIAN_POINT('',(14.2287258394799,2.92287258394801,26.3459872706103));
#294=CARTESIAN_POINT('',(13.7912688660886,2.87912688661185,28.76236935734));
#295=CARTESIAN_POINT('',(14.0285108127499,0.435279608456439,28.80570216255));
#296=CARTESIAN_POINT('',(13.356702376249,2.83567023762491,26.1943991035575));
#297=CARTESIAN_POINT('',(12.9589771872314,2.79589771872266,28.621850465482));
#298=CARTESIAN_POINT('',(13.1980122760208,0.34807726210027,28.6613324795728));
#299=CARTESIAN_POINT('',(12.4814048950052,2.74814048950053,26.0649435326797));
#300=CARTESIAN_POINT('',(12.1244543343505,2.71244543343506,28.5025543964862));
#301=CARTESIAN_POINT('',(12.364395627215,0.260547513975563,28.538041459695));
#308=EDGE_LOOP('',(#592,#593,#594,#595));
#309=AXIS2_PLACEMENT_3D('',#596,#597,#598);
#310=EDGE_LOOP('',(#599,#600,#601,#602));
#311=AXIS2_PLACEMENT_3D('',#603,#604,#605);
#312=EDGE_LOOP('',(#606,#607,#608,#609));
#313=AXIS2_PLACEMENT_3D('',#610,#611,#612);
#314=EDGE_LOOP('',(#613,#614,#615,#616));
#315=AXIS2_PLACEMENT_3D('',#617,#618,#619);
#316=EDGE_LOOP('',(#620,#621,#622,#623));
#317=AXIS2_PLACEMENT_3D('',#624,#625,#626);
#318=EDGE_LOOP('',(#627,#628,#629,#630));
#319=AXIS2_PLACEMENT_3D('',#631,#632,#633);
#320=EDGE_LOOP('',(#634,#635,#636,#637));
#321=AXIS2_PLACEMENT_3D('',#638,#639,#640);
#322=EDGE_LOOP('',(#641,#642,#643,#644));
#323=AXIS2_PLACEMENT_3D('',#645,#646,#647);
#324=EDGE_LOOP('',(#648,#649,#650,#651,#652));
#325=AXIS2_PLACEMENT_3D('',#653,#654,#655);
#326=EDGE_LOOP('',(#656,#657,#658,#659,#660));
#327=AXIS2_PLACEMENT_3D('',#661,#662,#663);
#328=EDGE_LOOP('',(#664,#665,#666,#667));
#329=AXIS2_PLACEMENT_3D('',#668,#669,#670);
#330=EDGE_LOOP('',(#671,#672,#673,#674,#675));
#331=AXIS2_PLACEMENT_3D('',#676,#677,#678);
#332=EDGE_LOOP('',(#679,#680,#681,#682));
#333=AXIS2_PLACEMENT_3D('',#683,#684,#685);
#334=EDGE_LOOP('',(#686,#687,#688,#689));
#335=AXIS2_PLACEMENT_3D('',#690,#691,#692);
#336=EDGE_LOOP('',(#693,#694,#695,#696));
#338=CARTESIAN_POINT('',(-7.38920967616515,1.17093834628434E-14,28.0547946995862));
#339=CARTESIAN_POINT('',(-7.38920967616515,-2.49999999999999,28.0547946995862));
#340=CARTESIAN_POINT('',(-7.50621894395537,-2.49999999999999,25.5575344345656));
#341=CARTESIAN_POINT('',(-9.05974159665815,-7.49299537607781E-11,28.1330675650841));
#342=CARTESIAN_POINT('',(-8.97512982817332,-2.49609376925732,28.129103076019));
#343=CARTESIAN_POINT('',(-9.17675108717581,-2.49999999999999,25.6397209543399));
#344=CARTESIAN_POINT('',(-10.7181220017922,-0.0876887832759799,28.2945593332677));
#345=CARTESIAN_POINT('',(-10.5470032945758,-2.56667763794077,28.2774445713713));
#346=CARTESIAN_POINT('',(-10.8351314650485,-2.58351314650485,25.8092873302752));
#347=CARTESIAN_POINT('',(-12.3643956272151,-0.260547513975556,28.538041459695));
#348=CARTESIAN_POINT('',(-12.1244543343505,-2.71244543343505,28.5025543964862));
#349=CARTESIAN_POINT('',(-12.4814048950053,-2.74814048950053,26.0649435326797));
#356=EDGE_LOOP('',(#697,#698,#699,#700));
#358=CARTESIAN_POINT('',(-12.3643956272151,-0.260547513975536,28.538041459695));
#359=CARTESIAN_POINT('',(-12.1244543343505,-2.71244543343503,28.5025543964862));
#360=CARTESIAN_POINT('',(-12.4814048950053,-2.74814048950051,26.0649435326797));
#361=CARTESIAN_POINT('',(-13.1980122760208,-0.348077262100043,28.6613324795728));
#362=CARTESIAN_POINT('',(-12.9589771872316,-2.7958977187214,28.6218504654838));
#363=CARTESIAN_POINT('',(-13.3567023762488,-2.83567023762486,26.19439910356));
#364=CARTESIAN_POINT('',(-14.0285108127498,-0.435279608457045,28.80570216255));
#365=CARTESIAN_POINT('',(-13.7912688660891,-2.87912688660357,28.7623693573408));
#366=CARTESIAN_POINT('',(-14.2287258394797,-2.92287258394796,26.3459872706107));
#367=CARTESIAN_POINT('',(-14.85483107727,-0.522043236231315,28.970966215454));
#368=CARTESIAN_POINT('',(-14.6202177561752,-2.96202177561751,28.924043551235));
#369=CARTESIAN_POINT('',(-15.096362117563,-3.00963621175629,26.5195145262267));
#376=EDGE_LOOP('',(#701,#702,#703,#704));
#378=CARTESIAN_POINT('',(-12.3643956272151,0.260547513975547,28.538041459695));
#379=CARTESIAN_POINT('',(-12.1244543343505,2.71244543343504,28.5025543964862));
#380=CARTESIAN_POINT('',(-12.4814048950053,2.74814048950052,26.0649435326797));
#381=CARTESIAN_POINT('',(-10.7181220017892,0.0876887832751588,28.2945593332673));
#382=CARTESIAN_POINT('',(-10.5470032945686,2.56667763793877,28.2774445713768));
#383=CARTESIAN_POINT('',(-10.8351314650436,2.58351314650435,25.8092873302808));
#384=CARTESIAN_POINT('',(-9.05974159666036,9.32312919882631E-11,28.1330675650842));
#385=CARTESIAN_POINT('',(-8.97512982817761,2.49609376927593,28.1291030760376));
#386=CARTESIAN_POINT('',(-9.1767510871783,2.49999999999997,25.6397209543584));
#387=CARTESIAN_POINT('',(-7.38920967616505,-2.36148749053112E-14,28.0547946995862));
#388=CARTESIAN_POINT('',(-7.38920967616505,2.49999999999998,28.0547946995862));
#389=CARTESIAN_POINT('',(-7.50621894395526,2.49999999999998,25.5575344345656));
#396=EDGE_LOOP('',(#705,#706,#707,#708));
#397=AXIS2_PLACEMENT_3D('',#709,#710,#711);
#398=EDGE_LOOP('',(#712,#713,#714,#715));
#400=CARTESIAN_POINT('',(-14.85483107727,0.522043236231334,28.970966215454));
#401=CARTESIAN_POINT('',(-14.6202177561752,2.96202177561753,28.924043551235));
#402=CARTESIAN_POINT('',(-15.096362117563,3.00963621175631,26.5195145262267));
#403=CARTESIAN_POINT('',(-14.0285108127498,0.435279608457042,28.8057021625499));
#404=CARTESIAN_POINT('',(-13.7912688660898,2.87912688660336,28.7623693573403));
#405=CARTESIAN_POINT('',(-14.22872583948,2.92287258394801,26.3459872706103));
#406=CARTESIAN_POINT('',(-13.1980122760208,0.348077262100109,28.6613324795728));
#407=CARTESIAN_POINT('',(-12.9589771872319,2.7958977187225,28.6218504654763));
#408=CARTESIAN_POINT('',(-13.3567023762489,2.8356702376249,26.1943991035574));
#409=CARTESIAN_POINT('',(-12.364395627215,0.260547513975555,28.538041459695));
#410=CARTESIAN_POINT('',(-12.1244543343505,2.71244543343504,28.5025543964862));
#411=CARTESIAN_POINT('',(-12.4814048950052,2.74814048950053,26.0649435326797));
#418=EDGE_LOOP('',(#716,#717,#718,#719));
#419=AXIS2_PLACEMENT_3D('',#720,#721,#722);
#420=EDGE_LOOP('',(#723,#724,#725,#726));
#421=AXIS2_PLACEMENT_3D('',#727,#728,#729);
#422=EDGE_LOOP('',(#730,#731,#732,#733));
#423=AXIS2_PLACEMENT_3D('',#734,#735,#736);
#424=EDGE_LOOP('',(#737,#738,#739,#740));
#425=AXIS2_PLACEMENT_3D('',#741,#742,#743);
#426=EDGE_LOOP('',(#744,#745,#746,#747));
#427=AXIS2_PLACEMENT_3D('',#748,#749,#750);
#428=FILL_AREA_STYLE_COLOUR('',#751);
#429=ORIENTED_EDGE('',*,*,#752,.T.);
#430=ORIENTED_EDGE('',*,*,#753,.T.);
#431=ORIENTED_EDGE('',*,*,#754,.T.);
#432=ORIENTED_EDGE('',*,*,#755,.T.);
#433=CARTESIAN_POINT('',(-5.04902432036081,7.80625564189563E-15,78.0));
#434=DIRECTION('',(-2.31104833062957E-16,1.0,0.0));
#435=DIRECTION('',(-1.0,-2.31104833062957E-16,0.0));
#436=ORIENTED_EDGE('',*,*,#756,.T.);
#437=ORIENTED_EDGE('',*,*,#757,.T.);
#438=ORIENTED_EDGE('',*,*,#758,.T.);
#439=ORIENTED_EDGE('',*,*,#759,.T.);
#440=CARTESIAN_POINT('',(5.04902432036081,1.10610870916513E-14,78.0));
#441=DIRECTION('',(-4.13540794138746E-16,1.0,0.0));
#442=DIRECTION('',(1.0,4.13540794138746E-16,0.0));
#443=ORIENTED_EDGE('',*,*,#760,.T.);
#444=ORIENTED_EDGE('',*,*,#761,.T.);
#445=ORIENTED_EDGE('',*,*,#762,.T.);
#446=ORIENTED_EDGE('',*,*,#763,.T.);
#447=CARTESIAN_POINT('',(-17.5,-5.0,26.9504902432036));
#448=DIRECTION('',(0.0,-1.0,0.0));
#449=DIRECTION('',(0.0,0.0,1.0));
#450=ORIENTED_EDGE('',*,*,#764,.T.);
#451=ORIENTED_EDGE('',*,*,#765,.T.);
#452=ORIENTED_EDGE('',*,*,#766,.T.);
#453=ORIENTED_EDGE('',*,*,#767,.T.);
#454=CARTESIAN_POINT('',(17.5,-4.99999999999999,26.9504902432036));
#455=DIRECTION('',(6.44645627201704E-16,-1.0,0.0));
#456=DIRECTION('',(0.0,0.0,1.0));
#457=ORIENTED_EDGE('',*,*,#768,.T.);
#458=ORIENTED_EDGE('',*,*,#769,.T.);
#459=ORIENTED_EDGE('',*,*,#770,.T.);
#460=ORIENTED_EDGE('',*,*,#771,.T.);
#461=CARTESIAN_POINT('',(7.50621894395534,-52.5,30.0));
#462=DIRECTION('',(-0.0,0.0,1.0));
#463=DIRECTION('',(1.0,6.93889390390723E-16,0.0));
#464=ORIENTED_EDGE('',*,*,#772,.T.);
#465=ORIENTED_EDGE('',*,*,#754,.F.);
#466=ORIENTED_EDGE('',*,*,#773,.T.);
#467=ORIENTED_EDGE('',*,*,#774,.T.);
#468=ORIENTED_EDGE('',*,*,#768,.F.);
#469=ORIENTED_EDGE('',*,*,#758,.F.);
#470=CARTESIAN_POINT('',(7.50621894395534,-2.49999999999999,30.0));
#471=DIRECTION('',(-4.13540794138746E-16,1.0,0.0));
#472=DIRECTION('',(1.0,4.13540794138746E-16,-0.0));
#473=ORIENTED_EDGE('',*,*,#775,.T.);
#474=ORIENTED_EDGE('',*,*,#776,.T.);
#475=ORIENTED_EDGE('',*,*,#777,.T.);
#476=ORIENTED_EDGE('',*,*,#778,.T.);
#477=ORIENTED_EDGE('',*,*,#779,.T.);
#478=ORIENTED_EDGE('',*,*,#780,.T.);
#479=CARTESIAN_POINT('',(-2.49979248770437E-15,2.49999999999997,30.0));
#480=DIRECTION('',(5.38229470499238E-15,-1.0,0.0));
#481=DIRECTION('',(0.0,0.0,-1.0));
#482=ORIENTED_EDGE('',*,*,#781,.T.);
#483=ORIENTED_EDGE('',*,*,#782,.T.);
#484=ORIENTED_EDGE('',*,*,#775,.F.);
#485=ORIENTED_EDGE('',*,*,#783,.T.);
#486=CARTESIAN_POINT('',(7.50621894395526,52.5,30.0));
#487=DIRECTION('',(-0.0,0.0,1.0));
#488=DIRECTION('',(1.0,6.93889390390723E-16,0.0));
#489=ORIENTED_EDGE('',*,*,#766,.F.);
#490=ORIENTED_EDGE('',*,*,#784,.T.);
#491=ORIENTED_EDGE('',*,*,#785,.T.);
#492=ORIENTED_EDGE('',*,*,#786,.T.);
#493=CARTESIAN_POINT('',(20.0,3.50000000000004,30.0));
#494=DIRECTION('',(-1.0,-6.44645627201704E-16,0.0));
#495=DIRECTION('',(-6.44645627201704E-16,1.0,0.0));
#496=ORIENTED_EDGE('',*,*,#787,.T.);
#497=ORIENTED_EDGE('',*,*,#788,.T.);
#498=ORIENTED_EDGE('',*,*,#770,.F.);
#499=ORIENTED_EDGE('',*,*,#789,.T.);
#500=ORIENTED_EDGE('',*,*,#790,.T.);
#501=CARTESIAN_POINT('',(20.0,-3.49999999999999,30.0));
#502=DIRECTION('',(0.0995037190210007,0.995037190209989,0.0));
#503=DIRECTION('',(0.0,0.0,-1.0));
#504=ORIENTED_EDGE('',*,*,#791,.T.);
#505=ORIENTED_EDGE('',*,*,#781,.F.);
#506=ORIENTED_EDGE('',*,*,#792,.T.);
#507=ORIENTED_EDGE('',*,*,#793,.T.);
#508=ORIENTED_EDGE('',*,*,#794,.T.);
#509=CARTESIAN_POINT('',(12.4814048950052,2.74814048950054,30.0));
#510=DIRECTION('',(0.0995037190210024,-0.995037190209989,0.0));
#511=DIRECTION('',(0.0,0.0,-1.0));
#512=ORIENTED_EDGE('',*,*,#785,.F.);
#513=ORIENTED_EDGE('',*,*,#795,.T.);
#514=ORIENTED_EDGE('',*,*,#789,.F.);
#515=ORIENTED_EDGE('',*,*,#769,.F.);
#516=ORIENTED_EDGE('',*,*,#774,.F.);
#517=ORIENTED_EDGE('',*,*,#796,.T.);
#518=ORIENTED_EDGE('',*,*,#797,.T.);
#519=ORIENTED_EDGE('',*,*,#798,.T.);
#520=ORIENTED_EDGE('',*,*,#799,.T.);
#521=ORIENTED_EDGE('',*,*,#800,.T.);
#522=ORIENTED_EDGE('',*,*,#801,.T.);
#523=ORIENTED_EDGE('',*,*,#802,.T.);
#524=ORIENTED_EDGE('',*,*,#776,.F.);
#525=ORIENTED_EDGE('',*,*,#782,.F.);
#526=ORIENTED_EDGE('',*,*,#791,.F.);
#527=ORIENTED_EDGE('',*,*,#803,.T.);
#528=CARTESIAN_POINT('',(7.50621894395534,-52.5,0.0));
#529=DIRECTION('',(0.0,0.0,-1.0));
#530=DIRECTION('',(0.0,-1.0,0.0));
#531=ORIENTED_EDGE('',*,*,#804,.T.);
#532=ORIENTED_EDGE('',*,*,#805,.T.);
#533=ORIENTED_EDGE('',*,*,#806,.T.);
#534=ORIENTED_EDGE('',*,*,#807,.T.);
#535=CARTESIAN_POINT('',(20.0,-4.99999999999999,30.0));
#536=DIRECTION('',(-0.196116135138182,-1.26425408940527E-16,0.980580675690921));
#537=DIRECTION('',(-6.44645627201702E-16,1.0,0.0));
#538=ORIENTED_EDGE('',*,*,#808,.T.);
#539=ORIENTED_EDGE('',*,*,#809,.T.);
#540=ORIENTED_EDGE('',*,*,#810,.T.);
#541=ORIENTED_EDGE('',*,*,#805,.F.);
#542=ORIENTED_EDGE('',*,*,#811,.T.);
#543=CARTESIAN_POINT('',(5.04902432036081,-5.0,78.0));
#544=DIRECTION('',(6.44645627201704E-16,-1.0,0.0));
#545=DIRECTION('',(0.0,0.0,1.0));
#546=ORIENTED_EDGE('',*,*,#779,.F.);
#547=ORIENTED_EDGE('',*,*,#812,.T.);
#548=ORIENTED_EDGE('',*,*,#755,.F.);
#549=ORIENTED_EDGE('',*,*,#772,.F.);
#550=ORIENTED_EDGE('',*,*,#757,.F.);
#551=ORIENTED_EDGE('',*,*,#813,.T.);
#552=CARTESIAN_POINT('',(5.0490243203608,1.10610870916513E-14,25.5));
#553=DIRECTION('',(-1.0,-3.46944695195361E-16,0.0));
#554=DIRECTION('',(3.46944695195361E-16,-1.0,0.0));
#555=ORIENTED_EDGE('',*,*,#756,.F.);
#556=ORIENTED_EDGE('',*,*,#814,.T.);
#557=ORIENTED_EDGE('',*,*,#780,.F.);
#558=ORIENTED_EDGE('',*,*,#813,.F.);
#559=CARTESIAN_POINT('',(5.04902432036081,1.10610870916513E-14,78.0));
#560=DIRECTION('',(-4.13540794138746E-16,1.0,0.0));
#561=DIRECTION('',(1.0,4.13540794138746E-16,0.0));
#562=ORIENTED_EDGE('',*,*,#806,.F.);
#563=ORIENTED_EDGE('',*,*,#815,.T.);
#564=ORIENTED_EDGE('',*,*,#787,.F.);
#565=ORIENTED_EDGE('',*,*,#816,.T.);
#566=CARTESIAN_POINT('',(20.8677608017974,-1.07430717489951,27.6240424035631));
#567=DIRECTION('',(-0.975900072948534,0.0975900072948552,-0.195180014589705));
#568=DIRECTION('',(-0.196116135138182,-9.10700407217239E-17,0.980580675690921));
#569=ORIENTED_EDGE('',*,*,#759,.F.);
#570=ORIENTED_EDGE('',*,*,#771,.F.);
#571=ORIENTED_EDGE('',*,*,#817,.T.);
#572=ORIENTED_EDGE('',*,*,#809,.F.);
#573=ORIENTED_EDGE('',*,*,#815,.F.);
#574=ORIENTED_EDGE('',*,*,#810,.F.);
#575=ORIENTED_EDGE('',*,*,#817,.F.);
#576=ORIENTED_EDGE('',*,*,#788,.F.);
#577=ORIENTED_EDGE('',*,*,#814,.F.);
#578=ORIENTED_EDGE('',*,*,#808,.F.);
#579=ORIENTED_EDGE('',*,*,#818,.T.);
#580=ORIENTED_EDGE('',*,*,#783,.F.);
#581=ORIENTED_EDGE('',*,*,#793,.F.);
#582=ORIENTED_EDGE('',*,*,#819,.T.);
#583=ORIENTED_EDGE('',*,*,#804,.F.);
#584=ORIENTED_EDGE('',*,*,#820,.T.);
#585=CARTESIAN_POINT('',(19.9153798494164,0.97906907966146,27.4335662130869));
#586=DIRECTION('',(0.975900072948533,0.0975900072948568,0.195180014589705));
#587=DIRECTION('',(0.196116135138182,8.45692403373987E-17,-0.980580675690921));
#588=ORIENTED_EDGE('',*,*,#818,.F.);
#589=ORIENTED_EDGE('',*,*,#811,.F.);
#590=ORIENTED_EDGE('',*,*,#819,.F.);
#591=ORIENTED_EDGE('',*,*,#792,.F.);
#592=ORIENTED_EDGE('',*,*,#795,.F.);
#593=ORIENTED_EDGE('',*,*,#784,.F.);
#594=ORIENTED_EDGE('',*,*,#821,.T.);
#595=ORIENTED_EDGE('',*,*,#790,.F.);
#596=CARTESIAN_POINT('',(17.5,-0.737531094719758,30.0));
#597=DIRECTION('',(-0.0,0.0,1.0));
#598=DIRECTION('',(1.0,6.50521303491304E-16,0.0));
#599=ORIENTED_EDGE('',*,*,#821,.F.);
#600=ORIENTED_EDGE('',*,*,#765,.F.);
#601=ORIENTED_EDGE('',*,*,#822,.T.);
#602=ORIENTED_EDGE('',*,*,#816,.F.);
#603=CARTESIAN_POINT('',(17.5,-0.737531094719758,26.9504902432036));
#604=DIRECTION('',(-1.0,-6.50521303491303E-16,0.0));
#605=DIRECTION('',(0.0,0.0,-1.0));
#606=ORIENTED_EDGE('',*,*,#764,.F.);
#607=ORIENTED_EDGE('',*,*,#823,.T.);
#608=ORIENTED_EDGE('',*,*,#807,.F.);
#609=ORIENTED_EDGE('',*,*,#822,.F.);
#610=CARTESIAN_POINT('',(17.5,-4.99999999999999,26.9504902432036));
#611=DIRECTION('',(6.44645627201704E-16,-1.0,0.0));
#612=DIRECTION('',(0.0,0.0,1.0));
#613=ORIENTED_EDGE('',*,*,#823,.F.);
#614=ORIENTED_EDGE('',*,*,#767,.F.);
#615=ORIENTED_EDGE('',*,*,#824,.T.);
#616=ORIENTED_EDGE('',*,*,#820,.F.);
#617=CARTESIAN_POINT('',(17.5,0.737531094719807,26.9504902432036));
#618=DIRECTION('',(-1.0,-6.50521303491303E-16,0.0));
#619=DIRECTION('',(0.0,0.0,-1.0));
#620=ORIENTED_EDGE('',*,*,#824,.F.);
#621=ORIENTED_EDGE('',*,*,#786,.F.);
#622=ORIENTED_EDGE('',*,*,#803,.F.);
#623=ORIENTED_EDGE('',*,*,#794,.F.);
#624=CARTESIAN_POINT('',(17.5,0.737531094719806,30.0));
#625=DIRECTION('',(-0.0,0.0,1.0));
#626=DIRECTION('',(1.0,6.50521303491304E-16,0.0));
#627=ORIENTED_EDGE('',*,*,#773,.F.);
#628=ORIENTED_EDGE('',*,*,#825,.T.);
#629=ORIENTED_EDGE('',*,*,#826,.T.);
#630=ORIENTED_EDGE('',*,*,#796,.F.);
#631=CARTESIAN_POINT('',(-7.5062189439553,-52.5,30.0));
#632=DIRECTION('',(0.0,0.0,1.0));
#633=DIRECTION('',(-1.0,0.0,0.0));
#634=ORIENTED_EDGE('',*,*,#827,.T.);
#635=ORIENTED_EDGE('',*,*,#828,.T.);
#636=ORIENTED_EDGE('',*,*,#777,.F.);
#637=ORIENTED_EDGE('',*,*,#802,.F.);
#638=CARTESIAN_POINT('',(-7.5062189439553,52.5,30.0));
#639=DIRECTION('',(0.0,0.0,1.0));
#640=DIRECTION('',(-1.0,0.0,0.0));
#641=ORIENTED_EDGE('',*,*,#829,.T.);
#642=ORIENTED_EDGE('',*,*,#830,.T.);
#643=ORIENTED_EDGE('',*,*,#799,.F.);
#644=ORIENTED_EDGE('',*,*,#831,.T.);
#645=CARTESIAN_POINT('',(-20.0,3.50000000000003,30.0));
#646=DIRECTION('',(1.0,0.0,0.0));
#647=DIRECTION('',(0.0,1.0,0.0));
#648=ORIENTED_EDGE('',*,*,#832,.T.);
#649=ORIENTED_EDGE('',*,*,#833,.T.);
#650=ORIENTED_EDGE('',*,*,#797,.F.);
#651=ORIENTED_EDGE('',*,*,#826,.F.);
#652=ORIENTED_EDGE('',*,*,#834,.T.);
#653=CARTESIAN_POINT('',(-20.0,-3.5,30.0));
#654=DIRECTION('',(-0.0995037190210014,0.995037190209989,0.0));
#655=DIRECTION('',(0.0,0.0,1.0));
#656=ORIENTED_EDGE('',*,*,#801,.F.);
#657=ORIENTED_EDGE('',*,*,#835,.T.);
#658=ORIENTED_EDGE('',*,*,#836,.T.);
#659=ORIENTED_EDGE('',*,*,#837,.T.);
#660=ORIENTED_EDGE('',*,*,#827,.F.);
#661=CARTESIAN_POINT('',(-12.4814048950053,2.74814048950053,30.0));
#662=DIRECTION('',(-0.0995037190210018,-0.995037190209989,0.0));
#663=DIRECTION('',(-0.995037190209989,0.0995037190210018,0.0));
#664=ORIENTED_EDGE('',*,*,#838,.T.);
#665=ORIENTED_EDGE('',*,*,#762,.F.);
#666=ORIENTED_EDGE('',*,*,#839,.T.);
#667=ORIENTED_EDGE('',*,*,#840,.T.);
#668=CARTESIAN_POINT('',(-20.0,-5.0,30.0));
#669=DIRECTION('',(0.196116135138182,0.0,0.980580675690921));
#670=DIRECTION('',(0.0,-1.0,0.0));
#671=ORIENTED_EDGE('',*,*,#841,.T.);
#672=ORIENTED_EDGE('',*,*,#842,.T.);
#673=ORIENTED_EDGE('',*,*,#840,.F.);
#674=ORIENTED_EDGE('',*,*,#843,.T.);
#675=ORIENTED_EDGE('',*,*,#844,.T.);
#676=CARTESIAN_POINT('',(-5.04902432036081,-5.0,78.0));
#677=DIRECTION('',(0.0,-1.0,0.0));
#678=DIRECTION('',(0.0,0.0,1.0));
#679=ORIENTED_EDGE('',*,*,#752,.F.);
#680=ORIENTED_EDGE('',*,*,#812,.F.);
#681=ORIENTED_EDGE('',*,*,#778,.F.);
#682=ORIENTED_EDGE('',*,*,#845,.T.);
#683=CARTESIAN_POINT('',(-5.04902432036081,7.80625564189563E-15,78.0));
#684=DIRECTION('',(-2.31104833062957E-16,1.0,0.0));
#685=DIRECTION('',(-1.0,-2.31104833062957E-16,0.0));
#686=ORIENTED_EDGE('',*,*,#839,.F.);
#687=ORIENTED_EDGE('',*,*,#846,.T.);
#688=ORIENTED_EDGE('',*,*,#832,.F.);
#689=ORIENTED_EDGE('',*,*,#847,.T.);
#690=CARTESIAN_POINT('',(-20.8677608017974,-1.07430717489952,27.6240424035631));
#691=DIRECTION('',(0.975900072948533,0.0975900072948559,-0.195180014589705));
#692=DIRECTION('',(0.196116135138182,-2.16693346144172E-18,0.980580675690921));
#693=ORIENTED_EDGE('',*,*,#753,.F.);
#694=ORIENTED_EDGE('',*,*,#844,.F.);
#695=ORIENTED_EDGE('',*,*,#848,.T.);
#696=ORIENTED_EDGE('',*,*,#825,.F.);
#697=ORIENTED_EDGE('',*,*,#847,.F.);
#698=ORIENTED_EDGE('',*,*,#834,.F.);
#699=ORIENTED_EDGE('',*,*,#848,.F.);
#700=ORIENTED_EDGE('',*,*,#843,.F.);
#701=ORIENTED_EDGE('',*,*,#845,.F.);
#702=ORIENTED_EDGE('',*,*,#828,.F.);
#703=ORIENTED_EDGE('',*,*,#849,.T.);
#704=ORIENTED_EDGE('',*,*,#841,.F.);
#705=ORIENTED_EDGE('',*,*,#836,.F.);
#706=ORIENTED_EDGE('',*,*,#850,.T.);
#707=ORIENTED_EDGE('',*,*,#838,.F.);
#708=ORIENTED_EDGE('',*,*,#851,.T.);
#709=CARTESIAN_POINT('',(-19.9153798494164,0.979069079661448,27.4335662130869));
#710=DIRECTION('',(-0.975900072948533,0.0975900072948562,0.195180014589705));
#711=DIRECTION('',(-0.196116135138182,-2.16693346144173E-18,-0.980580675690921));
#712=ORIENTED_EDGE('',*,*,#849,.F.);
#713=ORIENTED_EDGE('',*,*,#837,.F.);
#714=ORIENTED_EDGE('',*,*,#851,.F.);
#715=ORIENTED_EDGE('',*,*,#842,.F.);
#716=ORIENTED_EDGE('',*,*,#798,.F.);
#717=ORIENTED_EDGE('',*,*,#833,.F.);
#718=ORIENTED_EDGE('',*,*,#852,.T.);
#719=ORIENTED_EDGE('',*,*,#831,.F.);
#720=CARTESIAN_POINT('',(-17.5,-0.737531094719769,30.0));
#721=DIRECTION('',(0.0,0.0,1.0));
#722=DIRECTION('',(-1.0,0.0,0.0));
#723=ORIENTED_EDGE('',*,*,#852,.F.);
#724=ORIENTED_EDGE('',*,*,#846,.F.);
#725=ORIENTED_EDGE('',*,*,#761,.F.);
#726=ORIENTED_EDGE('',*,*,#853,.T.);
#727=CARTESIAN_POINT('',(-17.5,-0.73753109471977,26.9504902432036));
#728=DIRECTION('',(1.0,0.0,0.0));
#729=DIRECTION('',(0.0,0.0,-1.0));
#730=ORIENTED_EDGE('',*,*,#760,.F.);
#731=ORIENTED_EDGE('',*,*,#854,.T.);
#732=ORIENTED_EDGE('',*,*,#829,.F.);
#733=ORIENTED_EDGE('',*,*,#853,.F.);
#734=CARTESIAN_POINT('',(-17.5,-5.0,26.9504902432036));
#735=DIRECTION('',(0.0,-1.0,0.0));
#736=DIRECTION('',(0.0,0.0,1.0));
#737=ORIENTED_EDGE('',*,*,#854,.F.);
#738=ORIENTED_EDGE('',*,*,#763,.F.);
#739=ORIENTED_EDGE('',*,*,#850,.F.);
#740=ORIENTED_EDGE('',*,*,#855,.T.);
#741=CARTESIAN_POINT('',(-17.5,0.737531094719795,26.9504902432036));
#742=DIRECTION('',(1.0,0.0,0.0));
#743=DIRECTION('',(0.0,0.0,-1.0));
#744=ORIENTED_EDGE('',*,*,#855,.F.);
#745=ORIENTED_EDGE('',*,*,#835,.F.);
#746=ORIENTED_EDGE('',*,*,#800,.F.);
#747=ORIENTED_EDGE('',*,*,#830,.F.);
#748=CARTESIAN_POINT('',(-17.5,0.737531094719795,30.0));
#749=DIRECTION('',(0.0,0.0,1.0));
#750=DIRECTION('',(-1.0,0.0,0.0));
#751=COLOUR_RGB('',0.61176472902298,0.658823549747467,0.670588254928589);
#752=EDGE_CURVE('',#856,#857,#858,.F.);
#753=EDGE_CURVE('',#857,#859,#860,.F.);
#754=EDGE_CURVE('',#859,#861,#862,.F.);
#755=EDGE_CURVE('',#861,#856,#863,.T.);
#756=EDGE_CURVE('',#864,#865,#866,.F.);
#757=EDGE_CURVE('',#865,#867,#868,.T.);
#758=EDGE_CURVE('',#867,#869,#870,.F.);
#759=EDGE_CURVE('',#869,#864,#871,.F.);
#760=EDGE_CURVE('',#872,#873,#874,.F.);
#761=EDGE_CURVE('',#873,#875,#876,.T.);
#762=EDGE_CURVE('',#875,#877,#878,.F.);
#763=EDGE_CURVE('',#877,#872,#879,.F.);
#764=EDGE_CURVE('',#880,#881,#882,.F.);
#765=EDGE_CURVE('',#881,#883,#884,.T.);
#766=EDGE_CURVE('',#883,#885,#886,.F.);
#767=EDGE_CURVE('',#885,#880,#887,.F.);
#768=EDGE_CURVE('',#869,#888,#889,.F.);
#769=EDGE_CURVE('',#888,#890,#891,.T.);
#770=EDGE_CURVE('',#890,#892,#893,.T.);
#771=EDGE_CURVE('',#892,#869,#894,.T.);
#772=EDGE_CURVE('',#867,#861,#895,.T.);
#773=EDGE_CURVE('',#859,#896,#897,.T.);
#774=EDGE_CURVE('',#896,#888,#898,.T.);
#775=EDGE_CURVE('',#899,#900,#901,.F.);
#776=EDGE_CURVE('',#900,#902,#903,.T.);
#777=EDGE_CURVE('',#902,#904,#905,.F.);
#778=EDGE_CURVE('',#904,#906,#907,.T.);
#779=EDGE_CURVE('',#906,#908,#909,.T.);
#780=EDGE_CURVE('',#908,#899,#910,.T.);
#781=EDGE_CURVE('',#911,#912,#913,.F.);
#782=EDGE_CURVE('',#912,#900,#914,.T.);
#783=EDGE_CURVE('',#899,#911,#915,.T.);
#784=EDGE_CURVE('',#883,#916,#917,.T.);
#785=EDGE_CURVE('',#916,#918,#919,.T.);
#786=EDGE_CURVE('',#918,#885,#920,.T.);
#787=EDGE_CURVE('',#921,#922,#923,.T.);
#788=EDGE_CURVE('',#922,#892,#924,.T.);
#789=EDGE_CURVE('',#890,#925,#926,.T.);
#790=EDGE_CURVE('',#925,#921,#927,.T.);
#791=EDGE_CURVE('',#928,#912,#929,.T.);
#792=EDGE_CURVE('',#911,#930,#931,.T.);
#793=EDGE_CURVE('',#930,#932,#933,.T.);
#794=EDGE_CURVE('',#932,#928,#934,.T.);
#795=EDGE_CURVE('',#916,#925,#935,.T.);
#796=EDGE_CURVE('',#896,#936,#937,.F.);
#797=EDGE_CURVE('',#936,#938,#939,.F.);
#798=EDGE_CURVE('',#938,#940,#941,.T.);
#799=EDGE_CURVE('',#940,#942,#943,.F.);
#800=EDGE_CURVE('',#942,#944,#945,.T.);
#801=EDGE_CURVE('',#944,#946,#947,.F.);
#802=EDGE_CURVE('',#946,#902,#948,.F.);
#803=EDGE_CURVE('',#928,#918,#949,.T.);
#804=EDGE_CURVE('',#950,#951,#952,.T.);
#805=EDGE_CURVE('',#951,#953,#954,.F.);
#806=EDGE_CURVE('',#953,#955,#956,.T.);
#807=EDGE_CURVE('',#955,#950,#957,.T.);
#808=EDGE_CURVE('',#958,#864,#959,.T.);
#809=EDGE_CURVE('',#864,#960,#961,.T.);
#810=EDGE_CURVE('',#960,#953,#962,.T.);
#811=EDGE_CURVE('',#951,#958,#963,.T.);
#812=EDGE_CURVE('',#906,#856,#964,.F.);
#813=EDGE_CURVE('',#865,#908,#965,.F.);
#814=EDGE_CURVE('',#864,#899,#966,.F.);
#815=EDGE_CURVE('',#953,#922,#967,.T.);
#816=EDGE_CURVE('',#921,#955,#968,.T.);
#817=EDGE_CURVE('',#892,#960,#969,.F.);
#818=EDGE_CURVE('',#958,#911,#970,.F.);
#819=EDGE_CURVE('',#930,#951,#971,.T.);
#820=EDGE_CURVE('',#950,#932,#972,.T.);
#821=EDGE_CURVE('',#883,#921,#973,.F.);
#822=EDGE_CURVE('',#881,#955,#974,.F.);
#823=EDGE_CURVE('',#880,#950,#975,.F.);
#824=EDGE_CURVE('',#885,#932,#976,.F.);
#825=EDGE_CURVE('',#859,#977,#978,.T.);
#826=EDGE_CURVE('',#977,#936,#979,.T.);
#827=EDGE_CURVE('',#946,#980,#981,.F.);
#828=EDGE_CURVE('',#980,#904,#982,.T.);
#829=EDGE_CURVE('',#983,#984,#985,.T.);
#830=EDGE_CURVE('',#984,#942,#986,.T.);
#831=EDGE_CURVE('',#940,#983,#987,.T.);
#832=EDGE_CURVE('',#988,#989,#990,.T.);
#833=EDGE_CURVE('',#989,#938,#991,.T.);
#834=EDGE_CURVE('',#977,#988,#992,.T.);
#835=EDGE_CURVE('',#944,#993,#994,.T.);
#836=EDGE_CURVE('',#993,#995,#996,.T.);
#837=EDGE_CURVE('',#995,#980,#997,.T.);
#838=EDGE_CURVE('',#998,#877,#999,.T.);
#839=EDGE_CURVE('',#875,#1000,#1001,.T.);
#840=EDGE_CURVE('',#1000,#998,#1002,.F.);
#841=EDGE_CURVE('',#857,#1003,#1004,.T.);
#842=EDGE_CURVE('',#1003,#998,#1005,.T.);
#843=EDGE_CURVE('',#1000,#1006,#1007,.T.);
#844=EDGE_CURVE('',#1006,#857,#1008,.T.);
#845=EDGE_CURVE('',#904,#857,#1009,.F.);
#846=EDGE_CURVE('',#875,#989,#1010,.T.);
#847=EDGE_CURVE('',#988,#1000,#1011,.T.);
#848=EDGE_CURVE('',#1006,#977,#1012,.F.);
#849=EDGE_CURVE('',#980,#1003,#1013,.F.);
#850=EDGE_CURVE('',#993,#877,#1014,.T.);
#851=EDGE_CURVE('',#998,#995,#1015,.T.);
#852=EDGE_CURVE('',#989,#983,#1016,.F.);
#853=EDGE_CURVE('',#873,#983,#1017,.F.);
#854=EDGE_CURVE('',#872,#984,#1018,.F.);
#855=EDGE_CURVE('',#993,#984,#1019,.F.);
#856=VERTEX_POINT('',#1020);
#857=VERTEX_POINT('',#1021);
#858=CIRCLE('',#1022,50.0);
#859=VERTEX_POINT('',#1023);
#860=CIRCLE('',#1024,2.5);
#861=VERTEX_POINT('',#1025);
#862=CIRCLE('',#1026,52.5);
#863=CIRCLE('',#1027,2.5);
#864=VERTEX_POINT('',#1028);
#865=VERTEX_POINT('',#1029);
#866=CIRCLE('',#1030,50.0);
#867=VERTEX_POINT('',#1031);
#868=CIRCLE('',#1032,2.5);
#869=VERTEX_POINT('',#1033);
#870=CIRCLE('',#1034,52.5);
#871=CIRCLE('',#1035,2.5);
#872=VERTEX_POINT('',#1036);
#873=VERTEX_POINT('',#1037);
#874=LINE('',#1038,#1039);
#875=VERTEX_POINT('',#1040);
#876=CIRCLE('',#1041,2.5);
#877=VERTEX_POINT('',#1042);
#878=LINE('',#1043,#1044);
#879=CIRCLE('',#1045,2.5);
#880=VERTEX_POINT('',#1046);
#881=VERTEX_POINT('',#1047);
#882=LINE('',#1048,#1049);
#883=VERTEX_POINT('',#1050);
#884=CIRCLE('',#1051,2.5);
#885=VERTEX_POINT('',#1052);
#886=LINE('',#1053,#1054);
#887=CIRCLE('',#1055,2.5);
#888=VERTEX_POINT('',#1056);
#889=LINE('',#1057,#1058);
#890=VERTEX_POINT('',#1059);
#891=CIRCLE('',#1060,50.0);
#892=VERTEX_POINT('',#1061);
#893=LINE('',#1062,#1063);
#894=B_SPLINE_CURVE_WITH_KNOTS('',3,(#1064,#1065,#1066,#1067),.UNSPECIFIED.,.F.,.F.,(4,4),(1.77464466547002E-15,1.0),.UNSPECIFIED.);
#895=LINE('',#1068,#1069);
#896=VERTEX_POINT('',#1070);
#897=LINE('',#1071,#1072);
#898=LINE('',#1073,#1074);
#899=VERTEX_POINT('',#1075);
#900=VERTEX_POINT('',#1076);
#901=LINE('',#1077,#1078);
#902=VERTEX_POINT('',#1079);
#903=LINE('',#1080,#1081);
#904=VERTEX_POINT('',#1082);
#905=LINE('',#1083,#1084);
#906=VERTEX_POINT('',#1085);
#907=CIRCLE('',#1086,52.5);
#908=VERTEX_POINT('',#1087);
#909=LINE('',#1088,#1089);
#910=CIRCLE('',#1090,52.5);
#911=VERTEX_POINT('',#1091);
#912=VERTEX_POINT('',#1092);
#913=LINE('',#1093,#1094);
#914=CIRCLE('',#1095,50.0);
#915=B_SPLINE_CURVE_WITH_KNOTS('',3,(#1096,#1097,#1098,#1099),.UNSPECIFIED.,.F.,.F.,(4,4),(0.0,1.0),.UNSPECIFIED.);
#916=VERTEX_POINT('',#1100);
#917=LINE('',#1101,#1102);
#918=VERTEX_POINT('',#1103);
#919=LINE('',#1104,#1105);
#920=LINE('',#1106,#1107);
#921=VERTEX_POINT('',#1108);
#922=VERTEX_POINT('',#1109);
#923=LINE('',#1110,#1111);
#924=ELLIPSE('',#1112,52.7618470108847,52.5);
#925=VERTEX_POINT('',#1113);
#926=LINE('',#1114,#1115);
#927=LINE('',#1116,#1117);
#928=VERTEX_POINT('',#1118);
#929=LINE('',#1119,#1120);
#930=VERTEX_POINT('',#1121);
#931=ELLIPSE('',#1122,52.7618470108847,52.5);
#932=VERTEX_POINT('',#1123);
#933=LINE('',#1124,#1125);
#934=LINE('',#1126,#1127);
#935=CIRCLE('',#1128,2.5);
#936=VERTEX_POINT('',#1129);
#937=CIRCLE('',#1130,50.0);
#938=VERTEX_POINT('',#1131);
#939=LINE('',#1132,#1133);
#940=VERTEX_POINT('',#1134);
#941=CIRCLE('',#1135,2.5);
#942=VERTEX_POINT('',#1136);
#943=LINE('',#1137,#1138);
#944=VERTEX_POINT('',#1139);
#945=CIRCLE('',#1140,2.5);
#946=VERTEX_POINT('',#1141);
#947=LINE('',#1142,#1143);
#948=CIRCLE('',#1144,50.0);
#949=CIRCLE('',#1145,2.5);
#950=VERTEX_POINT('',#1146);
#951=VERTEX_POINT('',#1147);
#952=LINE('',#1148,#1149);
#953=VERTEX_POINT('',#1150);
#954=LINE('',#1151,#1152);
#955=VERTEX_POINT('',#1153);
#956=LINE('',#1154,#1155);
#957=LINE('',#1156,#1157);
#958=VERTEX_POINT('',#1158);
#959=B_SPLINE_CURVE_WITH_KNOTS('',3,(#1159,#1160,#1161,#1162),.UNSPECIFIED.,.F.,.F.,(4,4),(4.35424881593866E-16,0.999999999999947),.UNSPECIFIED.);
#960=VERTEX_POINT('',#1163);
#961=B_SPLINE_CURVE_WITH_KNOTS('',3,(#1164,#1165,#1166,#1167),.UNSPECIFIED.,.F.,.F.,(4,4),(8.49072921852984E-31,1.0),.UNSPECIFIED.);
#962=ELLIPSE('',#1168,50.274869467757,50.0);
#963=ELLIPSE('',#1169,50.274869467757,50.0);
#964=CIRCLE('',#1170,2.5);
#965=CIRCLE('',#1171,2.5);
#966=CIRCLE('',#1172,2.5);
#967=CIRCLE('',#1173,2.5);
#968=CIRCLE('',#1174,2.5);
#969=CIRCLE('',#1175,2.5);
#970=CIRCLE('',#1176,2.5);
#971=CIRCLE('',#1177,2.5);
#972=CIRCLE('',#1178,2.5);
#973=CIRCLE('',#1179,2.5);
#974=CIRCLE('',#1180,2.5);
#975=CIRCLE('',#1181,2.5);
#976=CIRCLE('',#1182,2.5);
#977=VERTEX_POINT('',#1183);
#978=B_SPLINE_CURVE_WITH_KNOTS('',3,(#1184,#1185,#1186,#1187),.UNSPECIFIED.,.F.,.F.,(4,4),(0.0,0.999999999999998),.UNSPECIFIED.);
#979=LINE('',#1188,#1189);
#980=VERTEX_POINT('',#1190);
#981=LINE('',#1191,#1192);
#982=B_SPLINE_CURVE_WITH_KNOTS('',3,(#1193,#1194,#1195,#1196),.UNSPECIFIED.,.F.,.F.,(4,4),(6.00247460379567E-16,1.0),.UNSPECIFIED.);
#983=VERTEX_POINT('',#1197);
#984=VERTEX_POINT('',#1198);
#985=LINE('',#1199,#1200);
#986=LINE('',#1201,#1202);
#987=LINE('',#1203,#1204);
#988=VERTEX_POINT('',#1205);
#989=VERTEX_POINT('',#1206);
#990=LINE('',#1207,#1208);
#991=LINE('',#1209,#1210);
#992=ELLIPSE('',#1211,52.7618470108847,52.5);
#993=VERTEX_POINT('',#1212);
#994=LINE('',#1213,#1214);
#995=VERTEX_POINT('',#1215);
#996=LINE('',#1216,#1217);
#997=ELLIPSE('',#1218,52.7618470108847,52.5);
#998=VERTEX_POINT('',#1219);
#999=LINE('',#1220,#1221);
#1000=VERTEX_POINT('',#1222);
#1001=LINE('',#1223,#1224);
#1002=LINE('',#1225,#1226);
#1003=VERTEX_POINT('',#1227);
#1004=B_SPLINE_CURVE_WITH_KNOTS('',3,(#1228,#1229,#1230,#1231),.UNSPECIFIED.,.F.,.F.,(4,4),(5.35669186995002E-14,1.0),.UNSPECIFIED.);
#1005=ELLIPSE('',#1232,50.274869467757,50.0);
#1006=VERTEX_POINT('',#1233);
#1007=ELLIPSE('',#1234,50.274869467757,50.0);
#1008=B_SPLINE_CURVE_WITH_KNOTS('',3,(#1235,#1236,#1237,#1238),.UNSPECIFIED.,.F.,.F.,(4,4),(0.0,1.0),.UNSPECIFIED.);
#1009=CIRCLE('',#1239,2.5);
#1010=CIRCLE('',#1240,2.5);
#1011=CIRCLE('',#1241,2.5);
#1012=CIRCLE('',#1242,2.5);
#1013=CIRCLE('',#1243,2.5);
#1014=CIRCLE('',#1244,2.5);
#1015=CIRCLE('',#1245,2.5);
#1016=CIRCLE('',#1246,2.5);
#1017=CIRCLE('',#1247,2.5);
#1018=CIRCLE('',#1248,2.5);
#1019=CIRCLE('',#1249,2.5);
#1020=CARTESIAN_POINT('',(-5.04902432036082,8.11241734168247E-15,28.0));
#1021=CARTESIAN_POINT('',(-7.38920967616515,1.20359170548423E-14,28.0547946995862));
#1022=AXIS2_PLACEMENT_3D('',#1250,#1251,#1252);
#1023=CARTESIAN_POINT('',(-7.50621894395537,-2.49999999999999,25.5575344345656));
#1024=AXIS2_PLACEMENT_3D('',#1253,#1254,#1255);
#1025=CARTESIAN_POINT('',(-5.04902432036082,-2.49999999999999,25.5));
#1026=AXIS2_PLACEMENT_3D('',#1256,#1257,#1258);
#1027=AXIS2_PLACEMENT_3D('',#1259,#1260,#1261);
#1028=CARTESIAN_POINT('',(7.38920967616515,1.67993387610587E-14,28.0547946995862));
#1029=CARTESIAN_POINT('',(5.04902432036082,1.13672487914381E-14,28.0));
#1030=AXIS2_PLACEMENT_3D('',#1262,#1263,#1264);
#1031=CARTESIAN_POINT('',(5.04902432036082,-2.49999999999999,25.5));
#1032=AXIS2_PLACEMENT_3D('',#1265,#1266,#1267);
#1033=CARTESIAN_POINT('',(7.50621894395537,-2.49999999999998,25.5575344345656));
#1034=AXIS2_PLACEMENT_3D('',#1268,#1269,#1270);
#1035=AXIS2_PLACEMENT_3D('',#1271,#1272,#1273);
#1036=CARTESIAN_POINT('',(-17.5,0.737531094719795,29.4504902432036));
#1037=CARTESIAN_POINT('',(-17.5,-0.73753109471977,29.4504902432036));
#1038=CARTESIAN_POINT('',(-17.5,1.33226762955019E-14,29.4504902432036));
#1039=VECTOR('',#1274,1.0);
#1040=CARTESIAN_POINT('',(-17.0097096621545,-0.73753109471977,29.4019419324309));
#1041=AXIS2_PLACEMENT_3D('',#1275,#1276,#1277);
#1042=CARTESIAN_POINT('',(-17.0097096621545,0.737531094719796,29.4019419324309));
#1043=CARTESIAN_POINT('',(-17.0097096621545,-1.03656012850432,29.4019419324309));
#1044=VECTOR('',#1278,1.0);
#1045=AXIS2_PLACEMENT_3D('',#1279,#1280,#1281);
#1046=CARTESIAN_POINT('',(17.5,0.737531094719807,29.4504902432036));
#1047=CARTESIAN_POINT('',(17.5,-0.737531094719758,29.4504902432036));
#1048=CARTESIAN_POINT('',(17.5,2.39808173319034E-14,29.4504902432036));
#1049=VECTOR('',#1282,1.0);
#1050=CARTESIAN_POINT('',(20.0,-0.737531094719757,26.9504902432036));
#1051=AXIS2_PLACEMENT_3D('',#1283,#1284,#1285);
#1052=CARTESIAN_POINT('',(20.0,0.737531094719808,26.9504902432036));
#1053=CARTESIAN_POINT('',(20.0,1.03656012850436,26.9504902432036));
#1054=VECTOR('',#1286,1.0);
#1055=AXIS2_PLACEMENT_3D('',#1287,#1288,#1289);
#1056=CARTESIAN_POINT('',(7.50621894395537,-2.49999999999998,0.0));
#1057=CARTESIAN_POINT('',(7.50621894395537,-2.49999999999998,30.0));
#1058=VECTOR('',#1290,1.0);
#1059=CARTESIAN_POINT('',(12.4814048950053,-2.7481404895005,0.0));
#1060=AXIS2_PLACEMENT_3D('',#1291,#1292,#1293);
#1061=CARTESIAN_POINT('',(12.4814048950053,-2.7481404895005,26.0649435326797));
#1062=CARTESIAN_POINT('',(12.4814048950053,-2.7481404895005,30.0));
#1063=VECTOR('',#1294,1.0);
#1064=CARTESIAN_POINT('',(12.4814048950053,-2.74814048950053,26.0649435326797));
#1065=CARTESIAN_POINT('',(10.8359029964741,-2.58359029964741,25.809407144401));
#1066=CARTESIAN_POINT('',(9.17760321039737,-2.49999999999998,25.6397628768907));
#1067=CARTESIAN_POINT('',(7.50621894395537,-2.49999999999998,25.5575344345656));
#1068=CARTESIAN_POINT('',(5.04902432036082,-2.49999999999999,25.5));
#1069=VECTOR('',#1295,1.0);
#1070=CARTESIAN_POINT('',(-7.50621894395537,-2.49999999999999,0.0));
#1071=CARTESIAN_POINT('',(-7.50621894395537,-2.49999999999999,30.0));
#1072=VECTOR('',#1296,1.0);
#1073=CARTESIAN_POINT('',(7.50621894395534,-2.49999999999999,0.0));
#1074=VECTOR('',#1297,1.0);
#1075=CARTESIAN_POINT('',(7.50621894395526,2.50000000000001,25.5575344345656));
#1076=CARTESIAN_POINT('',(7.50621894395526,2.50000000000001,0.0));
#1077=CARTESIAN_POINT('',(7.50621894395526,2.50000000000001,30.0));
#1078=VECTOR('',#1298,1.0);
#1079=CARTESIAN_POINT('',(-7.50621894395526,2.50000000000001,0.0));
#1080=CARTESIAN_POINT('',(-2.49979248770437E-15,2.49999999999997,0.0));
#1081=VECTOR('',#1299,1.0);
#1082=CARTESIAN_POINT('',(-7.50621894395526,2.50000000000001,25.5575344345656));
#1083=CARTESIAN_POINT('',(-7.50621894395526,2.50000000000001,30.0));
#1084=VECTOR('',#1300,1.0);
#1085=CARTESIAN_POINT('',(-5.04902432036081,2.5,25.5));
#1086=AXIS2_PLACEMENT_3D('',#1301,#1302,#1303);
#1087=CARTESIAN_POINT('',(5.04902432036081,2.5,25.5));
#1088=CARTESIAN_POINT('',(-3.04739590662009E-15,2.49999999999997,25.5));
#1089=VECTOR('',#1304,1.0);
#1090=AXIS2_PLACEMENT_3D('',#1305,#1306,#1307);
#1091=CARTESIAN_POINT('',(12.4814048950053,2.74814048950053,26.0649435326797));
#1092=CARTESIAN_POINT('',(12.4814048950053,2.74814048950053,0.0));
#1093=CARTESIAN_POINT('',(12.4814048950053,2.74814048950053,30.0));
#1094=VECTOR('',#1308,1.0);
#1095=AXIS2_PLACEMENT_3D('',#1309,#1310,#1311);
#1096=CARTESIAN_POINT('',(7.50621894395526,2.49999999999998,25.5575344345656));
#1097=CARTESIAN_POINT('',(9.1776032103973,2.49999999999998,25.6397628768907));
#1098=CARTESIAN_POINT('',(10.8359029964741,2.58359029964741,25.809407144401));
#1099=CARTESIAN_POINT('',(12.4814048950053,2.74814048950053,26.0649435326797));
#1100=CARTESIAN_POINT('',(20.0,-0.737531094719757,0.0));
#1101=CARTESIAN_POINT('',(20.0,-0.737531094719757,30.0));
#1102=VECTOR('',#1312,1.0);
#1103=CARTESIAN_POINT('',(20.0,0.737531094719808,0.0));
#1104=CARTESIAN_POINT('',(20.0,3.50000000000004,0.0));
#1105=VECTOR('',#1313,1.0);
#1106=CARTESIAN_POINT('',(20.0,0.737531094719808,30.0));
#1107=VECTOR('',#1314,1.0);
#1108=CARTESIAN_POINT('',(17.2512407024475,-3.22512407024473,26.9504902432036));
#1109=CARTESIAN_POINT('',(15.096362117563,-3.00963621175627,26.5195145262267));
#1110=CARTESIAN_POINT('',(20.4761443613878,-3.54761443613876,27.5954709749917));
#1111=VECTOR('',#1315,1.0);
#1112=AXIS2_PLACEMENT_3D('',#1316,#1317,#1318);
#1113=CARTESIAN_POINT('',(17.2512407024475,-3.22512407024473,0.0));
#1114=CARTESIAN_POINT('',(20.0,-3.49999999999999,0.0));
#1115=VECTOR('',#1319,1.0);
#1116=CARTESIAN_POINT('',(17.2512407024475,-3.22512407024473,30.0));
#1117=VECTOR('',#1320,1.0);
#1118=CARTESIAN_POINT('',(17.2512407024475,3.22512407024478,0.0));
#1119=CARTESIAN_POINT('',(12.4814048950052,2.74814048950054,0.0));
#1120=VECTOR('',#1321,1.0);
#1121=CARTESIAN_POINT('',(15.096362117563,3.00963621175632,26.5195145262267));
#1122=AXIS2_PLACEMENT_3D('',#1322,#1323,#1324);
#1123=CARTESIAN_POINT('',(17.2512407024475,3.22512407024478,26.9504902432036));
#1124=CARTESIAN_POINT('',(15.3309754386578,3.0330975438658,26.5664371904457));
#1125=VECTOR('',#1325,1.0);
#1126=CARTESIAN_POINT('',(17.2512407024475,3.22512407024478,30.0));
#1127=VECTOR('',#1326,1.0);
#1128=AXIS2_PLACEMENT_3D('',#1327,#1328,#1329);
#1129=CARTESIAN_POINT('',(-12.4814048950053,-2.74814048950051,0.0));
#1130=AXIS2_PLACEMENT_3D('',#1330,#1331,#1332);
#1131=CARTESIAN_POINT('',(-17.2512407024475,-3.22512407024474,0.0));
#1132=CARTESIAN_POINT('',(-20.0,-3.5,0.0));
#1133=VECTOR('',#1333,1.0);
#1134=CARTESIAN_POINT('',(-20.0,-0.737531094719769,0.0));
#1135=AXIS2_PLACEMENT_3D('',#1334,#1335,#1336);
#1136=CARTESIAN_POINT('',(-20.0,0.737531094719795,0.0));
#1137=CARTESIAN_POINT('',(-20.0,3.50000000000003,0.0));
#1138=VECTOR('',#1337,1.0);
#1139=CARTESIAN_POINT('',(-17.2512407024475,3.22512407024477,0.0));
#1140=AXIS2_PLACEMENT_3D('',#1338,#1339,#1340);
#1141=CARTESIAN_POINT('',(-12.4814048950053,2.74814048950053,0.0));
#1142=CARTESIAN_POINT('',(-12.4814048950053,2.74814048950053,0.0));
#1143=VECTOR('',#1341,1.0);
#1144=AXIS2_PLACEMENT_3D('',#1342,#1343,#1344);
#1145=AXIS2_PLACEMENT_3D('',#1345,#1346,#1347);
#1146=CARTESIAN_POINT('',(17.0097096621545,0.737531094719807,29.4019419324309));
#1147=CARTESIAN_POINT('',(14.85483107727,0.522043236231344,28.970966215454));
#1148=CARTESIAN_POINT('',(20.2346133210948,1.06002146061385,30.046922664219));
#1149=VECTOR('',#1348,1.0);
#1150=CARTESIAN_POINT('',(14.85483107727,-0.5220432362313,28.970966215454));
#1151=CARTESIAN_POINT('',(14.85483107727,-4.99999999999999,28.970966215454));
#1152=VECTOR('',#1349,1.0);
#1153=CARTESIAN_POINT('',(17.0097096621545,-0.737531094719759,29.4019419324309));
#1154=CARTESIAN_POINT('',(15.0894443983648,-0.545504568340784,29.017888879673));
#1155=VECTOR('',#1350,1.0);
#1156=CARTESIAN_POINT('',(17.0097096621545,-1.03656012850431,29.4019419324309));
#1157=VECTOR('',#1351,1.0);
#1158=CARTESIAN_POINT('',(12.3643956272151,0.260547513975566,28.538041459695));
#1159=CARTESIAN_POINT('',(12.3643956272151,0.260547513975559,28.538041459695));
#1160=CARTESIAN_POINT('',(10.718500672093,0.0877285436877417,28.2946153382044));
#1161=CARTESIAN_POINT('',(9.06019456237387,-1.31332985323081E-14,28.1330887888177));
#1162=CARTESIAN_POINT('',(7.38920967616506,-1.34272824825204E-14,28.0547946995862));
#1163=CARTESIAN_POINT('',(12.3643956272151,-0.260547513975549,28.538041459695));
#1164=CARTESIAN_POINT('',(7.38920967616515,1.92202425602634E-14,28.0547946995862));
#1165=CARTESIAN_POINT('',(9.06019456237396,1.82387999580279E-14,28.1330887888178));
#1166=CARTESIAN_POINT('',(10.718500672093,-0.0877285436877346,28.2946153382044));
#1167=CARTESIAN_POINT('',(12.3643956272151,-0.260547513975549,28.538041459695));
#1168=AXIS2_PLACEMENT_3D('',#1352,#1353,#1354);
#1169=AXIS2_PLACEMENT_3D('',#1355,#1356,#1357);
#1170=AXIS2_PLACEMENT_3D('',#1358,#1359,#1360);
#1171=AXIS2_PLACEMENT_3D('',#1361,#1362,#1363);
#1172=AXIS2_PLACEMENT_3D('',#1364,#1365,#1366);
#1173=AXIS2_PLACEMENT_3D('',#1367,#1368,#1369);
#1174=AXIS2_PLACEMENT_3D('',#1370,#1371,#1372);
#1175=AXIS2_PLACEMENT_3D('',#1373,#1374,#1375);
#1176=AXIS2_PLACEMENT_3D('',#1376,#1377,#1378);
#1177=AXIS2_PLACEMENT_3D('',#1379,#1380,#1381);
#1178=AXIS2_PLACEMENT_3D('',#1382,#1383,#1384);
#1179=AXIS2_PLACEMENT_3D('',#1385,#1386,#1387);
#1180=AXIS2_PLACEMENT_3D('',#1388,#1389,#1390);
#1181=AXIS2_PLACEMENT_3D('',#1391,#1392,#1393);
#1182=AXIS2_PLACEMENT_3D('',#1394,#1395,#1396);
#1183=CARTESIAN_POINT('',(-12.4814048950053,-2.74814048950051,26.0649435326797));
#1184=CARTESIAN_POINT('',(-7.50621894395537,-2.49999999999999,25.5575344345656));
#1185=CARTESIAN_POINT('',(-9.17760321039737,-2.49999999999999,25.6397628768907));
#1186=CARTESIAN_POINT('',(-10.8359029964741,-2.58359029964742,25.809407144401));
#1187=CARTESIAN_POINT('',(-12.4814048950053,-2.74814048950054,26.0649435326797));
#1188=CARTESIAN_POINT('',(-12.4814048950053,-2.74814048950051,30.0));
#1189=VECTOR('',#1397,1.0);
#1190=CARTESIAN_POINT('',(-12.4814048950053,2.74814048950053,26.0649435326797));
#1191=CARTESIAN_POINT('',(-12.4814048950053,2.74814048950053,30.0));
#1192=VECTOR('',#1398,1.0);
#1193=CARTESIAN_POINT('',(-12.4814048950053,2.74814048950052,26.0649435326797));
#1194=CARTESIAN_POINT('',(-10.8359029964741,2.5835902996474,25.809407144401));
#1195=CARTESIAN_POINT('',(-9.17760321039731,2.49999999999998,25.6397628768907));
#1196=CARTESIAN_POINT('',(-7.50621894395526,2.49999999999998,25.5575344345656));
#1197=CARTESIAN_POINT('',(-20.0,-0.73753109471977,26.9504902432036));
#1198=CARTESIAN_POINT('',(-20.0,0.737531094719795,26.9504902432036));
#1199=CARTESIAN_POINT('',(-20.0,1.03656012850435,26.9504902432036));
#1200=VECTOR('',#1399,1.0);
#1201=CARTESIAN_POINT('',(-20.0,0.737531094719795,30.0));
#1202=VECTOR('',#1400,1.0);
#1203=CARTESIAN_POINT('',(-20.0,-0.737531094719769,30.0));
#1204=VECTOR('',#1401,1.0);
#1205=CARTESIAN_POINT('',(-15.096362117563,-3.00963621175628,26.5195145262267));
#1206=CARTESIAN_POINT('',(-17.2512407024475,-3.22512407024474,26.9504902432036));
#1207=CARTESIAN_POINT('',(-20.4761443613878,-3.54761443613878,27.5954709749917));
#1208=VECTOR('',#1402,1.0);
#1209=CARTESIAN_POINT('',(-17.2512407024475,-3.22512407024474,30.0));
#1210=VECTOR('',#1403,1.0);
#1211=AXIS2_PLACEMENT_3D('',#1404,#1405,#1406);
#1212=CARTESIAN_POINT('',(-17.2512407024475,3.22512407024477,26.9504902432036));
#1213=CARTESIAN_POINT('',(-17.2512407024475,3.22512407024477,30.0));
#1214=VECTOR('',#1407,1.0);
#1215=CARTESIAN_POINT('',(-15.096362117563,3.00963621175631,26.5195145262267));
#1216=CARTESIAN_POINT('',(-15.3309754386578,3.03309754386579,26.5664371904457));
#1217=VECTOR('',#1408,1.0);
#1218=AXIS2_PLACEMENT_3D('',#1409,#1410,#1411);
#1219=CARTESIAN_POINT('',(-14.85483107727,0.522043236231335,28.970966215454));
#1220=CARTESIAN_POINT('',(-20.2346133210948,1.06002146061383,30.046922664219));
#1221=VECTOR('',#1412,1.0);
#1222=CARTESIAN_POINT('',(-14.85483107727,-0.52204323623131,28.970966215454));
#1223=CARTESIAN_POINT('',(-15.0894443983648,-0.545504568340793,29.017888879673));
#1224=VECTOR('',#1413,1.0);
#1225=CARTESIAN_POINT('',(-14.85483107727,-5.0,28.970966215454));
#1226=VECTOR('',#1414,1.0);
#1227=CARTESIAN_POINT('',(-12.3643956272151,0.260547513975558,28.538041459695));
#1228=CARTESIAN_POINT('',(-7.38920967616506,-1.81907041887367E-14,28.0547946995862));
#1229=CARTESIAN_POINT('',(-9.06019456237387,-1.89733523004661E-14,28.1330887888177));
#1230=CARTESIAN_POINT('',(-10.718500672093,0.0877285436877347,28.2946153382044));
#1231=CARTESIAN_POINT('',(-12.3643956272151,0.260547513975551,28.538041459695));
#1232=AXIS2_PLACEMENT_3D('',#1415,#1416,#1417);
#1233=CARTESIAN_POINT('',(-12.3643956272151,-0.260547513975557,28.538041459695));
#1234=AXIS2_PLACEMENT_3D('',#1418,#1419,#1420);
#1235=CARTESIAN_POINT('',(-12.3643956272151,-0.260547513975557,28.538041459695));
#1236=CARTESIAN_POINT('',(-10.718500672093,-0.0877285436877416,28.2946153382044));
#1237=CARTESIAN_POINT('',(-9.06019456237396,1.23987461898698E-14,28.1330887888178));
#1238=CARTESIAN_POINT('',(-7.38920967616515,1.44568208540471E-14,28.0547946995862));
#1239=AXIS2_PLACEMENT_3D('',#1421,#1422,#1423);
#1240=AXIS2_PLACEMENT_3D('',#1424,#1425,#1426);
#1241=AXIS2_PLACEMENT_3D('',#1427,#1428,#1429);
#1242=AXIS2_PLACEMENT_3D('',#1430,#1431,#1432);
#1243=AXIS2_PLACEMENT_3D('',#1433,#1434,#1435);
#1244=AXIS2_PLACEMENT_3D('',#1436,#1437,#1438);
#1245=AXIS2_PLACEMENT_3D('',#1439,#1440,#1441);
#1246=AXIS2_PLACEMENT_3D('',#1442,#1443,#1444);
#1247=AXIS2_PLACEMENT_3D('',#1445,#1446,#1447);
#1248=AXIS2_PLACEMENT_3D('',#1448,#1449,#1450);
#1249=AXIS2_PLACEMENT_3D('',#1451,#1452,#1453);
#1250=CARTESIAN_POINT('',(-5.04902432036081,8.11241734168247E-15,78.0));
#1251=DIRECTION('',(2.31104833062957E-16,-1.0,0.0));
#1252=DIRECTION('',(0.0,0.0,1.0));
#1253=CARTESIAN_POINT('',(-7.50621894395537,6.93889390390723E-15,25.5575344345656));
#1254=DIRECTION('',(-0.998904106008275,-3.46564480588436E-16,0.0468037071160866));
#1255=DIRECTION('',(0.0468037071160866,3.8476386586654E-33,0.998904106008275));
#1256=CARTESIAN_POINT('',(-5.04902432036081,-2.49999999999999,78.0));
#1257=DIRECTION('',(-2.31296463463574E-16,1.0,0.0));
#1258=DIRECTION('',(-1.0,-2.31296463463574E-16,0.0));
#1259=CARTESIAN_POINT('',(-5.04902432036082,7.37257477290143E-15,25.5));
#1260=DIRECTION('',(-1.0,-3.46944695195361E-16,3.46944695195361E-16));
#1261=DIRECTION('',(3.46944695195361E-16,1.3684555315672E-47,1.0));
#1262=CARTESIAN_POINT('',(5.04902432036081,1.13672487914381E-14,78.0));
#1263=DIRECTION('',(4.13540794138746E-16,-1.0,0.0));
#1264=DIRECTION('',(0.0,0.0,1.0));
#1265=CARTESIAN_POINT('',(5.04902432036082,1.06274062226571E-14,25.5));
#1266=DIRECTION('',(1.0,2.97700932006342E-16,3.46944695195361E-16));
#1267=DIRECTION('',(-3.46944695195361E-16,-1.17422313353831E-47,1.0));
#1268=CARTESIAN_POINT('',(5.04902432036081,-2.49999999999999,78.0));
#1269=DIRECTION('',(-4.13029399042097E-16,1.0,0.0));
#1270=DIRECTION('',(1.0,4.13029399042097E-16,0.0));
#1271=CARTESIAN_POINT('',(7.50621894395537,1.17777451229466E-14,25.5575344345656));
#1272=DIRECTION('',(0.998904106008275,2.97374683343626E-16,0.0468037071160866));
#1273=DIRECTION('',(-0.0468037071160866,-3.01718051292145E-17,0.998904106008275));
#1274=DIRECTION('',(-0.0,1.0,-0.0));
#1275=CARTESIAN_POINT('',(-17.5,-0.73753109471977,26.9504902432036));
#1276=DIRECTION('',(0.0,1.0,-4.33680868994203E-17));
#1277=DIRECTION('',(0.0,4.33680868994203E-17,1.0));
#1278=DIRECTION('',(0.0,-1.0,0.0));
#1279=CARTESIAN_POINT('',(-17.5,0.737531094719795,26.9504902432036));
#1280=DIRECTION('',(0.0,1.0,-8.67361737988405E-17));
#1281=DIRECTION('',(0.0,8.67361737988405E-17,1.0));
#1282=DIRECTION('',(-6.44645627201704E-16,1.0,-0.0));
#1283=CARTESIAN_POINT('',(17.5,-0.737531094719758,26.9504902432036));
#1284=DIRECTION('',(-6.44645627201704E-16,1.0,-4.33680868994203E-17));
#1285=DIRECTION('',(-3.17834833138189E-48,4.33680868994203E-17,1.0));
#1286=DIRECTION('',(6.44645627201704E-16,-1.0,0.0));
#1287=CARTESIAN_POINT('',(17.5,0.737531094719807,26.9504902432036));
#1288=DIRECTION('',(-6.44645627201704E-16,1.0,-8.67361737988405E-17));
#1289=DIRECTION('',(-6.35669666276379E-48,8.67361737988405E-17,1.0));
#1290=DIRECTION('',(0.0,0.0,1.0));
#1291=CARTESIAN_POINT('',(7.50621894395534,-52.5,0.0));
#1292=DIRECTION('',(-0.0,0.0,-1.0));
#1293=DIRECTION('',(-1.0,-5.55111512312578E-16,0.0));
#1294=DIRECTION('',(0.0,0.0,1.0));
#1295=DIRECTION('',(-1.0,-4.13540794138746E-16,0.0));
#1296=DIRECTION('',(0.0,0.0,-1.0));
#1297=DIRECTION('',(1.0,4.13540794138746E-16,0.0));
#1298=DIRECTION('',(0.0,0.0,1.0));
#1299=DIRECTION('',(-1.0,-5.38229470499238E-15,0.0));
#1300=DIRECTION('',(0.0,0.0,-1.0));
#1301=CARTESIAN_POINT('',(-5.04902432036079,2.5,78.0));
#1302=DIRECTION('',(-4.74157750100327E-15,-1.0,0.0));
#1303=DIRECTION('',(1.0,-4.74157750100327E-15,0.0));
#1304=DIRECTION('',(1.0,5.38229470499238E-15,0.0));
#1305=CARTESIAN_POINT('',(5.04902432036079,2.5,78.0));
#1306=DIRECTION('',(5.38590336350895E-15,-1.0,0.0));
#1307=DIRECTION('',(-1.0,-5.38590336350895E-15,0.0));
#1308=DIRECTION('',(0.0,0.0,1.0));
#1309=CARTESIAN_POINT('',(7.50621894395526,52.5,0.0));
#1310=DIRECTION('',(-0.0,0.0,-1.0));
#1311=DIRECTION('',(-1.0,-5.55111512312578E-16,0.0));
#1312=DIRECTION('',(0.0,0.0,-1.0));
#1313=DIRECTION('',(-6.44645627201704E-16,1.0,0.0));
#1314=DIRECTION('',(0.0,0.0,1.0));
#1315=DIRECTION('',(-0.975900072948533,0.0975900072948551,-0.195180014589705));
#1316=CARTESIAN_POINT('',(4.8002650228083,-1.98002650228079,78.0));
#1317=DIRECTION('',(0.0995037190210008,0.995037190209989,0.0));
#1318=DIRECTION('',(-0.995037190209989,0.0995037190210008,0.0));
#1319=DIRECTION('',(0.995037190209989,-0.0995037190210008,0.0));
#1320=DIRECTION('',(0.0,0.0,1.0));
#1321=DIRECTION('',(-0.995037190209989,-0.0995037190210024,0.0));
#1322=CARTESIAN_POINT('',(4.8002650228083,1.98002650228081,78.0));
#1323=DIRECTION('',(0.0995037190210025,-0.995037190209989,0.0));
#1324=DIRECTION('',(0.995037190209989,0.0995037190210025,0.0));
#1325=DIRECTION('',(0.975900072948533,0.0975900072948568,0.195180014589705));
#1326=DIRECTION('',(0.0,0.0,-1.0));
#1327=CARTESIAN_POINT('',(17.5,-0.737531094719758,0.0));
#1328=DIRECTION('',(0.0,0.0,-1.0));
#1329=DIRECTION('',(1.0,6.50521303491304E-16,0.0));
#1330=CARTESIAN_POINT('',(-7.5062189439553,-52.5,0.0));
#1331=DIRECTION('',(0.0,0.0,-1.0));
#1332=DIRECTION('',(1.0,1.38777878078145E-16,0.0));
#1333=DIRECTION('',(0.995037190209989,0.0995037190210014,0.0));
#1334=CARTESIAN_POINT('',(-17.5,-0.737531094719769,0.0));
#1335=DIRECTION('',(0.0,0.0,-1.0));
#1336=DIRECTION('',(-1.0,0.0,0.0));
#1337=DIRECTION('',(0.0,-1.0,0.0));
#1338=CARTESIAN_POINT('',(-17.5,0.737531094719795,0.0));
#1339=DIRECTION('',(0.0,0.0,-1.0));
#1340=DIRECTION('',(-1.0,0.0,0.0));
#1341=DIRECTION('',(-0.995037190209989,0.0995037190210018,0.0));
#1342=CARTESIAN_POINT('',(-7.5062189439553,52.5,0.0));
#1343=DIRECTION('',(0.0,0.0,-1.0));
#1344=DIRECTION('',(1.0,1.38777878078144E-16,0.0));
#1345=CARTESIAN_POINT('',(17.5,0.737531094719806,0.0));
#1346=DIRECTION('',(0.0,0.0,-1.0));
#1347=DIRECTION('',(1.0,6.50521303491304E-16,0.0));
#1348=DIRECTION('',(-0.975900072948533,-0.0975900072948568,-0.195180014589705));
#1349=DIRECTION('',(-6.44645627201704E-16,1.0,0.0));
#1350=DIRECTION('',(0.975900072948533,-0.0975900072948552,0.195180014589705));
#1351=DIRECTION('',(-6.44645627201704E-16,1.0,0.0));
#1352=CARTESIAN_POINT('',(5.04902432036081,0.507566473244183,78.0));
#1353=DIRECTION('',(-0.104425930003998,-0.994532666704719,0.0));
#1354=DIRECTION('',(-0.994532666704719,0.104425930003998,0.0));
#1355=CARTESIAN_POINT('',(5.04902432036081,-0.507566473244159,78.0));
#1356=DIRECTION('',(-0.104425930003999,0.994532666704719,0.0));
#1357=DIRECTION('',(0.994532666704719,0.104425930003999,0.0));
#1358=CARTESIAN_POINT('',(-5.04902432036082,7.37257477290143E-15,25.5));
#1359=DIRECTION('',(-1.0,-3.46944695195361E-16,3.46944695195361E-16));
#1360=DIRECTION('',(3.46944695195361E-16,1.3684555315672E-47,1.0));
#1361=CARTESIAN_POINT('',(5.04902432036082,1.06274062226571E-14,25.5));
#1362=DIRECTION('',(1.0,2.97700932006342E-16,3.46944695195361E-16));
#1363=DIRECTION('',(-3.46944695195361E-16,-1.17422313353831E-47,1.0));
#1364=CARTESIAN_POINT('',(7.50621894395527,1.22353183009605E-14,25.5575344345656));
#1365=DIRECTION('',(0.998904106008275,5.43088870057255E-15,0.0468037071160853));
#1366=DIRECTION('',(-0.0468037071160853,-3.01718051292139E-17,0.998904106008275));
#1367=CARTESIAN_POINT('',(15.3451214151155,-0.5220432362313,26.5195145262267));
#1368=DIRECTION('',(0.975900072948533,-0.0975900072948529,0.195180014589706));
#1369=DIRECTION('',(0.196116135138183,1.25770393775378E-16,-0.98058067569092));
#1370=CARTESIAN_POINT('',(17.5,-0.737531094719758,26.9504902432036));
#1371=DIRECTION('',(-0.975900072948534,0.0975900072948552,-0.195180014589705));
#1372=DIRECTION('',(-0.196116135138182,-1.32271194159703E-16,0.980580675690921));
#1373=CARTESIAN_POINT('',(12.7301641925578,-0.260547513975546,26.0649435326797));
#1374=DIRECTION('',(0.984434090597576,-0.0984434090597572,0.145596759860981));
#1375=DIRECTION('',(-0.146307426137083,-8.67361737988404E-17,0.989239170806101));
#1376=CARTESIAN_POINT('',(12.7301641925578,0.260547513975566,26.0649435326797));
#1377=DIRECTION('',(0.984434090597576,0.0984434090597608,0.145596759860982));
#1378=DIRECTION('',(-0.146307426137085,-8.89220565860552E-17,0.989239170806101));
#1379=CARTESIAN_POINT('',(15.3451214151155,0.522043236231344,26.5195145262267));
#1380=DIRECTION('',(0.975900072948533,0.0975900072948568,0.195180014589707));
#1381=DIRECTION('',(0.196116135138184,1.27937327236819E-16,-0.98058067569092));
#1382=CARTESIAN_POINT('',(17.5,0.737531094719807,26.9504902432036));
#1383=DIRECTION('',(-0.975900072948533,-0.0975900072948568,-0.195180014589705));
#1384=DIRECTION('',(0.196116135138182,1.25770393775378E-16,-0.980580675690921));
#1385=CARTESIAN_POINT('',(17.5,-0.737531094719758,26.9504902432036));
#1386=DIRECTION('',(0.0,0.0,1.0));
#1387=DIRECTION('',(-1.0,-6.50521303491303E-16,0.0));
#1388=CARTESIAN_POINT('',(17.5,-0.737531094719758,26.9504902432036));
#1389=DIRECTION('',(-6.44645627201704E-16,1.0,-4.33680868994203E-17));
#1390=DIRECTION('',(-3.17834833138189E-48,4.33680868994203E-17,1.0));
#1391=CARTESIAN_POINT('',(17.5,0.737531094719807,26.9504902432036));
#1392=DIRECTION('',(-6.44645627201704E-16,1.0,-8.67361737988405E-17));
#1393=DIRECTION('',(-6.35669666276379E-48,8.67361737988405E-17,1.0));
#1394=CARTESIAN_POINT('',(17.5,0.737531094719807,26.9504902432036));
#1395=DIRECTION('',(0.0,0.0,-1.0));
#1396=DIRECTION('',(1.0,6.50521303491304E-16,0.0));
#1397=DIRECTION('',(0.0,0.0,-1.0));
#1398=DIRECTION('',(0.0,0.0,-1.0));
#1399=DIRECTION('',(0.0,1.0,0.0));
#1400=DIRECTION('',(0.0,0.0,-1.0));
#1401=DIRECTION('',(0.0,0.0,1.0));
#1402=DIRECTION('',(-0.975900072948533,-0.0975900072948558,0.195180014589705));
#1403=DIRECTION('',(0.0,0.0,-1.0));
#1404=CARTESIAN_POINT('',(-4.8002650228083,-1.98002650228079,78.0));
#1405=DIRECTION('',(-0.0995037190210014,0.995037190209989,0.0));
#1406=DIRECTION('',(0.995037190209989,0.0995037190210014,0.0));
#1407=DIRECTION('',(0.0,0.0,1.0));
#1408=DIRECTION('',(0.975900072948533,-0.0975900072948562,-0.195180014589705));
#1409=CARTESIAN_POINT('',(-4.8002650228083,1.98002650228081,78.0));
#1410=DIRECTION('',(-0.0995037190210018,-0.995037190209989,0.0));
#1411=DIRECTION('',(-0.995037190209989,0.0995037190210018,0.0));
#1412=DIRECTION('',(-0.975900072948533,0.0975900072948562,0.195180014589705));
#1413=DIRECTION('',(0.975900072948533,0.0975900072948558,-0.195180014589705));
#1414=DIRECTION('',(0.0,-1.0,0.0));
#1415=CARTESIAN_POINT('',(-5.04902432036081,-0.507566473244162,78.0));
#1416=DIRECTION('',(0.104425930003999,0.994532666704719,0.0));
#1417=DIRECTION('',(-0.994532666704719,0.104425930003999,0.0));
#1418=CARTESIAN_POINT('',(-5.04902432036081,0.50756647324418,78.0));
#1419=DIRECTION('',(0.104425930003998,-0.994532666704719,0.0));
#1420=DIRECTION('',(0.994532666704719,0.104425930003998,0.0));
#1421=CARTESIAN_POINT('',(-7.50621894395527,7.39646708192119E-15,25.5575344345656));
#1422=DIRECTION('',(-0.998904106008275,4.78694953664049E-15,0.0468037071160853));
#1423=DIRECTION('',(0.0468037071160853,0.0,0.998904106008275));
#1424=CARTESIAN_POINT('',(-17.5,-0.73753109471977,26.9504902432036));
#1425=DIRECTION('',(0.975900072948533,0.0975900072948559,-0.195180014589705));
#1426=DIRECTION('',(0.196116135138182,-2.16693346144172E-18,0.980580675690921));
#1427=CARTESIAN_POINT('',(-15.3451214151155,-0.52204323623131,26.5195145262267));
#1428=DIRECTION('',(-0.975900072948534,-0.0975900072948535,0.195180014589706));
#1429=DIRECTION('',(-0.196116135138183,-2.16693346144167E-18,-0.98058067569092));
#1430=CARTESIAN_POINT('',(-12.7301641925578,-0.260547513975554,26.0649435326797));
#1431=DIRECTION('',(-0.984434090597576,-0.0984434090597578,0.145596759860981));
#1432=DIRECTION('',(0.146307426137083,2.18588278721472E-18,0.989239170806101));
#1433=CARTESIAN_POINT('',(-12.7301641925578,0.260547513975558,26.0649435326797));
#1434=DIRECTION('',(-0.984434090597576,0.0984434090597601,0.145596759860982));
#1435=DIRECTION('',(0.146307426137085,-2.18588278721477E-18,0.989239170806101));
#1436=CARTESIAN_POINT('',(-17.5,0.737531094719795,26.9504902432036));
#1437=DIRECTION('',(0.975900072948533,-0.0975900072948562,-0.195180014589705));
#1438=DIRECTION('',(-0.196116135138182,-2.16693346144173E-18,-0.980580675690921));
#1439=CARTESIAN_POINT('',(-15.3451214151155,0.522043236231334,26.5195145262267));
#1440=DIRECTION('',(-0.975900072948533,0.0975900072948562,0.195180014589707));
#1441=DIRECTION('',(-0.196116135138184,2.16693346144173E-18,-0.98058067569092));
#1442=CARTESIAN_POINT('',(-17.5,-0.737531094719769,26.9504902432036));
#1443=DIRECTION('',(0.0,0.0,1.0));
#1444=DIRECTION('',(1.0,0.0,0.0));
#1445=CARTESIAN_POINT('',(-17.5,-0.73753109471977,26.9504902432036));
#1446=DIRECTION('',(0.0,1.0,-4.33680868994203E-17));
#1447=DIRECTION('',(0.0,4.33680868994203E-17,1.0));
#1448=CARTESIAN_POINT('',(-17.5,0.737531094719795,26.9504902432036));
#1449=DIRECTION('',(0.0,1.0,-8.67361737988405E-17));
#1450=DIRECTION('',(0.0,8.67361737988405E-17,1.0));
#1451=CARTESIAN_POINT('',(-17.5,0.737531094719795,26.9504902432036));
#1452=DIRECTION('',(0.0,0.0,-1.0));
#1453=DIRECTION('',(-1.0,0.0,0.0));
ENDSEC;
END-ISO-10303-21;
